<svg width="140" height="140" viewBox="0 0 140 140" fill="none" xmlns="http://www.w3.org/2000/svg">
<rect width="140" height="140" fill="#080B09"/>
<path d="M30.4439 80.9403C34.7822 80.9403 37.404 78.8803 37.404 75.4939C37.404 72.8722 35.9371 71.5457 31.8952 70.5001C27.947 69.5013 27.2915 69.1268 27.2915 68.1437C27.2915 67.0201 28.4776 66.3334 30.241 66.4114C32.0669 66.5207 33.2373 67.379 33.4402 68.8147L37.2791 68.1281C36.8578 65.1006 34.1112 63.1499 30.1786 63.1499C26.1679 63.1499 23.5462 65.1786 23.5462 68.3309C23.5462 70.859 25.0287 72.1231 29.2579 73.2311C33.0656 74.2455 33.5494 74.5264 33.5494 75.6656C33.5494 76.914 32.5038 77.6787 30.7092 77.6787C28.6492 77.6787 27.2135 76.6643 26.839 74.9945L23 75.5875C23.5618 78.9896 26.2772 80.9403 30.4439 80.9403Z" fill="white"/>
<path d="M45.7535 66.5675H50.7005V63.618H45.7535V58.9363H42.0081V63.618H38.9494V66.5675H42.0081V73.59C42.0081 75.5251 41.8677 76.9452 42.648 78.3966C43.9588 80.8154 47.3609 81.1119 50.7005 80.4721V77.3198C48.5937 77.6319 46.8459 77.6475 46.0968 76.399C45.6911 75.7592 45.7535 74.7136 45.7535 73.3715V66.5675Z" fill="white"/>
<path d="M60.9151 80.9403C65.9557 80.9403 69.3265 77.3042 69.3265 72.0451C69.3265 66.8328 66.0025 63.1499 60.9151 63.1499C55.9369 63.1499 52.5349 66.7548 52.5349 72.0451C52.5349 77.2573 55.8433 80.9403 60.9151 80.9403ZM60.9151 77.4134C58.0124 77.4134 56.5143 75.3222 56.5143 72.0451C56.5143 68.8615 57.8876 66.6767 60.9151 66.6767C63.8646 66.6767 65.3471 68.7835 65.3471 72.0451C65.3471 75.213 63.8958 77.4134 60.9151 77.4134Z" fill="white"/>
<path d="M80.0839 80.9403C83.8449 80.9403 86.5446 79.0364 87.5902 75.6031L83.7512 74.7448C83.1738 76.4771 82.0814 77.4134 80.0839 77.4134C77.2593 77.4134 75.8236 75.2598 75.808 72.0451C75.8236 68.9552 77.1345 66.6767 80.0839 66.6767C81.8005 66.6767 83.2675 67.7379 83.8449 69.5482L87.5902 68.5338C86.7943 65.2098 83.9541 63.1499 80.1307 63.1499C75.0121 63.1499 71.8441 66.8796 71.8285 72.0451C71.8441 77.1325 74.8716 80.9403 80.0839 80.9403Z" fill="white"/>
<path d="M90.6862 80.4721H94.5252V72.3572L100.97 80.4721H105.949L98.848 72.0451L105.387 63.618H100.689L94.5252 71.733V58H90.7174L90.6862 80.4721Z" fill="white"/>
<path d="M112.521 64.5075C111.819 64.9445 111.257 65.5843 110.836 66.3178V63.618H107.512V80.4721H111.288V71.9046C111.288 69.9539 111.975 68.3777 113.52 67.535C114.566 66.9264 115.986 66.8484 117 67.1293V63.618C115.486 63.3839 113.77 63.6492 112.521 64.5075Z" fill="white"/>
</svg>
