<svg width="375" height="812" viewBox="0 0 375 812" fill="none" xmlns="http://www.w3.org/2000/svg">
<rect width="375" height="812" fill="#111212"/>
<path d="M144.657 456.51C149.383 456.51 152.239 454.266 152.239 450.577C152.239 447.721 150.641 446.276 146.238 445.137C141.937 444.049 141.223 443.641 141.223 442.57C141.223 441.346 142.515 440.598 144.436 440.683C146.425 440.802 147.7 441.737 147.921 443.301L152.103 442.553C151.644 439.255 148.652 437.13 144.368 437.13C139.999 437.13 137.143 439.34 137.143 442.774C137.143 445.528 138.758 446.905 143.365 448.112C147.513 449.217 148.04 449.523 148.04 450.764C148.04 452.124 146.901 452.957 144.946 452.957C142.702 452.957 141.138 451.852 140.73 450.033L136.548 450.679C137.16 454.385 140.118 456.51 144.657 456.51ZM161.335 440.853H166.724V437.64H161.335V432.54H157.255V437.64H153.923V440.853H157.255V448.503C157.255 450.611 157.102 452.158 157.952 453.739C159.38 456.374 163.086 456.697 166.724 456V452.566C164.429 452.906 162.525 452.923 161.709 451.563C161.267 450.866 161.335 449.727 161.335 448.265V440.853ZM177.851 456.51C183.342 456.51 187.014 452.549 187.014 446.82C187.014 441.142 183.393 437.13 177.851 437.13C172.428 437.13 168.722 441.057 168.722 446.82C168.722 452.498 172.326 456.51 177.851 456.51ZM177.851 452.668C174.689 452.668 173.057 450.39 173.057 446.82C173.057 443.352 174.553 440.972 177.851 440.972C181.064 440.972 182.679 443.267 182.679 446.82C182.679 450.271 181.098 452.668 177.851 452.668ZM198.733 456.51C202.83 456.51 205.771 454.436 206.91 450.696L202.728 449.761C202.099 451.648 200.909 452.668 198.733 452.668C195.656 452.668 194.092 450.322 194.075 446.82C194.092 443.454 195.52 440.972 198.733 440.972C200.603 440.972 202.201 442.128 202.83 444.1L206.91 442.995C206.043 439.374 202.949 437.13 198.784 437.13C193.208 437.13 189.757 441.193 189.74 446.82C189.757 452.362 193.055 456.51 198.733 456.51ZM210.283 456H214.465V447.16L221.486 456H226.909L219.174 446.82L226.297 437.64H221.18L214.465 446.48V431.52H210.317L210.283 456ZM234.068 438.609C233.303 439.085 232.691 439.782 232.232 440.581V437.64H228.611V456H232.725V446.667C232.725 444.542 233.473 442.825 235.156 441.907C236.295 441.244 237.842 441.159 238.947 441.465V437.64C237.298 437.385 235.428 437.674 234.068 438.609Z" fill="white"/>
<g clip-path="url(#clip0)">
<rect x="147.941" y="386.376" width="75.3084" height="57.4863" rx="6" transform="rotate(-105 147.941 386.376)" fill="#080B09" stroke="#262626" stroke-width="4"/>
<path d="M171.722 348.411C168.301 349.346 165.584 348.248 163.725 345.69L172.192 343.421L171.312 340.135L162.114 342.6C161.968 342.192 161.839 341.779 161.722 341.344C161.61 340.927 161.516 340.505 161.443 340.096L170.641 337.631L169.761 334.345L161.276 336.619C161.59 333.479 163.362 331.122 166.844 330.207C168.392 329.793 170.055 329.813 171.505 330.356L172.804 326.3C170.592 325.625 168.173 325.64 165.791 326.278C159.932 327.848 156.787 332.175 156.703 337.844L153.313 338.753L154.193 342.039L157.01 341.284C157.082 341.693 157.177 342.115 157.271 342.537C157.388 342.972 157.534 343.38 157.681 343.788L154.864 344.542L155.745 347.828L159.152 346.915C162.044 351.656 166.972 353.914 172.779 352.358C175.109 351.733 177.246 350.527 178.832 348.798L175.724 345.96C174.705 347.164 173.279 348.031 171.722 348.411Z" fill="#17C834"/>
<rect x="161.15" y="370.967" width="89" height="69" rx="8" transform="rotate(-75 161.15 370.967)" fill="#17C834"/>
<path d="M214.298 345.326C215.244 341.796 213.993 339.3 210.004 336.87L205.85 334.36C203.637 333.021 202.841 331.82 203.214 330.429C203.712 328.569 206.032 327.7 208.539 328.428C211.163 329.205 212.738 331.397 212.563 333.997L217.067 334.365C217.202 330.246 215.334 327.062 211.805 325.352L212.657 322.17L208.467 321.047L207.638 324.142C203.337 323.642 200.046 325.63 199.002 329.525C198.159 332.672 199.38 335.347 202.556 337.334L208.086 340.829C209.87 341.959 210.472 343.052 210.085 344.495C209.531 346.564 207.052 347.54 204.183 346.771C201.193 345.97 199.377 343.564 199.485 340.518L195.17 340.07C194.7 344.398 196.805 348.018 200.747 349.857L199.909 352.987L204.099 354.109L204.924 351.032C209.556 351.547 213.208 349.394 214.298 345.326Z" fill="white"/>
</g>
<defs>
<clipPath id="clip0">
<rect width="124" height="124" fill="white" transform="translate(126 275)"/>
</clipPath>
</defs>
</svg>
