<svg fill="none" height="793" viewBox="0 0 800 793" width="800" xmlns="http://www.w3.org/2000/svg" xmlns:xlink="http://www.w3.org/1999/xlink"><clipPath id="a"><path d="m0 0h799.778v792.78h-799.778z"/></clipPath><g clip-path="url(#a)"><path d="m606.132 59.4627c117.694 69.2553 193.191 202.1553 192.1 337.9633 1.01 137.477-75.975 271.619-196.084 340.157-119.551 71.663-277.569 73.055-398.356 3.51-127.282-69.396-208.87099-213.206-201.83573-357.274 2.94364-136.728 85.09743-268.125 206.38873-332.7592 121.712-67.5646 279.107-64.2976 397.787 8.4029z" fill="#111212" fill-opacity=".7"/><g fill="#1b1b1b"><path d="m386.969 2.52583-.874.45556h-8.833l-1.336.41091h-6.163l-.874.45757h-4.417l-.921.41091h-3.496l-.92.45556h-3.498l-.919.45555h-2.622l-.874.4109h-2.669l-.873.45759h-2.67l-.875.40888h-1.746l-.919.45758h-2.21l-.874.45555h-1.748l-.874.41091h-1.795l-.873.45555h-1.748l-.922.41091h-1.747l-.875.45758h-1.792l-.874.45555h-.874l-.874.41091h-1.796l-.874.4555h-.872l-.875.411h-1.335l-.874.4555h-.874l-.92.4576h-1.749l-.874.4109h-.875l-.918.4556h-.874l-.873.4109h-.875l-.874.4555h-1.335l-.874.4576h-.459-.461l-.875.4109h-.873-.46l-.415.4556h-.873l-.92.4109h-.873l-.875.4555h-.459l-.874.4556h-.881-.459l-.416.4109h-.875l-.921.4576h-.874l-.872.4109h-.462-.414l-.37.3642.553-.137-.183.2283-.874.2283.414-.2283.09-.0913-.504.0913h-.461l-.229.2283-.643.2283h.412l-1.104.3186.644-.3186h-.416l-.184.1826h-.044l-.598.2283h.231l.229-.0446-.044.0446h-.184l-.92.2283.69-.2283h-.506l-.875.4576h-.873l-.874.4088h-.462-.414l-.459.4576h-.875l-.459.4556h-.415-.459l-.46.4109h-.414-.459l-.415.4555h-.921l-1.748.8675h-.873l-.462.4556h-.873l-1.748.8664h-.921l-.415.4109h-.874l-1.795.9132h-.414l-1.793.8664h-.873l-.462.4109h-.874l-1.747.9132h-.462l-1.747.8664h-.874l-.461.4109-.874.4556h-.874l-.921.4555-.415.411h-.874l-1.793.8674h-.414l-1.796.9111h-.412l-2.668 1.2774h-.461l-1.747.9131h-.46l-1.748.8665-.46.4109h-.874l-.874.4576-.461.4555h-.873l-.874.4109-.463.4556-.872.4109h-.874l-.461.4556-1.747.8674h-.46l-1.748.8665-.46.4555-.874.4566h-.874l-.46.4099-.873.4576-.416.4109h-.919l-.873.4555-.415.4556-1.794.8675h-.415l-.921.4099-.412.4575-1.796.8665h-.412l-.875.4556-.459.4109-1.748.9131h-.461l-.874.4109-.461.4556-.874.4109-.458.4576-.875.4555h-.874l-.461.4109-.874.4566-.323.3186-1.427.5478-.874.4566-.092.0913-2.115 1.1851-.69.5022 1.333-.6849-.23.1827-1.427.7305-.785.5894-1.748 1.3231-2.668 1.7329-3.544 1.7786.921-.8665-1.333.8665-1.335.8674-1.335.8208.138-.2282 1.197-.5926.459-.4575h-.459l-.874.4575-.461.4556-.873.4109-.463.4556-.873.4109-.46.5042-.782.4109h-.092l-.459.3196-1.747.9578-.967.7751-.321.138-1.336.8665-.875.4109-1.333.9111-.874.8675.874-.4576.416-.4109.917-.4556.416-.4555.874-.4109.783-.6382 1.428-.6849-.463.1827 1.796-1.0491 3.312-1.9622-2.438 1.5066-8.374 5.703h-.874-.231l.231-.4555-.459.4555-.599.4556h-.277l-.874.8675.367-.2293-.828.6382.461-.4089-2.207 1.7329-4.003 2.646-4.189 2.8754-.091.0893-.139.0913-.414.4576-1.795.8664v.4109h-.414l-2.346 1.9613-1.197.6848-2.666 1.7329.919-.4089-.646.5013.184-.0914-1.287.9598 1.103-.8674-.69.3652-.782.7752-.093.0913-1.791 1.324.596-.3196 2.486-1.8709 15.917-10.4939-3.957 4.38 3.082-1.324-1.332 1.324 1.332-.4576-2.208 1.7339h1.335l-6.626 4.8366-3.127 4.379 3.127 3.9244 5.707 1.7796.918.4109 4.831-1.2784.461-.9111.415-.4109.459-.4576.461-.8664.415-.4556.873-.4109.461-.8664.875-.9132.458-.8664.875-.4109.458-.4556.416-.8675 1.795-1.7796-3.129-.8664 3.542-5.703.874-2.6004 3.128-3.5125-3.128 4.3789-3.499 7.437 1.289.4576 1.795-.8675-.873 1.2774 1.747-.4089-.874 6.5694v.411h1.749l2.668-1.2774 1.748-1.3241-.415.8665 1.288-.4555h.921l1.288-.411h.921l.874-.4555 1.333-.8665 2.21-2.647-.921.4575.462-2.646h2.666l-.459-1.7339 3.956-.4556 2.209-2.6004 2.67-1.324.874 6.1149 2.207 3.1016 4.003 4.38-3.542 6.9794-2.209.8664 1.335.9132-4.877 5.6573 2.666.456-6.623 7.437.874-3.057-1.794 1.319-2.209 8.303 2.209-.867.459-1.732 2.21-.458 7.499 3.057.461 7.026v.866l-2.668-.455-.874.455-1.335.458h-.874v.866l-2.67.411 5.753 3.104-.416 2.189 5.293-1.78.414 2.647-1.748 1.733-.874-2.191-8.421 2.191-1.748-3.513-6.625-2.19-5.29-2.191v-3.466h-5.752l-7.958 1.732-24.294 11.818 5.749 2.191 3.957-2.191-.414 4.38 2.209-.867 2.208-.867 1.334-.455 1.749 4.379 7.959-3.057v3.057l6.625-4.379 2.209.866 2.209-4.38 11.042.458v1.733l-1.795 1.324 3.543 2.19-3.958 1.322 3.543.456.875 4.791-4.004 3.97 3.128-.458 8.376 3.514 5.751 5.703-.459 5.246 2.668-.455 10.167-7.437-1.792.455 3.082-3.101-2.209-2.191 1.796-.411 1.747 6.571 2.209.409h3.08l4.879-2.6.461 1.733-5.339 2.646 1.796 3.514-4.003 4.379-1.288 5.246 1.749-.455-1.749 1.779 1.749 1.278 1.333-3.467 2.622 1.277 2.669-1.277.461-2.646.415 4.38 1.792-1.734-.459 2.19h3.956l2.669-6.57-.46-3.968-.874-1.734-5.29 4.38 8.373-7.026 5.752-11.816 4.417-8.761-1.336-4.379 1.336-3.514.873-1.732h-.873l-2.622.41-3.543 2.646-1.795-.866 3.13-4.38 3.495-1.78-1.748-.866 2.21-7.893-2.669-1.277 5.752-2.647v-.456l6.211-2.189 2.622-4.79.461-4.836 7.958-5.7045.875 1.7796 3.543-2.1885.874-1.7796 2.207-3.4668-1.795 3.4668 8.42-7.4369h-1.792v-1.7339l.459-.8665-.874.8665-.46.4109v-.4109l-.873-.8665-3.084.4109h-.459l2.669-2.6004-2.21-.4555 5.291-2.1905 1.333-2.6461 4.416-.8665-4.001-3.5135 10.628-1.2773-.874 1.7339 3.081-.8675-.874 1.324h3.496l4.004-2.1904 4.83-.9132-1.746-3.4668 4.416-2.1885.459-.4576 3.496-.4555.46.9131 5.752-2.1905 1.333-2.6461 3.957 1.322v-1.322l2.669.4556 2.209-.9131-.463-1.2774-2.207.8664 6.626-4.3789v1.7329l-5.292 8.3501 3.957.8664h-2.621l.412.8665 7.502.8665 5.335-3.057v1.7339l5.291-1.2773-2.207 2.1884h3.956l2.209-3.1016-1.336-2.1905 1.796-.4109 1.747-.4555-2.622-.8665 2.21.4556 3.956-2.6461v.8665l4.417-.8665.368-.6848 9.339-3.6952-.412-1.7329 2.207.8664-3.542-3.0569 13.248-1.7786-.873-3.5135-6.21-2.1885-.414-4.7909-.46-.8664 2.209.8664.874.4109-.874 2.1905 1.747-.8664-2.207 3.0569h4.003l3.081.9111 3.084 1.2774 2.207-.4099-.873-1.323 4.416.4555-5.29-3.1016 5.29.9121 1.749 5.2455v-2.1885l4.875-2.1895-2.207-2.1905.874-1.7796 1.333-2.1905h-5.291l-4.415-1.2773-.874-1.7796 1.747-1.3221-3.542-.8674 4.418.8674.874 3.5126 4.876-.4109.462-2.6461 8.373-3.057 7.499 1.733h-7.04l-6.211 3.0569 2.209 1.7796-1.335 3.057-.874 2.1905 1.795 1.7339-3.544 3.5125 2.623.8665 4.415.9131 3.545-3.9701 4.416-.8664 1.333-3.057.874-.8665-3.082-.4575-2.21-2.1885 3.545-1.7339 5.29 3.4668-1.335-.4109 11.044 4.7909 2.208-.4109-.874-2.6461 3.083.8665 1.333-.8665.46 1.7786h4.832l4.417 1.7329 2.208-.8664 4.002 1.7329-2.667.8665h4.416l-.874.4575 10.169 1.733v-.8665l3.081 1.323 2.623-1.323 4.002 1.7796.415 2.1895-5.291-1.3231-.875.8675 4.876 4.379-.457-1.7329 8.833-3.9691 2.207 3.057 5.293 1.324 3.083.4555h1.334l.875-.8664 1.333-1.323.459.8664 2.623 2.1905 2.209 2.6461h2.208l-1.289-2.6461 3.496.4556 2.669 4.38-2.669 1.7339-3.496-.4576 1.748 3.1037-2.207-.9132v3.1037l-9.294-10.5396-3.499-.8665-5.75-.4565-.459 2.646-.415.4566 3.498 6.9804 3.127 2.1905h2.623l-3.081.4555 2.207 1.322-1.75.8675-1.333-1.324.414 1.324 3.128.4109v1.7796l2.208.8665-.459.8664-.459.8665-2.21-2.1905-2.622-.8665.414 3.5136 4.003.4555h-4.003l.461 1.2774h4.415l1.334.4555-3.542.4576 7.085 1.2774-5.336-.4109.918 1.7339 6.993.8665h.047l.462 2.646 1.333-.4555 1.289-.4109-.414 1.322 5.291 1.2773h-2.208l2.208.4576h-2.208l1.748 1.322 1.794-1.322v2.1905l5.293.4556 2.208 2.1905-.875-2.6461 1.75 2.6461 3.083-.4576-1.75.8675 1.75 1.322.457-.8665 1.335 1.3241.415-1.7796 3.542 2.646-.414-1.7796 3.083 3.5125.415-.8664 4.877 1.7339-2.207-2.1905 3.081 2.6461.873-.4556v.9111l4.876 1.2774-1.746-1.7329 4.415 3.0569-1.333-1.324 2.208 1.324.874-.4109 1.747.8665-1.747.4109 7.498 3.514-.874-1.734-3.957-2.1909 4.417 1.324 1.748 2.1909-1.335.411 2.209 2.188 3.082.458v1.322l1.336-.912-.415 2.646.415-2.19 2.669 4.38.874-.867 1.749.41-.415 1.323.874-.409v2.189l1.749.411 2.207.866v-1.732l.92 1.732-.459-1.277 2.209 1.277-1.75-3.057-1.794-.866.873-.867-2.207-.867h1.795l2.621 1.735-1.288.456 2.209 3.922.413-.866.874 1.324 1.336-.458-1.748-1.322 2.621 1.779h1.336l-1.749-1.324 3.084 1.324-4.879-4.38 7.086 5.657 1.334-.867-2.666-2.6 3.54 2.6-.874-1.733 1.748.866-.412 1.735 2.623.456 1.793-2.647-1.793-3.057-7.499-4.379-.461-1.733-5.292-1.78 7.96.456-.875-1.322 2.624.866-2.624-1.277 3.957 1.277 4.003-1.734 2.208 1.734 4.418.456-2.209-3.513-4.876-2.1905-1.335-2.6004-8.375-3.5125h-5.291l-.921-1.324.462 1.7339-2.67-3.0569-2.622-.8675h1.749l-3.956-2.1885.415 1.322-3.498-2.1905-2.668 1.7339.874 1.7796-13.251-2.1905.461-.4555-7.086-3.9244-2.21-1.3221-4.831-1.324-4.415.4556v-.9112l-3.13.4556.46-1.322-2.667-.4109-2.623-3.1037 2.623-1.7329 19 7.0251 5.752-.9112 5.29.9112v-2.1885l-1.749-1.3241 3.084.8665-16.333-11.405h2.207l-2.207-3.057 5.75 3.9681 2.21.4109 3.497 4.38 6.625 4.38h4.002l-1.795-1.734 5.753.4109 3.082 1.7796-2.207 2.1905 3.128 1.733 6.625 2.1905 3.497.4575 3.543.4089 1.333 1.7796 1.337 1.3241 1.748.4109-.415-.4109-.919-.9132 1.794.9132.413.4109h.186l2.022 1.322-3.08-1.322 3.543 2.646-.875 1.7329 9.707 8.761 2.669 1.322-1.795 2.647 5.753 6.113-2.67-1.324 1.795 3.057-1.795.912-4.832-1.78-5.75-4.38-.46 1.779-6.165-2.645 5.752 5.702 13.25 4.38-.874-.866 1.287-.458 1.795 1.324 2.21-2.19-.461 2.601 3.084 1.322-.874.867 1.794 2.646 1.288-.455.92 3.968 2.207 2.19 2.21-.455 2.207 2.19h-3.13l6.212 4.379.875-1.322 2.207 3.968v-2.188l4.877 9.17 3.498 1.322 1.334 1.324 4.878 5.703-.874 4.791 5.292 1.322 1.747 4.38-1.747.455 2.622 6.113.919-.866v1.324l2.622.411.46-5.247 4.416.867.413-1.733 3.13 2.188h.874l10.582 8.304 2.21 18.432-1.336 1.277 4.003 7.893 3.083.455 10.168 8.761 6.164 7.436-1.333-2.646 2.667 3.104v-1.324l5.752 5.703-1.335-8.759h4.877l-3.542-7.483-1.335-8.761-3.957-5.245-.919-3.058-3.498-3.057-1.333-3.057-.875-1.323-.918.411h-.415l-2.668-2.191-.873-1.277-6.165-7.026-6.21-10.494-3.957-1.78-2.67-2.6-1.747-3.102-.46-5.657-10.168-12.274-.414-3.512 5.291.866.46-9.17 3.496 1.278 4.417 3.97-.415-1.324-4.877-3.924-2.208-2.646-1.335.867-3.495-3.057-1.796-2.645.875-.411-1.749-1.78.46 5.293-2.208-1.78 2.622 4.38h-3.956l-.874 2.646-4.877-1.779-4.417-5.247 3.955.867-3.495-3.057 4.833-.41-1.75-2.647.412-1.733-.874-2.191.461-1.322 6.625 3.922.874-.409.874-.456-1.749-1.735 2.209 1.735h.413l-5.291-6.113 1.795 1.277-2.209-2.19v-.411l-2.162-1.277-.046-.047-.459-.866-1.336-.456.874 1.78.508.41h-.508l-.412-.867-2.67-.456-1.747-1.7325-.46-1.324-.874-.4109-.874-1.322-.46.4088-5.291-4.3789-3.266-4.0148.598.5479 3.544 2.5994 1.517.5935 2.025 1.597-.46-.8665-1.289-.8664h-.139l-2.991-2.1905 4.003 2.6004-.46-.8675 1.795 1.7796h-.459l2.207 1.2784-2.207-2.6004 1.747 1.7329-.874-1.322 2.161 1.7796-3.495-3.5136-2.21-1.7329-2.621-2.1905-3.083-2.1905-1.794-1.7796.413.2283-2.391-1.6883-.692-.5012-.092-.0913.459.2283-.783-.7762-.321-.1359v-.0447l-.137-.2749-.828-.4109-.462-.4556-.829-.4109-.091-.0446-.184-.2293-.23-.1816-.462-.4576-.459-.2283-1.288-1.0947-4.417-3.057-1.15-.6849-.185-.1826-.874-.4555-.46-.4109-.873-.4556-.461-.4576-.412-.4089h-.414-.047l-.091-.0466-.14-.0913-1.103-.7305-.873-.4556-.506-.5022-.367-.3643-.922-.4575-.412-.4109-.875-.4556-.46-.4555h-.414l-.045-.0457h-.047l-.782-.8208-.92-.4109-.874-.4576-.413-.4555-.968-.5023-.367-.3642h-.412l-.967-.4576-.413-.4109-.873-.4556-.875-.8664-.92-.4556-.413-.4109h-.414l-.46-.4575-.874-.411-.875-.4555-.458-.4109-.875-.4556h-.46l-.414-.4565-.919-.4099-.414-.4576h-.459l-.875-.8665h-.827l-.093-.0446-.415-.4109-.874-.4109-.457-.4566-.875-.4109-.415-.4556h-.873l-.091-.0446-.371-.4109-.874-.4109.416.4109 6.625 3.9701 6.625 4.379 2.209 2.1905 6.21 4.3799 10.581 6.9794 6.627 5.2921 1.335.8675-2.209-2.1905 3.542 3.057.874.4555 6.074 5.6574-3.451-2.6004-4.83-4.379-.874 1.322 1.289 1.2774-8.376-5.2455-6.165-3.0579h.416l-2.208-1.733-3.957-1.324h.414l-3.957-2.646-2.667-1.3221-5.293-3.0569v-.8675l2.669 2.1905-.875-1.322 1.29.8665-4.464-3.6952 5.384 3.2842-2.667-2.1905 2.667.8665-1.334-1.322-12.836-7.437 4.417 2.6461 1.332 1.2774v.4575l-4.83-2.1905 2.622.8665-5.292-2.6004-13.711-7.8925 4.419 1.7339 2.667 2.1905-.874-1.324.413.4556 5.752 2.1905 4.001 2.646-7.084-6.1586-3.544-2.1894h1.335l2.668 1.324.875.4555-.462-.4555-.873-.4576-4.419-2.1905-1.333-.8665-2.207-.8664-3.083-1.7339-.875-.4556h-.459l-1.748-.8665-.461-.4575h-.875l-.457-.4099-1.75-.9121h-.46l-.874-.411-1.333-.4555-.554-.4109h-.32l-.415-.4576-.917-.4556-.416-.4109h-.873l-2.069-.8664h-.138l-.646-.3196-.277-.136-2.161-.8674h-.047l-.046-.0447-.874-.3652-.047.0456.553.3643-.598-.3196-.276.3196-5.338-1.7796-6.165-2.5994-13.249-4.38-6.628-2.6461-.457-.4109 4.415 1.2774-1.749-.8665 7.5 3.057 3.543.9131-1.748-.9131-1.336-.4109h.416l-1.198-.4556h-.092l-.322-.1379-.597-.273-.874-.4576h-.874l-.462-.4555h-.874l-1.748-.8665h-.459l-.875-.4109h-.874l-.872-.4555h-.463l-1.748-.8675h-.919l-.415-.4556h-.459-.413l-.46-.4109h-.461-.413l-.459-.4555h-.875l-.873-.4576h-.462l-.873-.4089h-.873l-.877-.4575h-.919l-.412-.411h-.461-.414l-.46-.4555h-.874l-.46-.4556h-.875l-.873-.4109h-.874l-.919-.4576h-.875-.045l-3.91-.8664-3.545-.8665h-.873l-1.335-.8664h.46l-1.795-.4576h-.413l1.288.4576h-.412l-1.795-.4576-1.75-.4556-.413-.1826-1.011-.2283h-.322l-.231-.1359-1.565-.3196-.872-.4109h-1.75l-.92-.4576h-.874l-.875-.4556h-1.333l-.873-.4109h-.874l-.874-.45553h-1.795l-.873-.41091h-.875l-.874-.45555h-1.795l-.874-.45758h-1.747l-.922-.41091h-1.747l-.875-.45555h-1.793l-.874-.41091h-1.748l-.874-.45555h-2.208l-.921-.45758h-1.747l-.875-.40888h-2.667l-.874-.45758h-2.67l-.872-.41091h-2.623l-.92-.45555h-3.497l-.919-.45556h-3.498l-.919-.4109h-4.417l-.873-.45758h-6.165l-1.334-.41092h-8.835l-.874-.45555h-12.378-12.404z"/><path d="m534.52 26.1587 4.831 2.1905h.873l-2.207-.8675-1.01-.4555-.462-.273-.459-.1379h-.137l.643.2739-.783-.2739-.829-.3196.23.0466-.457-.1826h-.142-.091z"/><path d="m536.543 26.7522.23.0447-.504-.1826z"/><path d="m536.773 26.7979.784.2282-.83-.4109h-.367z"/><path d="m554.764 34.0969.045-.0447-.276-.0446z"/><path d="m554.809 34.0523.689.2283-.228-.2283-.874-.4109h-.462l.278.1826z"/><path d="m565.851 38.8877-.413-.4555-.92-.411h-.415z"/><path d="m586.189 48.9707 5.749 3.057-.919-.8665-.874-.4566h-.413l-.921-.4555-.413-.4109-.874-.4566-.459-.4109z"/><path d="m639.144 82.4573.918.6382.462.4575.783.3643-.783-.8218-.829-.3643-.093-.0446z"/><path d="m639.603 82.6867-.504-.5022-.369-.3653-.873-.4555-.461-.4556-.874-.4109 1.611 1.1414.184.1816.183.0913z"/><path d="m662.608 104.996 3.496 4.379 1.795 1.779 2.208.411-1.794-1.733.92.456-1.796-1.78-.413-.867-2.669-1.323-1.747-2.19z"/><path d="m667.899 111.154h-.461l1.796 1.735z"/><path d="m595.894 84.8761-.458-.4556-4.417-1.7329z"/><path d="m463.391 43.6776-2.669-.4099 1.335.4099z"/><path d="m155.684 85.424-.506.4099.784-.5479z"/><path d="m167.231 76.802 1.98-1.5513.458-.4576-2.208 1.7339z"/><path d="m179.839 67.7681v.4555l.874-.4555.459-.4109z"/><path d="m194.422 59.0071.875-.4109.184-.1816z"/><path d="m195.482 58.4146 1.149-.6849-.921.4109z"/><path d="m195.71 58.1407 2.669-1.3231h-.413l-.874.4109-.044.0457z"/><path d="m197.091 57.2285.736-.4109h-.322z"/><path d="m197.827 56.8176h.139l.873-.4098-.459.4098.875-.4098 1.379-.9132-.921.4556.369-.3643z"/><path d="m200.633 55.4946.83-.4109 2.022-1.3231h.185l.461-.4109.321-.1816.323-.2283-1.52.8208h.14l-.782.4109z"/><path d="m202.614 54.1715.642-.4109h-.459l-.46.4566-.873.4109-.368.3642z"/><path d="m201.095 54.9923-.736.4109.689-.3196z"/><path d="m538.384 27.4817.966.4576.782.3185-.32-.3185-.875-.4576h-.46z"/><path d="m540.409 28.3492 1.886.7752-.276-.3186-.874-.4555h-.736z"/><path d="m542.709 29.2613 7.683 3.0579 2.44 1.0025-2.945-1.46h-.368l-1.75-.8665-.457-.4556h-.875l-.874-.4109-.457-.4575h-.875l-.874-.4109h-.648z"/><path d="m556.146 34.5078 1.471.5489-.138-.138-.875-.4109z"/><path d="m446.597 41.4891-1.749.4556h.414l.461.4555 1.746 1.734 1.337-1.3241z"/><path d="m449.266 45.4562 1.748 4.381-1.332 2.1895-4.419.4109 2.669 1.323 3.541.8675v-1.2794l2.624.4109-2.208-.8665 6.623-.4565.462-1.2774-3.543-.9121 1.333-2.1905v-.4109z"/><path d="m417.473 46.7812-.92.8665 2.669.4109.458-1.2774z"/><path d="m469.557 46.7812.918 1.734 3.496.4555-.413-1.7785z"/><path d="m208.961 50.7037-.414.4566h-.458z"/><path d="m444.848 52.8942-.873 1.323-1.796-.8675.875 1.2794-1.75-1.2794-.457 1.734-.875-.8665-1.334 1.323-1.288-.9111-2.21.9111-3.541 1.2774-13.252.4566-1.335 2.646 7.086-1.324 5.705 1.324 2.209-.4555 8.835-.8675-.415-1.7786 4.416-.4099-1.794-1.324 2.208.8664h3.129l-3.129-1.7329 4.003.4109z"/><path d="m340.179 60.7867v1.3241l2.209-.9132z"/><path d="m370.636 66.0331-5.29 3.5135 3.955 1.7329.46-1.7329 1.75 1.7329z"/><path d="m378.596 68.2236-5.291.8665 1.747 3.057h.461l1.748.4575.874-.8674.459.8674 4.832-3.0569z"/><path d="m385.635 69.5477-2.208.4089-.874.9131h3.542z"/><path d="m383.011 71.2806-3.542 1.7796-.459 1.7329 4.001 1.734 3.084-4.7909z"/><path d="m625.065 72.1471 1.011.7761-.598-.3185z"/><path d="m423.181 73.9266 1.791 1.3241v-1.3241z"/><path d="m421.89 74.3365-3.129.9132 2.207.4109h.462l.229-.6382.231-.2293z"/><path d="m628.331 74.5648.506.3653-.277-.138z"/><path d="m178.965 76.5271-2.669 2.1905-1.334-.4109z"/><path d="m571.603 76.5271.459 1.324 1.288.8665v-.8665z"/><path d="m572.937 76.5271 3.084 3.1016 2.207-.4556z"/><path d="m431.137 77.8511-1.334 1.322 6.627-.8665z"/><path d="m634.174 78.7622.598.4109.689.5479.094.1826-.367-.2749z"/><path d="m206.34 79.6287-.874 1.7339 2.207-1.324z"/><path d="m641.398 84.0096 1.057.7752.277.5022 1.195.5935 1.428 1.1861-.875-.8665-.46-.4555-.874-.4576-.873-.8664z"/><path d="m645.355 87.0656.873.8664.323.1826.045.0467.094.2283.459.4109.321.1816.967.6849.46.4555.459.2283.092.0467 1.196 1.0491.139.0913.32.3196.094.0446.184.138.551.4555-.366-.1826 1.747 1.3241 1.749 1.322.46.4109 1.563 1.4153.046.0447.138.3196.508.2283 1.701 1.5066.047.0447 4.83 4.3328 3.037 2.556.046.091.139.045 2.531 2.144-1.794-1.779-.414-.41-.599-.32-.276-.592-.829-.319-.045-.046-.92-.911-.414-.411-.461-.502-.185-.183h-.045l-.184-.183h-.046v-.045l-.874-.866-.46-.229-.091-.045-.046-.045-.874-.731-1.151-1.1399-.598-.275-.046-.0446-.689-.5935-.46-.411-.415-.4555-.093-.0447-.045-.0466h-.047-.045l-.875-.7752-.044-.0466-.185-.411-.461-.4088-.412-.4576-.323-.137-1.473-1.185-.412-.4109-.92-.4576-.414-.4109-.46-.4556-.323-.1369-.09-.0457-1.243-1.0491-.092-.0913-.138-.0903-.045-.0457-.278-.2729 1.334.8665-4.646-3.5592-.232-.4109z"/><path d="m311.009 84.8761-1.748 2.1905-2.669 3.9234 5.752-.4089-4.876.4089 1.336 2.6471 7.084-3.5135-2.67-1.322 1.75-.411 3.129-.9131-1.795-2.6004h-5.293z"/><path d="m300.841 85.7435-3.957 3.5125 1.335.8665 3.957-1.322-.875-3.057z"/><path d="m583.98 85.7435 3.542 2.6461h2.622z"/><path d="m522.558 86.1991-.415.8665 3.958.8664z"/><path d="m470.015 87.0656-2.668 1.7339 2.21 1.322 4.001-.8665-2.209-.8664 1.749-.9132z"/><path d="m454.557 88.8005-.459 2.1885 2.666.8675-2.207.9111 3.544-.9111-1.29 2.5091-.506.1369h.459l.323-.1826h.092l1.333-.2729 1.337 1.322 1.793-1.322-.919-.8675-1.289-.8664 3.083.4555-.873-3.1016-6.626-.8665z"/><path d="m530.102 89.2561-2.207.4109 4.832.9131z"/><path d="m466.058 90.1226 1.75 1.324 1.334-1.324z"/><path d="m467.808 91.4467-2.209-.8665-1.333 1.7329-1.75 2.1905h1.75l-3.544 2.1905 7.086-1.7339-4.416 2.1905h3.542l-.875 1.7339-2.666-.8675 3.542 2.1909 7.038-3.0573-5.29-1.322 2.667-.4576-2.207-.8665.874-.8664 4.877 3.0569 1.749-.8664-3.083-2.1905 3.083 1.7329v-1.7329l1.335 2.1905 2.207-1.7796 1.335-2.1905-12.376.4555z"/><path d="m528.309 90.1226 2.668 1.324v-.8665z"/><path d="m190.42 91.8566-4.829.9111-7.087 3.0579-5.292 1.733-17.667 6.1604h2.209l-2.666 2.6-2.625 1.323h1.29l8.419-5.702 5.291-.868-1.333 2.647-4.417 3.057 7.958-4.38 8.834-4.3799 15.459-4.8365v-1.322l-3.957 2.1905z"/><path d="m650.645 91.8566 2.209 2.1905h.459z"/><path d="m146.713 92.3131-1.795 1.3241-2.207 1.7329-2.991 2.784.784-.5935 2.665-2.1905-3.957 3.5135-.92.5915 1.428-1.322-.967.7305-.874.8665-.459.4559-.047.091-.827.775.458-.866-1.333 1.734-.459.455-.874.867-3.543 3.924-1.748 1.322-4.001 3.514-.874 1.322-3.086 3.514.459.409-2.209 1.781 1.289-.456-1.748 1.734 1.335-.868-1.335 1.324-.874.455-.873.411v.456l.412.867 2.669-2.646 1.333-.411 4.832-3.057-1.333 1.733 3.54-1.324 8.835-6.113 1.792-2.189-3.127 2.189 3.543-3.512h-.875-.461l-2.206 1.324-.415.41-1.333 1.324h-.874l-3.084 1.324.874-3.514 2.623-2.19v.457l1.335-1.324-3.958 1.734 9.709-9.1719 2.944-3.2842z"/><path d="m308.803 94.9581-4.417.4109-2.67 2.1905 1.333 2.1905z"/><path d="m660.813 100.616 1.335 1.325 2.161 1.915-1.288-1.46z"/><path d="m664.309 103.856 4.004 4.653 1.333.866-2.622-3.056z"/><path d="m658.375 101.3 2.025 2.828-.92-.867-.046-.091z"/><path d="m610.479 101.94 1.748 1.322-.412-.867z"/><path d="m146.252 103.263-2.209 1.551-.413.183-.278.272-1.517 1.05-2.207 3.056 4.003-3.923h.873l-2.209 2.19-.46 1.323-6.165 6.57h2.209l-2.209 4.791 1.333-1.734 3.958-1.734-.458-.912 2.665-3.468 10.584-8.349-8.374 2.647 2.668-3.057-1.794 1.278v-1.278z"/><path d="m604.269 103.263 3.13 1.324-1.335.411 2.207 2.645 4.832-1.323-2.209-.411-4.415-2.646z"/><path d="m133.876 103.719-.874.409v.458z"/><path d="m133.002 104.586-3.083 2.6-.461.456 2.21-1.734z"/><path d="m609.606 108.098 1.288 1.735 2.209.866-.875-2.189z"/><path d="m672.317 110.289.873.866.094.047.047.044.183.047-.322-.594z"/><path d="m673.513 111.293v.045l-.184-.092.276.229.046.091.873.912.507.228.46.411.046.045.322.593.874.914.596.272-1.057-1.186-.184-.136-.69-.729-1.335-1.324z"/><path d="m677.329 114.942.462.502.275.502.368.183.784.866.138.273.231.091 1.102 1.232-.412-.866-1.335-1.324-1.336-1.323z"/><path d="m680.688 118.591-.874-.867 10.585 11.816 4.415 3.924v.456l4.877 5.247 1.335 2.19 3.957 6.159-1.749-1.322 2.622 5.245 2.668 4.38.874 4.38-.874-.457-6.164-7.434h-2.209l-4.878-4.791 2.669 3.057-1.334.411 5.291 8.35 1.749 4.79 3.127 5.292.873 4.38 5.293 11.816 3.542 6.57 1.334 3.924 3.498 6.159.459 3.467-.874-.866 1.748 7.436-2.207.457.459 2.189 7.5 10.494 6.165 15.786 4.002 7.026 4.831 4.791v.866l2.667 4.836 3.084 10.083.875 7.436 4.002 8.759.873 5.703 4.417 8.759 1.518 7.529 4.647 15.238 2.667 5.246-.873-2.6 3.083 1.734 1.334 5.246 3.956 5.703 4.003 12.683.874 9.216 2.209-.455.875 2.19.459-4.791v4.791l-.92.456 1.334 4.836.46-2.646v3.513l.413-3.057.461 2.6.459-1.734v1.734l.416-6.113v3.513l.459-1.322v3.923h.874v-2.6l1.334 3.057.416-1.322.459-.868.459 2.191.414-.867.874 3.057v1.324l.919-.913.415 2.191.459-3.057 1.748-2.191v-3.923l-.874-9.217-.874-6.113-.874-5.246-.23-1.78h-.231l-.874-5.246.414 2.19.047.229.505 1.642-.552-4.517-2.206-13.139-.416-.867v-.867l-.459-.866-.415-2.191v-.866l-.459-.912v-.867-.411l-.23-.912-.231-.866v-.411l-.413-.911v-.411-.867l-.459-.912v-.867-.41l-.416-.912v-.411l-.459-.866v-1.323l-.461-.867v-.913-.411l-.413-.866-.46-1.324v-.867-.455l-.413-.867-.459-1.324v-.866l-.461-.867v-.457l-.414-1.231v-.091l-.046-.138-.415-1.187v-.866l-.874-2.6-.459-.914-.415-1.277v-1.322l-.459-.867-.875-2.646-.459-.867v-.455-.411-.458l-.231-.273-.184-.547v-.502l-.229-.228-.231-.183v-.502l-.185-.592-.229-.229v-.455l.229.684.093.091-.321-1.186-.461-.456v-.866l-.459-.458v-.866l-.416-.456v-.867l-.459-.411v-.911l-.414-.411v-.867l-.459-.457v-.867l-.459-.455v-.867l-.415-.867-.459-.456v-.866l-.416-.458v-.866l-.459-.411v-.911l-.46-.411v-.868l-.413-.455-.461-.867v-.457l-.412-.867v-.455l-.46-.867v-.411l-.46-.912-.415-.411v-.866l-.46-.456v-.867l-.412-.456-.462-.866v-.457l-.459-.866v-.411l-.413-.911-.46-.411v-.868l-.414-.455-.461-.867v-.457l-.459-.867v-.866l-.415-.456-.459-.867v-.456l-.412-.866-.461-.411v-.912l-.459-.411-.416-.867v-.455l-.459-.868-.414-.455v-.867l-.46-.455-.459-.868-.414-.411v-.911l-.459-.411-.415-.866v-.458l-.46-.866-.461-.456v-.867l-.413-.456-.873-1.733v-.457l-.46-.867-.461-.411-.413-.913v-.411l-.462-.866-.412-.456-.461-.866v-.458l-.459-.866-.412-.456-.462-.866v-.411l-.413-.913-.462-.411-.458-.867-.412-.457v-.867l-.462-.455-.874-1.734-.458-.456v-.866l-.416-.458-.459-.866-.414-.411-.46-.911-.459-.411v-.868l-.414-.455-.46-.867-.415-.455v-.411l-.46-.458-.46-.866v-.456l-.412-.411-.874-1.779-.458-.411-.462-.913-.413-.411v-.456l-.462-.866-.412-.411v-.456l-.459-.457-.461-.867-.413-.455-.461-.868-.414-.408v-.458l-.46-.456-.873-1.277-.462-.913-.873-1.277-.46-.913-.875-1.277v-.456l-.412-.457-.46-.867-.46-.41-.414-.912-.46-.41-.415-.868-.459-.456-.46-.866-.185-.228-.045-.046-.185-.592-.414-.411v-.046l-.46-.866-.458-.456-.461-.867-.414-.456-.46-.866-1.335-1.325-.412-.866-.875-1.324-.459-.411-.461-.455-.412-.867-.875-1.324-.461-.456-.874-1.733-.506-.456-.047-.045-.32-.821-.921-.411-.413-1.324-.875-.82-.459-.502-.46-.867-.185-.183-.045-.046-.185-.638-.459-.456-1.336-1.324-.873-1.277-.415-.911-.459-.411-1.335-1.324-.092-.092-.782-1.23-.462-.868-.412-.455-.46-.867-.874-.411-.46-.913-.435-.429-.462-.867-.551-.275-.322-.638-.459-.411-.416-.455-.459-.867-.321-.319-.093-.138-1.333-1.322-.46-.867-1.105-1.095-.229-.639-.875-.866-1.335-1.324-.413-.456-.46-.866-.874-.411-.46-.913-1.75-1.733-.457-.868-.875-.455-.412-.867-1.29-1.277-.046-.047-.506-.455-.046-.046-.321-.821-.874-.411-.047-.046-.414-.82-.829-.867-.047-.045-2.207-2.191-.463-.866-.322-.138-.138-.273-.873-.913-.875-.411-.46-.866-.874-.456v-.457h-.23l-.185-.411-.46-.455-2.208-2.191-.092-.044-.367-.366z"/><path d="m777.768 275.718.092.365v-.275z"/><path d="m777.86 276.084v.136l.231.685z"/><path d="m760.837 307.016-.185-.547.414 1.779z"/><path d="m126.651 111.293-1.149 1.185.875-.456-2.207 1.733.366-.729z"/><path d="m138.752 118.591-1.333.455 1.792 1.279.875-1.279z"/><path d="m138.292 121.648 1.336 3.512 1.333-2.645z"/><path d="m263.298 127.351-2.621 2.19h1.748z"/><path d="m680.688 128.218 7.96 11.405 1.335.411-1.795-5.657z"/><path d="m152.462 134.377.874 1.734 2.209-.868z"/><path d="m610.021 136.568 1.794 6.569-7.086-5.703.874 4.791 4.876 1.779v2.191l3.956.409 2.67 3.103-.459-3.103 8.419 5.704-3.13-2.601-2.622-2.646h1.748v.867l6.212 3.512h1.288l-1.288-.866-1.335-5.247 2.622 3.057 2.207-.455-.873-1.324 4.002 2.647.874-.868 1.336 4.791 2.622 2.646-.873-2.646 1.747.913 4.416 5.657 1.796-4.379-2.67-3.925 3.545 3.514.459 3.512 6.626 7.848-1.795-6.979-2.208-1.78-3.082-10.494-3.083-5.246-1.335-.456.873 3.057-1.333-2.19-5.292-4.38-2.207.455 1.333 3.514-3.543-1.324-.412.458v1.277l-.922-2.191-1.745-.866-2.212 2.19-6.623-.41-.46 3.923-1.29-3.513-.457 1.778-1.335-2.646z"/><path d="m673.65 136.568 3.955 4.79 3.543.867-4.002-3.467z"/><path d="m195.71 138.3-3.082.458 3.082 1.733z"/><path d="m681.564 141.814 3.128 4.38 7.914 4.79-3.497-5.247-5.338-3.923z"/><path d="m270.383 143.136 1.336 1.278 3.083 3.102.873-4.38h-1.334z"/><path d="m557.891 145.737 1.336 2.191-2.623.455 2.623 1.734-.874 3.057 3.084.914h-3.546l2.67 2.599-1.748.457-.922.411 5.337 3.968-5.337-2.188-3.957 2.188 4.419.411-3.083.913 3.543 1.278-1.335 1.324h1.748l-.413 1.778 2.207-5.293 1.29 2.646 1.334-1.322-.416 4.837 4.417-3.97 3.085 4.836v-3.923l2.207-1.324 2.21-1.78-1.797-4.79-1.747-5.704-3.958-3.923-.92.866v-1.779l-7.037.913z"/><path d="m606.478 145.737 3.542 3.057 1.334.458-1.334-1.734z"/><path d="m613.564 147.928-1.749.866 3.496-.411z"/><path d="m618.854 149.251-1.336.455 2.21 1.278z"/><path d="m625.478 153.174 1.795 3.97-1.795-1.779-.413.911 2.208 1.734-1.335.455 3.085 3.467v-1.733l2.667 2.191v4.379h2.622l1.795 2.646 1.287-3.102 3.543 5.292-.413-3.97 2.208 6.16.412-1.78 1.795 3.057v-2.6l1.288 2.6-.873-2.6 1.794 1.734-2.209-6.571-2.668-5.703-9.706-4.79-3.085-3.97h-4.002z"/><path d="m696.608 166.314-.46.456 2.208 3.924.462-1.278z"/><path d="m573.72 751.021-.462.228.554-.228z"/><path d="m573.258 751.249-2.622 1.187 1.426-.502z"/><path d="m570.637 752.437-.691.273-.091.092z"/><path d="m532.726 768.131h-.415l-1.196.364-.138.046-.875.455z"/><path d="m530.102 768.997.417-.456-2.579 1.095-.689.228h.643l.874-.411z"/><path d="m527.251 769.864h-.278l-1.288.457-1.335.411 1.288-.366-.874.366-.644.228-1.105.228h.462l-.324.183.551-.183h.186l.415-.184.919-.272-.506.091 1.656-.685z"/><path d="m523.155 771.369-.966.274h.37z"/><path d="m522.188 771.644h-.504l-1.336.409-1.608.64-1.014.228h.413l1.198-.364.046-.045h.092v-.047l1.335-.41z"/><path d="m518.14 772.92-1.472.411 1.058-.411-.689.229-.323.091.138-.091-.918.228-.875.456 1.564-.456-1.103.456z"/><path d="m515.057 773.833-1.333.411 2.208-.867-2.256.731-.506.137h.141l-.6.228.828-.183-.368.138 1.014-.183z"/><path d="m513.171 774.426-.459.046.047-.091.412-.137h-.321l-.368.182-.966.274h.46l.321-.137.138-.044h.185l-.185.181z"/><path d="m516.851 773.149.874-.229h-.458z"/><path d="m533.6 667.805.919.911.414-.911.873-.867-.873.457z"/><path d="m778.319 277.771.092.32-.092-.092z"/><path d="m780.068 294.242h.459l.415 1.277z"/><path d="m787.936 313.311.092.411v-.228z"/><path d="m708.038 576.45 2.695-8.058-8.373 6.159-2.209 6.113v-2.189l-1.795 3.512-.413-2.19-1.795 3.924 1.795-5.702 6.165-11.818-.875.866.875-3.056-3.957.868-3.128-8.76-.875-.411-.413 2.601-3.544-2.601-9.294 1.735-14.583 10.082-6.625-1.735-1.749 3.925.873-5.704-3.543-1.733h-5.29-1.335l-3.083 2.19-.872-4.835h-4.418l-3.543 2.189-1.334-.41-2.207-.914 5.336-5.246-12.836 7.437 3.542-.867-7.5 6.159h-7.084l-11.043 5.657-1.747-3.056-7.5 1.321-2.669-3.511-.875 3.97 2.209-1.324.415 1.324h-2.209l-7.914 7.845 2.624 3.514 1.333 1.323v2.189l-3.957 3.057-2.668-3.512.459-1.277 2.209-4.837-3.129-3.924 4.878-4.837-3.542-.865-8.834 10.082-5.293 1.277-.873 2.19-3.543.457-2.209 2.647-2.207 4.79v.865l.459 2.647-7.545 7.437 1.334 3.514-3.756-2.4 1.433 2.835-2.649 3.07-.88-.885-.848 2.939 3.617 2.743-.873 13.14 3.081.457-.459 1.734-3.957 6.158-4.877 2.601v3.512l-3.082 1.324.874 2.645-7.04 3.057-.873.411.873 1.78.415.866-.415.458-3.541 3.467 1.748.911-4.419 3.057v6.113l4.419.868 1.793-2.189.415-.868 1.334 1.323-2.208 3.925v.455l-8.373 6.114 2.62 5.702-2.206 1.78 7.545 1.276 5.703 4.837 4.418 6.113 2.67 4.381 7.851 5.495-.683 2.705 1.023 1.353 5.799 1.691 8.526-.338 10.608-.824 5.754 1.324-.876 4.836-1.333 4.379-5.752 7.437-1.749 4.791-11.041 10.949-.461 1.78-.46.411-3.08 1.777-4.834 6.114-14.17 7.894-3.082 1.322-1.75 1.734-5.887 2.692-.093.046-1.102.319 1.792-.41h-.368l1.104-.321-.321.321h.459l.874-.457h.461v-.137l.873-.274.876-.456 3.954-1.323 10.169-3.925 1.795-.865 7.039-3.103 4.002-1.734 6.165-2.645-2.207.913 2.669-1.325-1.335.412 1.426-.503.322-.364 3.082-1.324h.37l2.3-1.276 6.625-3.513 4.877-2.191.874-.457.413-.409 4.418-2.19 15.053-8.795 6.139-5.58 6.651-6.088 5.115-3.043 5.628-4.059 7.674-4.566 5.627-5.072 14.324-9.132 5.628-5.58 6.789-6.346 4.417-5.247.874-1.324 3.542-3.969-1.332.913 1.793-1.324 4.418-4.836 6.164-6.979 4.004-3.512 5.704-6.572 2.669-2.645 2.667-3.512-.919 1.321 3.542-3.923 1.335-1.779 4.417-5.658 7.959-11.862 1.335-1.732 2.622-5.248 3.083-4.836 8.833-21.443.92-1.779v.913l1.749-3.104 9.295-19.708 4.828-12.683 1.797-6.114-.46-6.16h-.876l-4.414 5.703-4.004-.455-4.832 2.189-7.959 9.672-3.957 1.733-5.75 10.494.413-3.468 1.334-3.101-2.209 3.101 1.795-3.968-.92-1.734-1.75 3.513-.458-2.189-.875 1.733.46-1.323-.872 1.779-1.335-.912-.46 1.779-.415-1.779-.461 1.779-3.956.867-.46 1.732-2.669 1.78-.862 4.052v2.03l-2.046 1.014"/><path d="m780.527 333.659 2.209 1.734h-3.544z"/><path d="m84.8764 426.504.4154 2.189 1.3321 1.324-.4113-3.513z"/><path d="m89.2934 435.674v3.102l1.7475.866z"/><path d="m90.6276 442.7-2.208 7.436 4.8293.456z"/><path d="m64.1256 534.22 1.2882 2.645-.4123-2.645z"/><path d="m458.974 666.528-1.336 1.277 3.543 2.646-3.081 1.322 3.081.411 1.75-1.277z"/><path d="m640.52 559.628 2.629-3.054-1.749-1.319 3.959-3.064"/><path d="m638.729 521.997-2.211 3.054-1.329-1.329 1.791-2.181z"/></g><path d="m612.229 521.541-1.34 3.51-6.62 3.511-.869-2.648z" fill="#ccc"/><path d="m597.23 527.243-1.341 3.054-11.909 3.053-2.21 3.968-.288.649-1.79-11.566 6.906-1.806 1.802 1.775 3.54-1.319-2.67 2.192z" fill="#1b1b1b"/><path d="m598.007 595.616-2.895 4.789-11.603-.477-.481-6.706-3.867-2.882 4.787-11.383 1.362 1.704-2.211 4.84-.449 1.278 2.66 3.511 3.96-3.054v-2.192l-1.331-1.319-2.405-3.226-.224-.294 7.919-7.843h2.21l-.419-1.319-2.21 1.319.88-3.968 2.669 3.51 7.5-1.318 1.74 3.054 11.049-5.661h7.081l7.5-6.159-3.541.873 12.832-7.437-5.331 5.245 2.21.913 1.33.406" fill="#1b1b1b"/><path d="m576.48 337.585.869.457-.449.862-2.118 3.115-.092-.061v-4.829z" fill="#1b1b1b"/><path d="m576.48 537.734-10.631 5.245-3.949-1.278 1.329-2.192 11.041-3.094-3.131-1.735v-3.065h-4.411l3.132-2.637 9.832-2.577 1.79 11.566-1.042 2.415z" fill="#1b1b1b"/><path d="m574.782 342.019-1.382 2.039-.184-.04-2.486-2.506 1.329-8.31 2.211 4.383-.921 5.246 1.341-.873z" fill="#1b1b1b"/><path d="m576.48 306.924 2.21-1.735v4.383l2.618-2.648.881 3.511.91-5.246 1.29 1.735 3.131-2.191 1.288 6.574 3.132-3.52-1.79 3.977 1.79.406-.46 1.775 2.21.873v-4.84l.869 4.383.88-2.597 1.33.862 1.791 6.575-1.791.862-1.749-3.51-.461 3.967-1.33-4.383-2.21-1.776-.42 7.437-2.659 2.192 1.79-6.981-4.001 4.373-.88-3.967-1.75 4.84-6.199 1.735-2.21 3.104-1.75-1.329 1.75-6.158-3.551 2.648.92-6.118h2.211l-2.67-1.776 1.749-1.319-1.749-3.47-1.74-4.383 1.279-8.756 2.21.863-1.749.872 2.209.863 1.341 8.35.408 3.054v-3.511-1.319l.461.863z" fill="#1b1b1b"/><path d="m568.06 339.777-2.21 4.829-7.5-.913v-3.46l2.21 3.46z" fill="#1b1b1b"/><path d="m567.19 520.667v2.599l-3.55.913z" fill="#1b1b1b"/><path d="m566.728 353.778.922 1.786-3.131.406-1.75 9.628-3.54-.872-1.75-4.789 3.96-8.35 2.661 1.329 1.75-3.521-4.411 2.192-1.749.872.87-4.383.297-1.664 4.583.802 4.829-3.927 2.947.731.184.04 2.158.548-1.288 1.735z" fill="#1b1b1b"/><path d="m558.81 164.121-3.54-1.279 3.08-.913-4.42-.406 3.959-2.191 5.34 2.191-5.34-3.967.921-.416 1.75-.456-2.671-2.598h3.55l-3.089-.913.879-3.054-2.629-1.735 2.629-.456-1.34-2.192 1.801 1.776 7.038-.913v1.785l.922-.872 3.95 3.926 1.749 5.702 1.801 4.789-2.21 1.786-2.21 1.319v3.926l-3.08-4.839-4.421 3.977.41-4.84-1.33 1.319-1.29-2.648-2.209 5.296.419-1.775h-1.75z" fill="#1b1b1b"/><path d="m559.69 322.255v1.735l-11.51-.416 7.09-2.192z" fill="#1b1b1b"/><path d="m553.479 630.578.451-1.734-3.08-.457.88-13.139-3.419-2.597 1.412-2.313.114.111 2.649-3.074-.429-.842-.992-1.979 3.745 2.385-1.331-3.511 7.54-7.437-.459-2.648v-.862l2.209-4.789 2.21-2.648 3.54-.458.871-2.19 5.3-1.28 8.829-10.074 3.541.862-4.871 4.841 1.759 2.211-4.787 11.384 3.867 2.881.481 6.707 11.603.477 2.895-4.789" fill="#1b1b1b"/><path d="m552.057 606.533.429.842-2.649 3.074-.114-.111z" fill="#1b1b1b"/><path d="m552.189 547.819-4.879 1.735-4.42 1.319-4.41-1.735 8.83-3.054z" fill="#1b1b1b"/><path d="m551.064 604.544v.01l-.009-.01z" fill="#1b1b1b"/><path d="m548.312 612.651-.204-.152.848-2.932.767.771z" fill="#1b1b1b"/><path d="m545.1 503.146.46 3.063-.46-2.19-3.951-2.648z" fill="#1b1b1b"/><path d="m539.35 604.757-5.751 4.373-2.619 2.192 3.08 3.51-2.672 2.192-3.078.871-1.33-3.519-2.631 1.785-1.79-2.648-3.704.518-.071-4.302.276.274 3.079-.416-.869-1.319 5.29.862 7.039-4.829 2.211-1.735 4-.873 7.5.416 3.745 2.435.01.011.992 1.978-2.333 3.805-.768-.771-.848 2.932v.01l-3.878-2.922 2.209-3.106-2.669.914z" fill="#1b1b1b"/><path d="m538.019 495.253v4.839l-1.289-.456.87-3.927-3.08-1.775z" fill="#1b1b1b"/><path d="m538.019 512.318-.419 1.786-1.33-1.329z" fill="#1b1b1b"/><path d="m537.139 511.04-.869 1.735-.461-.457z" fill="#1b1b1b"/><path d="m536.27 508.392-1.342 3.064-3.078-1.329.88-3.918z" fill="#1b1b1b"/><path d="m297.965 346.473 16.432 4.312 33.335 6.707 18.846 1.917h12.074l46.39 1.441v-3.835l1.924 4.312 16.912 1.917 7.735.477 6.764 1.441h5.309l9.189 5.742 2.413 2.405 6.642 2.192-3.684.902 5.045.69 2.629 4.84 2.896 6.23.481 6.219-3.377 6.23 11.592-2.395 9.658-8.624 1.453-4.312 6.283-3.835 7.244-13.413 15.459-5.266 2.906-15.33 4.83-2.395 4.349 8.625 4.829 2.871.265.172-.388.579h-3.55l2.21 2.191-3.081 5.246-1.8-1.319-1.74 3.104-.879-2.648.42 5.702h-3.09l.88 2.192-1.75.862-.46 10.085 4.879 3.054.41-2.638 1.33 2.181-5.289 3.521-1.741-2.191.871 3.51-9.29 5.245-2.21 4.839 2.21 4.374-2.21 6.573-4.421-3.966 4.421 7.894-2.21 10.085.46-6.118-5.29-4.84 1.29-5.245-3.5 3.054 3.96 7.447-5.75-2.607v2.191l6.21 1.278v2.009l.409.183-.409 2.648-2.21-1.735 2.619 2.597-3.079-.417 5.75.874 3.96 6.564-3.551-5.245 1.801 3.926-2.21-.862-2.21 3.054 3.54-1.319.42 2.181.46-2.597 1.33 2.191-1.79 2.598-4.83.456 3.08.416-2.21 2.638 3.54-.457-11.04 11.414-5.341 8.3-2.62 3.967-1.79-1.32 1.331 1.735-3.96 7.895 3.96 7.437 9.708 19.297-1.288 12.267v-1.319l-3.131 1.319v-3.095l-4.41-1.278-2.629-6.575-2.21.872-2.2-3.063.87-3.511-2.21.863v-6.565l-7.08-5.702-.88-.416-2.21-.457-1.75 1.33-4.41 3.054-1.33-2.192-.88-1.735-5.29.416 1.75-.873-5.75 1.736.869-1.736-5.698 3.521 1.279-1.329-1.279-2.648-.461 3.105-13.26 2.607 4.42.863 2.67.456-2.67 2.648 4.42 1.735-2.211 2.182-2.669-3.511-2.621-.406.871 3.054-2.21-1.319-2.2 2.182-6.169-4.373-2.671 2.191-9.29-.456-5.71 2.638 1.75-1.319-3.08-.863-.46 4.373-6.62 3.927 1.33-.863-3.959-.416 1.749 1.735-4.88 2.192-1.279 5.702h-2.21l2.21.406 1.422 6.838-.348.071-8.216-1.431-2.416-7.193-6.281-10.542-5.321-5.265-9.177 1.44-2.896 3.825-7.254-3.348-1.442-6.229-8.697-10.065-11.112-1.431v2.872l-19.327-3.836-16.913-8.147v-2.871l-16.432-.477-.205.051-1.146-4.627-4.829-6.574-7.5-4.373-3.131-1.735.921-3.927-6.21-16.243.46-3.917 1.75 2.637v-4.371l-3.96-.457-2.21-7.031-.461-11.353 3.541-6.159.46-9.628 9.249-21.449 2.21.416-2.619-.872 2.619-4.373h-1.749l.87-10.491 7.96 3.916-3.54 4.84 3.54-3.054-.461 4.789 2.671-10.085-2.21-2.598.429-1.39z" fill="#ccc"/><path d="m516.39 210.112-.461 3.967v-2.191h-1.739z" fill="#1b1b1b"/><path d="m512.85 145.33v-2.648h2.209l-1.105 1.319 4.645.416-3.079 1.776h-2.67l.644-1.644z" fill="#1b1b1b"/><path d="m509.872 578.368.768 2.293-3.081 18.395 2.743 2.546-.226.244h-14.498l-.194.323-11.254-6.614 8.552-3.774-.49-4.789 5.32.477 4.349-6.707 4.348.954 1.453-3.348z" fill="#1b1b1b"/><path d="m511.97 143.139-2.201 3.46-.879-2.182z" fill="#1b1b1b"/><path d="m508.89 533.807 1.34 1.735-2.671.873v.446l-.459-3.054z" fill="#1b1b1b"/><path d="m509.769 198.292-3.96 4.383.871-3.054z" fill="#1b1b1b"/><path d="m508.43 253.039v2.192l-2.21-.862z" fill="#1b1b1b"/><path d="m508.02 528.562-7.09 6.574-5.75 1.279 4-1.735.88-4.841 17.21-6.574h7.079l1.341-.405 18.949 5.702 7.091-1.319.459 3.054 9.711-.458-4.421 3.51-16.33 5.247 3.081-3.916-.88-1.735-5.75.862-4.41-4.383-7.5.415-11.5.914-2.22-.914 3.089-1.277-1.75-.914z" fill="#1b1b1b"/><path d="m505.809 136.98-.919 2.192-.871-1.329z" fill="#1b1b1b"/><path d="m501.39 131.735-.46 1.725-2.66-1.725z" fill="#1b1b1b"/><path d="m499.18 193.919 3.499 1.319-1.749 3.511-.87-2.182-2.21 1.725-2.21-2.191-.871-.863 2.621-1.735z" fill="#1b1b1b"/><path d="m495.578 601.846h14.498l.226-.244 3.888 3.611 4.594 4.516.071 4.302-2.465.345-1.331 1.785-3.54-3.104.911 1.775h-1.79l-.41-3.054-7.961-3.967h-.459l-3.09-.872 1.749.872-.869.457h-1.33l-.42.406h-1.79v-4.373l-1.75-.416 1.75-1.319-.676-.397z" fill="#1b1b1b"/><path d="m485.286 374.679-.411 2.638-1.584-.224-.759-1.39-.602-.202z" fill="#1b1b1b"/><path d="m492.682 591.781-8.552 3.774-2.2-1.299 2.67-.457-.256-.892.604-.172.48-2.872-6.762-1.917-4.338-3.338 7.039-7.458 16.903-4.383 10.62 2.648.982 2.953h-2.21l-1.453 3.348-4.348-.954-4.349 6.707-5.32-.477z" fill="#1b1b1b"/><path d="m483.729 590.746-8.839 2.191 1.75.406-9.147-1.045.061-.517 6.774-7.173 4.338 3.338 6.762 1.917-.48 2.872-.604.172z" fill="#1b1b1b"/><path d="m482.532 375.703.758 1.39-5.044-.69 3.684-.903z" fill="#1b1b1b"/><path d="m474.328 584.608-6.774 7.173-.061.517-9.854-1.136-1.668-.933.953-12.338 8.215-1.441v-3.358l-5.802-2.394 2.906-5.743 8.697-1.441.482 11.973 2.149.71-.892 1.41 5.301.416 3.387-.873z" fill="#1b1b1b"/><path d="m476.179 324.903 2.671 3.054-5.75-.863z" fill="#1b1b1b"/><path d="m478.389 304.276v1.329l-.409-1.329-2.21 1.786.87-5.256z" fill="#1b1b1b"/><path d="m470.94 563.514 5.516-3.652-1.146 1.958h1.79v8.766l-3.53 5.611-2.148-.71z" fill="#1b1b1b"/><path d="m466.929 256.56-.459 2.181-2.2-1.724z" fill="#1b1b1b"/><path d="m466.47 226.762h-3.54l2.209-.863z" fill="#1b1b1b"/><path d="m463.389 263.997 1.75 2.638-1.289 2.192z" fill="#1b1b1b"/><path d="m446.6 206.642-3.55-2.191 4.009-.457-4.009-.862 1.34-2.192h5.29l-.871 4.383 4.002-2.648-1.341 3.054 1.341-.406.409 3.054 1.34-4.383 1.739 4.383.932-4.383 3.489 1.329-.41 4.383 2.21-3.977-.46 4.84 1.329-1.319.461 3.054.87-6.118v3.064l.88-2.608 3.54.416-2.211 4.373 2.211-2.181v1.319l.88-2.648 2.659 1.329h.421l.87 1.319-5.291 3.51 6.211-2.191 2.21 1.329-5.75.862h2.62l-1.291 2.192 1.291-1.776 2.209 1.776-3.5 1.329 7.04-.467-2.209 2.192 1.8-1.319 1.75 1.775.46-1.319 1.29 2.192v-2.192l1.33 2.597-.87-2.191 2.21 1.786v-.457l.87-1.735 3.079 1.735-1.749.862 2.21-.405-.87 2.191 1.75-2.648.45 2.192v-3.064l.42 3.926 1.79-2.192 1.339 1.786v-3.064l3.081 1.278-1.79 1.33 2.66.862-3.08 1.319 3.54.873-3.12.456 3.12 2.648-3.54-.913 3.96 5.702-7.96-2.597.46-4.383-1.75 3.926-.921-3.064v2.192l-3.499-2.192-3.12 1.329 4.408 2.598-3.489.862 2.621 3.521 1.33-2.192 4.88 4.829-.92-2.181 2.21 2.181.919-2.181 3.081 1.735-1.331 1.319 3.95.862 2.671 3.978-3.96-2.192 5.3 6.108-11.92-3.054 2.209 2.192-4.879-.873 14.129 6.98-19.419-.405-2.21-1.33 2.21-1.775h-4.881l-3.949-4.373.409 2.181-4.42-2.597 1.801 3.054-10.171 2.648-.459-6.564h4.88l5.29-3.105-4.421-3.47 1.802-4.383 2.619-.913-2.619.456.408-3.916-7.5-6.574-.869 1.278-4.01-2.192-1.75 2.649.879-3.927-2.618-1.775-2.21.862-.462-2.181-.459 1.775-1.75-1.329-3.54-3.51-.88 2.191 2.21 1.786.879.406-3.089.456h-3.949l.869.406 1.75 1.786-2.619-1.329-3.551-1.319 2.63 1.319 1.33.456-8.83 1.278h-.88l-1.75-3.053-3.12 2.191-2.63-1.329-2.211-3.054 9.711-2.191.88 1.329-.42-4.383-4-1.735 1.33-1.776 2.67 1.319-4.87-4.839 3.949.456-3.499-1.319 3.499-.406-3.079-1.329 5.75-3.51 4.42 4.839.46 5.246.87-3.064v-.913z" fill="#1b1b1b"/><path d="m462.06 226.762.87 3.977-3.501 2.181-1.79-6.564z" fill="#1b1b1b"/><path d="m455.889 262.668-4.419 6.158-1.33-1.775 2.209-3.054z" fill="#1b1b1b"/><path d="m453.22 256.104 2.669-1.735 3.081 1.735-1.739 2.637-4.882-.446-2.209-2.607-4.88 7.893-2.21-3.51-4.41 1.734 2.21-3.926-1.29-11.82 3.08 3.927.87-1.735 9.301 4.383z" fill="#1b1b1b"/><path d="m447.47 218.868-.87 1.786h-1.751l1.331-.873z" fill="#1b1b1b"/><path d="m447.059 199.621-6.209 2.192-1.75-.873h-.46l-2.63-3.967 1.341-.406h5.289z" fill="#1b1b1b"/><path d="m446.6 246.059h-2.21l-1.75-1.776z" fill="#1b1b1b"/><path d="m443.05 137.437 1.34-1.329h-4.83l5.289-1.735-2.209-.913-3.54 1.785-1.34-2.191 4.88-.457h.41l-4.41-2.597 4.87-5.702-1.33 4.373 2.21 2.607.459-6.98 2.21 1.319 2.211-2.648 2.2 3.064-2.2 4.373 1.74 1.785 1.801-5.712 3.078 2.192-3.078-4.373 9.709 4.373-6.221-4.83.932-.416.868-1.319-3.539-1.775 1.739-2.192 5.761 2.192.87 4.373.459.913v-.913l.881-3.054 1.79 3.967.41.416 2.209.446v-.446l-.869-2.192 6.619 3.511 4.881 3.51 3.08.873-2.21-1.735 1.34-.457 1.29-.456.46.913.459 1.278.411-.872 1.34-1.735 3.54.872v2.192l-.46 3.054h3.54l.87-2.192.88 2.648 1.79-1.785.42-.406 4 1.319-.46.416-3.54 2.191 3.12-1.735-.46 2.598 1.34-2.192 2.619 1.329.921-.872.88-1.319 1.329 1.319-.459.456-2.671 2.192 3.13 1.735h3.081l-2.67-1.319 1.8-1.329 2.62.913.459 3.47-3.54.913 1.331-2.192-2.21 2.192 1.75.862-3.54.873 3.54-.457 1.339 2.648-2.669.863 2.209-.416v2.191l1.79-3.51v3.926l2.62-.416-.869-2.638h2.209l-.419 2.638.88-1.319 1.329.863-1.329-2.182 4.41-1.329 1.34 1.329v-1.735l1.288 1.269.462-.863 2.21 1.776h3.949v1.735l-2.619-.863 2.21 2.192-6.631-.457-6.21 3.511 2.67-.457v2.192l3.959-3.927.922 3.064-1.8.863 3.09 4.383.92-2.192v-.05l-2.21-5.195 3.08.862-.829 4.201.829-2.009.88 4.383 1.33-.873.409-.406v-.456l-1.29-4.383 3.961-3.927.46.873 5.709 10.085.461 6.564h-1.75l1.75 1.279-1.341 2.648h-3.949l4.41 1.319.419 3.064 6.211 7.427-1.802 1.785 2.211.406-.409 3.511-1.802-.447 2.211 1.319-1.749.457-1.33-2.648-1.75.872 4.42 3.511-2.21 3.51.408.457 2.211 2.191-2.211 1.279 5.342 1.775-1.331 2.598 2.201-.863 2.629 1.319-2.629 1.329 2.629-.456-.879 2.191h1.799l-2.21.863 3.081.456-2.21.457 2.629 1.278-1.749 3.105h3.54l-2.21.862 4.419.416v2.638l1.331-.862-.921 2.191 1.801-.862-.88 2.181h2.209l-1.79 1.735 2.21-1.319-.42 2.648h2.62l-2.62 2.598h4.421l-3.131.913.46 2.597-2.209-3.054.459 3.511-1.79-3.967.461 2.648-1.801-1.735-.41 2.597-.879-3.51-.45 3.104-.471-4.383-2.619 6.575-3.081-2.192-2.669 1.735.87-2.191-2.2 2.191.869-1.735-1.289.406-.921-1.735-.409 1.735v-2.191l-1.34 1.785-.462-2.191-3.078.862-1.331-3.967v2.648l-1.749-3.054-2.671 1.319 1.791-1.775-2.2 1.319.409-2.192-2.211 1.735v-2.597l-1.749.862 2.211-3.054-3.08 2.598 1.75-3.927-2.21.467 3.54-.913-6.62-2.192 2.659 1.776v4.789l-2.659-2.192.46-2.597-.92 2.191-2.212-3.054-.878.863 2.209-4.84-2.209.457-.41 3.926-3.131-.862 1.341-3.521-3.09 2.648 2.209-8.35-1.75.457-.459 3.926-2.671.913 1.34-2.648-4.419.873 3.55-4.383-4.421 3.054 3.94-6.971-3.069 2.588v-1.269l-1.331 4.789-1.75-3.064 2.671-1.319-3.55.457 6.629-2.648-3.079.456-.461-2.648-3.549-2.597 2.21.406-.871-1.725-1.75 1.319-2.669-4.84-.461-.456-3.079 2.648h-6.63l2.21-2.648 5.75-.863-5.29-1.319 1.339-1.278-2.21.862v-1.319l-.919 1.735v-3.064l-1.75 2.192.46-3.054-2.21 2.191-3.54-2.648 3.54 4.383-4 .913-.237-2.242-1.105-2.141-1.738.406 1.738-1.319-4.828-1.278-6.21-5.296-.87 1.785-.421-3.064-11.04-3.094-2.21-.873-4.408.873-1.341 3.094h-3.081l2.212 1.279-3.541.456-2.67-1.319 1.33-2.191h-5.75l6.21-3.054-4 .862 4-1.735-1.331-1.775-3.549 2.648-7.08-1.735 1.79-6.575 3.08-1.775-1.74-5.702-2.67 1.775-1.749-1.319.419-4.839 2.2.913-2.2-1.776h2.2l-3.54-3.52 1.34-.863 4.41.863-4.829-1.269-.461-.456 2.21-3.064 3.54 2.607-.87-2.191h3.95l-5.75-3.054 7.96-.416-1.842-.913-4.778-.406 2.2-.873z" fill="#1b1b1b"/><path d="m432.47 213.217-4.41.862-6.63-.456-.461-10.491 4.001-4.84h3.54l-1.33 6.575 1.75 4.383z" fill="#1b1b1b"/><path d="m419.219 182.556.462 1.735-2.21-2.192.419 2.192-2.21-.873 4.001-3.967-3.131-3.47 6.209 2.192 1.29-3.572 1.341.477 1.33 3.095 3.079-.457h3.131l.88 3.064-2.21 1.776-1.34.862-3.949-3.054 1.289 2.192-2.21-1.776.921 1.776-2.21-.913-.921 2.191-2.62-1.278.409 1.735z" fill="#1b1b1b"/><path d="m419.219 169.417 3.961 1.278-1.75-1.278 1.75-1.786-2.211.467-6.169-6.169h3.55l4.83 2.648-4.421-3.51 2.671-2.192 3.079-2.191-2.618.456.868-3.51-1.79 3.926-.409 1.319-2.21 1.329.869-1.735h-1.748l-2.2 2.192v-1.329l2.619-2.648-4.421 3.977-2.618-1.329 4.42-3.054-4.881 2.597 1.75-3.054-2.63 1.319.419-1.775h-2.619l3.541-3.054 3.499.862-2.631-1.278.881-1.776 5.29 1.319-3.09-2.648 1.34-1.725 1.75-1.735 8.421-1.785-.461 1.785 3.08-2.648 3.54 1.319.46 2.192-.921 3.054-3.499.872h3.09l-1.34 3.054 3.55-3.47-.88 6.981-1.79-.406 1.79 1.278-2.21.913h2.21l.42 2.192-3.551.406 2.21 1.329-5.289 2.638 5.289.416-5.289 1.319 6.21.862-2.21 1.329 2.63.457-2.21 1.278 2.21.913-3.09.863.88 3.51h-2.21l-3.54-.903-1.341-.477.46-1.258-2.618 3.511-1.791-5.702v2.648l-1.341-1.329-1.75 1.735v-3.511z" fill="#1b1b1b"/><path d="m417.89 199.165-2.21 7.021-4.42.456 1.801 1.735-3.132 3.054-1.75-11.81z" fill="#1b1b1b"/><path d="m332.221 525.051 5.289 2.598 1.75 5.701-3.499 1.33-1.791-4.383-10.579-9.63.409-8.349-5.29-6.564-2.619 1.319-7.96-8.3 6.62 1.735-1.791-2.191 1.791-3.064-8.421-10.491-.87-1.776-4.604-18.597.205-.051 16.432.477v2.871l16.913 8.147 19.327 3.836v-2.872l11.112 1.431 8.697 10.065 1.442 6.229 7.254 3.348 2.896-3.825 9.177-1.44 5.321 5.265 6.281 10.542 2.416 7.193 8.216 1.431.348-.071.316 1.512-2.209 6.118.88-2.598-2.619 1.269-.461 4.838.461 12.278.408 3.51 13.251 20.576 4.42-.457 4.87 3.967 13.67-4.829 4.88.862 5.289-6.565 2.211-10.5 13.25-5.702 8.83.457-5.29 11.363 2.21.457-2.21 9.171-1.34-3.013-.41-.913-.644 1.096-5.516 3.652-8.697 1.441-2.906 5.743 5.802 2.394v3.358l-8.215 1.441-.953 12.337-18.62-10.43-15.041 3.511-22.97-7.021-7.08-2.192-5.699-4.383-10.17-2.648-12.841-11.354-1.289-2.647 3.09-.873-1.801-1.318 2.21-3.927-4.42-9.628-12.329-12.267v-3.054l-7.96-4.84 1.749-3.511-7.96-7.892.46-3.47-3.54-.913-5.75-7.844-.419-1.643v2.911l-1.33-1.724 1.289-1.279.041-.05-1.33-5.245-2.211-8.756-9.709-6.118.419 12.682 8.83 12.277.46 4.382 6.631 9.163z" fill="#1b1b1b"/><path d="m410.851 172.471-4.001-2.192 4.869-1.775-6.209.456.92-3.054-3.13-.456v-1.329l2.669.913-2.669-2.192 3.13-.913-2.21-1.725 1.749-3.064 7.092 6.575.408-2.192 1.802 4.789 1.738-.862 1.75 1.775-2.619 4.383-1.34-2.191.471 4.789-2.21-2.192 1.289 2.648h-3.96l-1.34-1.319z" fill="#1b1b1b"/><path d="m414.35 178.173-.42 1.735-1.79-1.735z" fill="#1b1b1b"/><path d="m408.641 189.536 2.619 5.702-5.75-1.735z" fill="#1b1b1b"/><path d="m411.26 230.739-3.081 2.597-6.168-2.597 2.209-6.169z" fill="#1b1b1b"/><path d="m413.469 193.047-2.618-7.894-.829.274-.093-.274 4.001-1.735-.869.873 3.948.862-3.948.457 2.619.872-1.33 1.735 1.79-1.278 2.21 3.054v-1.776l4.409 1.319 7.501-3.926 3.09.872h.87v1.735l-.41 1.319h.87 1.33l-.87 1.319-2.67 2.192-3.54-1.735.46 2.191-7.499 1.735-1.791-2.648-2.21 2.648z" fill="#1b1b1b"/><path d="m409.929 185.153.093.274-3.172 1.055-2.63-4.383h4.83z" fill="#1b1b1b"/><path d="m408.179 177.26.871 1.785-4.411-.456z" fill="#1b1b1b"/><path d="m406.43 173.8-1.33 3.054-2.671-.873-.418-4.373z" fill="#1b1b1b"/><path d="m402.429 205.323 4.001 1.735-.461 6.159-2.669.406v1.329l-2.21.456-1.75-1.785-5.741-6.108 1.331-2.648 3.959 2.191.451-1.329.471-1.278-.471-.457-3.08-1.319 2.21.457-.869-2.648h1.739l5.76.456z" fill="#1b1b1b"/><path d="m399.34 172.887 1.339 3.967-1.339-.873-3.95-2.181-2.21.862 1.75-2.648-2.21-.406-.46-3.104 6.629 3.104z" fill="#1b1b1b"/><path d="m397.601 189.13-1.341-3.977 3.08 3.064-1.739-3.47 1.739.406 1.339.457.881-1.776 2.66 7.478-1.33 2.191-3.55.416-1.33-2.191 1.33-1.329.471-.863h-.471l-4.87.457z" fill="#1b1b1b"/><path d="m389.18 217.133 7.959 5.712v.863 2.191l-1.339-1.735-2.62 2.598-2.209-1.319.418 3.967 2.21-2.648 1.331 3.064-8.369.456-1.248-1.572-1.883-2.354-6.63 4.383h-10.58l-.46-3.521-2.456-1.39-3.714-2.12-.869-3.927v-.456l14.119.456-4.87-3.094-8.83-.873-.419-3.054 7.96-1.329-7.091-.406 1.75-1.319-2.619-1.329 2.619-3.926 9.761-3.511-1.801 4.789 4.42-2.191 2.671 2.191-2.21 2.192 2.21.456.869-1.735 1.75 1.279-1.289-3.47h1.749l3.08 8.766.46-9.679 3.09-.406 2.661 3.054z" fill="#1b1b1b"/><path d="m390.51 201.813-1.33 3.51-3.54-3.054.921-1.329z" fill="#1b1b1b"/><path d="m386.561 172.887-5.341.456 3.54-2.191z" fill="#1b1b1b"/><path d="m383.89 229.826 1.054 2.09-.184.091-4.829 2.648-3.131-1.319z" fill="#1b1b1b"/><path d="m384.76 175.981-1.75 2.608-3.079-1.329.409-2.182z" fill="#1b1b1b"/><path d="m375.05 188.664-3.54 2.648-3.08-2.182 5.29-1.785h-3.54l4.41-1.319-3.08-.416 4.001-.863-1.791-.913 1.791-1.278 4.42 6.98 3.959.457-1.34-5.246 2.67-2.648.42 6.118 1.79 1.319.87-2.597 1.75 1.278-1.289 4.83-4.871-.457-7.499 2.648-3.09-2.191 6.63-2.192-5.341.457z" fill="#1b1b1b"/><path d="m376.391 178.173-4.881 4.789v-3.054l-4.829 4.839-.461-.456-.46-2.192-3.499.863 6.63-4.789 1.749-1.319h3.541z" fill="#1b1b1b"/><path d="m370.64 183.834-1.749 2.192h-2.21z" fill="#1b1b1b"/><path d="m366.681 194.782 3.079 4.839-12.37 6.108-.879.457-1.791 3.064-6.17.862-.869-6.118-2.21-.862 9.249-8.35-.419-3.927 6.169.457 1.791 2.607 1.289 1.776z" fill="#1b1b1b"/><path d="m283.631 319.607 3.55-1.735-2.21-7.021 3.08 1.775-2.21-1.319 1.34-2.648-4.011 3.105-1.33-4.84 2.671-.862-2.671-2.192.921-1.785 3.499-.863-1.207-1.238 1.801-2.374 1.933-2.881-4.348-7.183v-13.931-9.07l-3.387-.954-5.156 1.187-1.126.254 1.453-10.065-5.801-2.871 38.655-49.35.153-.081.901 1.786 5.76 9.628.409-3.967 4.881-1.278-.88 3.054 2.619.416 7.091-1.279 3.079-.913-1.749 1.319-4.001 3.064 7.96-1.735h1.75v-3.054l.921 3.917.88 5.245 3.54-3.46.87-.913-.461.913-1.33 3.916 6.62-.862 3.55 3.054 5.75 4.84 4.871 1.278 1.749 3.51-3.54.457-.419 2.597 8.379 2.192 4.871-1.735 4.839 5.245-1.749 1.33 3.079 4.829-1.33-3.967 1.791.872.409-1.734-2.2-4.384 6.62-4.839.184-.091 1.617 3.196h3.949l3.089 3.469h5.741l3.089-.416.461-2.637 3.54 3.967v-3.105l-2.21.456-1.33-3.053 3.54-.873 2.211 1.278-.462 1.786 1.75-1.786-1.288 5.297 3.499 1.735-.88-5.702 4.42-3.521-.88-2.597-1.739 1.734.408-3.51 2.211-.416-7.039-2.648v-.862l.409-4.384-1.739-.456 3.949-7.437 7.959 10.542-2.21-.457v1.735l-.459 1.776 6.209.872-2.659.862 4.409 7.032.881-7.032 3.12 1.786 4.421 10.948 2.21-1.776v-9.172l2.21-.456-4.001-6.118 7.5-.457-1.29 1.329 4.83.863-.88 2.191 2.21 1.319-2.67 1.735 5.341 5.245-3.542 7.894-2.209-3.054-3.54.457 5.29 4.383-8.83-1.33 3.08 2.192-3.08 5.702-7.5-3.105-3.09.913 12.381 3.47-2.21 6.575-5.751.903-1.33 4.799-10.17-4.383v2.191l5.29.457-.421 1.735 1.75-1.329 4.001 3.104-1.79 2.598h-3.54l2.21 1.329-5.29 4.829 1.33 1.279-4.421 8.35.462 9.628 2.629 3.927v-2.192h3.54l3.96 8.756-1.289 3.105 7.499-3.511 23.421 10.948 11.04-1.776 3.948 14.458 9.301 6.565.41 3.064h2.67.88l.87-3.927 3.08 2.648-2.212-3.51 1.802-3.977-6.21-11.81-3.96-2.192 6.63-6.574 1.738-8.3v1.735l2.672-.416-2.672-2.181v.862l-5.698-9.628-6.63-2.648 1.289-10.075-2.619-4.799-2.21.872.41-5.245-3.489-3.967 1.289-2.608 9.75.416 1.29-3.064 6.618 3.927 2.212-.863.92 2.649 6.169.405.46-2.191 2.621 6.158-3.54 1.735 3.54-.862 1.79 3.916 1.75-.862.46 3.51-1.79-.862-.42 2.191 6.169-2.648 1.331 5.246.419-4.383 2.661 3.104 1.339-7.021 3.081 3.054-2.2-3.054 1.33-2.648-1.801-.416 1.801-1.775-2.67-1.735-.42-4.383h1.76v1.735l6.62 3.104-1.33 1.735 2.659-1.329 1.75 1.786-.409 3.47 2.21-2.608-.46 3.927 1.75-2.597.46 1.734 3.08.863-1.341 1.775 4.881.416.869 3.054-3.079.913 3.54-.456-1.33 1.319h2.21l-.88 1.329 1.975-.984v1.928l4.491-1.188 1.944 4.444 1.791-2.962v1.785l1.504-1.045v-1.329l.746 2.516.144-2.668 1.801 2.668 2.691-2.962v1.187l2.844-.304-1.35 4.301 3.887-1.034 1.493 3.409 1.802-3.998 4.185 1.187v4.738l2.843-.142-2.096 2.08 2.854-1.593-2.251 2.029 3.172.163-1.341 6.564-4.879 4.383-.411 8.35h-.46l-22.959 11.82-.46 2.192-.41 5.245-7.09 10.948 1.34 3.054 4.829-8.3 5.751-7.031 6.209-2.191 3.081 3.977-2.21 3.916-5.75 3.064 3.959-1.278 1.331 1.735 2.67-2.648v5.702l2.21-1.319 2.619 4.373 2.967.527-.296 1.664-5.772 8.634-.265-.172-4.829-2.872-4.349-8.624-4.83 2.395-2.906 15.33-15.459 5.266-7.244 13.413-6.283 3.835-1.453 4.312-9.657 8.624-11.593 2.395 3.377-6.23-.481-6.219-2.896-6.23-2.629-4.84 1.584.224.411-2.638-3.356.821-6.642-2.191-2.413-2.405-9.189-5.742h-5.309l-6.764-1.441-7.735-.477-16.912-1.917-1.924-4.312v3.835l-46.39-1.441h-12.074l-18.846-1.917-33.335-6.707-16.432-4.312-.655-.193.911-2.993-3.54.406 2.2-.862-.461-2.192v-1.319l-.869.913-1.75 1.279-1.791-2.192 3.08-2.607h-3.499l.368-.457-2.159-.862 1.33-1.735-1.749 1.735-1.791-2.192 4.001-1.319-3.54.863-.87-1.279h1.739l-5.289-2.191h3.959l-4.42-1.319 3.09-.457-2.629-.862 3.09-1.329-2.21.872v-2.607l5.289-4.373-4.42 1.725.461-2.182z" fill="#1b1b1b"/><path d="m288.46 294.648-2.619 3.52-4.001 2.638 3.131-6.158v-2.598l-2.67.873-2.671.862 4.42-3.054-2.834-6.27-1.125-2.496 2.21-.456-.461-2.598 1.33 2.192-1.33-2.648h1.791l-2.21-2.192 2.629-2.648h.389v13.931l4.348 7.183-1.933 2.881-1.801 2.374-.082-.091z" fill="#ccc"/><path d="m284.05 312.17-.419 6.574v-3.064l-.87.457z" fill="#1b1b1b"/><path d="m279.63 329.276 10.631 6.98.869 2.648 3.96 12.277-7.039-3.967 2.21-3.064-4.001.456-2.629-8.35-.461-.862-3.079-1.329 3.079-2.182h-3.079z" fill="#1b1b1b"/><path d="m282.71 294.739.46 2.1h-2.2z" fill="#ccc"/><path d="m282.301 292.923.409 1.816-1.289 1.238-.87-.873z" fill="#ccc"/><path d="m280.97 284.573-1.749 2.638-1.637-.781-.164-.082.921-3.967z" fill="#ccc"/><path d="m281.421 275.401-1.791 4.789-3.08 1.319 3.541-8.756z" fill="#ccc"/><path d="m277.011 294.242 2.21 1.735-1.801 3.51-.409-2.648-1.801-2.597 2.21-1.776-1.75-.872 1.75-4.84 1.985 7.092.225.802z" fill="#ccc"/><path d="m275.896 264.778 5.156-1.187 3.387.954v9.07h-.389l-2.21 1.329-1.289-1.734 2.21-7.437-3.54 7.842-2.21-2.181 1.749-4.383-1.34 1.775-1.289-3.053z" fill="#ccc"/><path d="m277.42 282.381-.409 2.192-2.21 3.967z" fill="#ccc"/><path d="m275.21 271.891 3.55 3.053-1.34 1.319-1.749-2.648 1.34 3.977-1.801-2.191-1.279 2.191z" fill="#ccc"/><path d="m272.13 308.243 2.21 1.735-2.21.873 1.341 5.702-2.671-7.894 1.33-7.437 2.671 2.192-2.21 2.191 4.829-2.191z" fill="#1b1b1b"/><path d="m253.591 237.303v3.47l-3.08 1.319-1.801-2.597-1.749 2.191.46-1.786-1.33 1.786-6.63-1.329 4.42-1.776-2.21-1.734 5.75-3.927 3.499.416 2.21 3.511z" fill="#ccc"/><path d="m233.25 241.686 1.801 2.192h-3.54z" fill="#ccc"/><path d="m232.381 180.364.46 7.853-2.67-.872v-5.702z" fill="#ccc"/><path d="m224.011 246.475v-3.054l1.75-.872.45 3.51 2.629-3.51-.419 1.735 2.21-1.319 1.34 2.637-2.21 2.192-.921-1.735v1.735h-5.709l2.21-1.319z" fill="#ccc"/><path d="m224.42 206.186-.409 1.735-2.67-.406.46-1.786z" fill="#ccc"/><path d="m220 204.867-1.739 2.648h-2.21l.87-4.84z" fill="#ccc"/><path d="m219.131 236.847 4.42-4.84 4.409-1.268-4.409-.913 1.79-3.065-4.42 2.649.88-4.84v-1.319l-5.29-2.192 3.489-.405 4.42-6.159-4.829-3.064 3.54-3.51 2.21 1.329-.921-3.064-.409-1.319h1.75l-1.341-1.735 1.341-2.648 11.909-3.511.461 3.105 4.42-.457 1.33 2.192 2.619-.873 1.801-3.51h3.08l-.87-2.192h-4.42l1.33-1.735-1.33.873-3.08-6.159 2.619-3.926 1.791 1.319v-5.246l9.249 3.054-2.21 3.064 4.011 4.373 3.08-5.702-1.791 3.511 1.791 2.648-1.34-2.648 2.67-2.182-2.2-3.926 2.619-2.648 1.331-7.021 3.54-.873 3.09 3.064 7.499-1.278 2.211-.457 4 1.319-.921.416-.419.903 3.09-1.319 2.199 2.192 4.881-.457-.46 1.776-2.671 1.278 3.131-.406-.46 2.598 2.67 2.191-1.791.913.87 2.598 11.5 10.541.88 1.279 1.76 3.5-.153.081-38.655 49.35 5.801 2.871-1.453 10.065 1.126-.254.235.994.419 5.662h-2.21l-3.959-12.693 2.629-1.724-1.289 2.597 2.21-.873-.921-2.181-2.21.457-1.289.405-.921-4.383-7.909-3.916.409-3.521-2.619-1.724 1.289-1.786-1.749-.406h1.749l-1.289-1.329 2.21-.862h-3.55l.88-1.776-2.21.862 2.21-2.191-4.42.913-.461-.456-.869-3.927h3.54l-3.54-1.775-17.21 3.053-1.801 1.786 1.341 2.597-5.29 1.776-4.881-1.319-18.949 2.192.87-1.735-.46-.457-.931-.172.051-.285 2.67-2.597h1.289z" fill="#ccc"/><path d="m201.921 236.39-3.08 1.329-.46-2.607 4.42-.457 2.2 3.927-.051.284-3.899-.7z" fill="#ccc"/><path d="m198.381 235.112-1.75 1.735-.46-1.319h-1.566z" fill="#ccc"/><path d="m194.605 235.528-.184 1.319-1.79-1.735-2.21-2.192 4.42.873z" fill="#ccc"/><path d="m184.251 230.282 1.34 1.725-3.038.365z" fill="#ccc"/><path d="m182.553 232.372-.093.091-.184-.091z" fill="#ccc"/><path d="m182.276 232.372-.685.091-2.21-1.318z" fill="#ccc"/><path d="m90.6317 442.697 2.6193 7.893-4.8293-.456z" fill="#ccc"/><path d="m89.2913 435.676 1.7496 3.967-1.7496-.873z" fill="#ccc"/><path d="m86.2116 426.504.4093 3.511-1.3301-1.319-.4093-2.192z" fill="#ccc"/><g opacity=".3" stroke="#565555" stroke-linejoin="round" stroke-width=".15"><path d="m786.015 300.856c-13.814-57.792-57.248-107.727-109.692-138.161-81.721-48.217-181.034-60.176-276.002-48.685"/><path d="m654.207 93.8349c-43.97-36.7095-108.991-35.1967-159.671-20.6146-32.314 9.169-64.378 23.0185-94.215 40.7897"/><path d="m498.072 14.8867c-29.954-3.1279-50.058 26.371-66.788 47.808-11.827 16.8364-21.79 33.5492-30.964 51.3163"/><path d="m352.112 6.11462c14.74 3.13786 18.64 21.70288 25.653 34.64998 9.175 24.1543 16.554 49.2135 22.557 73.2464"/><path d="m199.956 56.5551c44.195-24.3178 98.671-7.3542 138 14.9116 22.023 11.4531 43.182 26.5907 62.366 42.5443"/><path d="m47.8031 214.451c26.2249-50.735 78.7839-86.005 132.2489-101.317 69.726-21.1714 149.651-17.427 220.269.877"/><path d="m14.6285 494.718c-13.13708-49.408-4.88244-103.926 17.2505-148.685 36.3109-76.659 103.039-133.797 177.961-173.106 60.035-31.68 124.36-51.082 190.481-58.917"/><path d="m146.437 701.741c-39.106-31.867-52.529-84.849-50.8662-133.073 2.4192-85.116 37.5452-164.883 83.1542-237.986 56.678-87.121 130.876-163.789 221.597-216.671"/><path d="m302.572 780.689c-25.507-10.136-30.163-42.25-34.943-66.669-10.252-93.293 4.956-185.82 22.557-275.443 23.919-109.797 57.398-220.032 107.483-320.18 1.384-1.199 1.537-3.09 2.652-4.386"/><path d="m448.534 789.461c13.37-4.769 12.989-25.823 16.807-39.475 9.572-96.999.523-195.318-7.962-291.232-12.485-115.977-29.188-232.107-56.614-343.427l-.444-.878v-.438"/><path d="m600.688 739.022c42.649-25.453 55.351-80.173 55.289-126.482.368-82.274-24.846-159.203-58.754-234.347-47.579-101.1-112.517-193.85-196.903-264.183"/><path d="m752.842 581.124c28.82-52.86 26.62-121.749 4.866-177.197-24.188-66.298-71.244-124.397-123.848-169.3-66.167-56.813-148.75-99.797-233.54-120.616"/><path d="m114.149 672.354c47.508 47.822 110.918 77.353 175.153 92.106 86.308 20.579 182.505 16.163 265.386-12.28 48.306-16.773 95.335-42.896 131.808-79.825"/><path d="m2.24428 397.788c-.32223 70.536 40.42032 134.511 95.09562 177.632 66.2291 53.462 149.5641 81.86 232.2131 92.109 97.988 12.04 197.717-.295 286.914-39.403 67.946-30.434 128.567-77.247 161.587-143.495 12.734-27.023 20.412-55.798 20.346-86.843"/><path d="m740.015 214.452c-9.762-35.629-28.29-64.961-53.519-91.231"/><path d="m114.148 123.221c-39.9207 40.263-66.1035 98.196-56.6155 156.583 11.7613 79.35 76.2395 137.718 145.5195 170.616 79.036 38.096 170.498 49.63 259.636 39.036 66.105-8.787 129.607-29.604 184.885-67.983"/><path d="m647.574 421.473c50.738-36.011 92.707-89.716 96.867-153.95 1.651-17.91-.4-35.828-4.427-53.072"/><path d="m596.265 128.047c-12.575-48.9141-60.17-83.6664-108.367-99.1248-73.52-24.53001-159.657-17.8524-226.018 24.123-39.15 25.6646-70.41 71.8828-57.942 120.6158 14.1 58.724 75.087 94.823 131.808 107.896 75.841 17.16 162.688 5.404 222.923-46.492 30.363-26.934 48.47-67.389 37.596-107.018z"/></g><path d="m606.132 59.4627c117.694 69.2553 193.19 202.1553 192.1 337.9633 1.01 137.477-75.975 271.619-196.084 340.157-119.551 71.663-277.569 73.055-398.356 3.51-127.282-69.396-208.87099-213.206-201.83573-357.274 2.94364-136.728 85.09743-268.125 206.38873-332.7592 121.712-67.5646 279.107-64.2976 397.787 8.4029z" stroke="#111" stroke-linejoin="round"/></g></svg>