<svg fill="none" height="793" viewBox="0 0 794 793" width="794" xmlns="http://www.w3.org/2000/svg"><path d="m792.348 396.38c1.083-135.817-73.788-268.725-190.5-337.984-117.694-72.705-273.78-75.973-394.479-8.403-120.2849 64.637-201.7559 196.042-204.6729 332.778-6.978 144.078 73.936 287.896 200.1569 357.297 119.783 69.547 276.489 68.158 395.045-3.514 119.11-68.539 195.455-202.689 194.45-340.174z" fill="#111212" fill-opacity=".7"/><g fill="#1b1b1b"><path d="m384.32 1.58105-.869.457 3.934-.457h-.868-1.327z"/><path d="m383.451 2.03809h-3.521-3.063-1.738l-1.325.411h-5.717l-1.325.457h-4.803l-1.325.413h-2.197-.868-.457l-.641.32-.687.138h-2.195l-.869.457h-2.195-.87l-1.781.412h-2.196l-.87.458h-.411-1.327l-3.52.411-1.738.457h-.457l-2.378.458h-.687l-1.371.32 1.097-.137-12.484 2.424h1.326l4.391-.87h-.87l2.654-.457-1.784.457 2.651-.457-1.783.457 4.849-.457-2.195.457 3.521-.457h-.457l2.651-.412-1.783.412 3.521-.412-2.194.412h1.783l1.463-.412h5.123 1.281l1.325-.869h-1.738l2.195-.458h.869l3.521-.868h2.194l1.327-.458 3.75-.229-.274.229h1.785l.777.412-.367.046.914.411h.87l6.128-.411v.411l2.194-.411 5.259.411 2.651-.411h9.237l2.607-.458-2.607-.412 2.196-.457h-2.196l-1.326-.458 4.801-.87h-6.128z"/><path d="m321.532 9.03601-2.378.457h-2.013l-.412.412h-.457-.413-.458l-.137.13699-.091.092-.96.182 1.051-.274-1.601.32h-.457l-.139.137-1.601.32 1.555-.274-.044.046-.961.228h-.549-.457l-.365.32-.229.046-.137.046h-.047-.091-.458l-2.013.548 1.281-.229.137-.045 1.464-.274 1.19-.276-.275.276 3.476-.87h.915l.732-.36599.822-.182-.274.091 2.195-.412h.457z"/><path d="m307.674 11.7791-1.509.32-.594.229 1.051-.229z"/><path d="m305.572 12.328-5.534 1.098 3.521-.412z"/><path d="m300.038 13.426-3.522.868 1.921-.274 2.47-.594h-.411z"/><path d="m298.437 14.0201-1.051.274 2.195-.411z"/><path d="m332.919 6.74805-.823.091h.411z"/><path d="m332.095 6.83911h-.869l-2.194.458z"/><path d="m406.271 1.58105 4.025.183-.503-.183z"/><path d="m410.297 1.76404.821.274h6.128z"/><path d="m417.247 2.03809 2.882.32-.688-.32z"/><path d="m420.859 2.44911 15.731 1.784 5.944.641.642.64 3.475.457h.915l1.738.458-3.063.869h-5.717-6.585l1.326.412-3.064-.412h-2.651l2.651.869h2.607l-1.327.457 4.849.87h-.868l-3.979-.87-4.391-.914-2.605.457-5.717-.457-3.934.914.458.092-4.438.777 2.195.86799-6.312-1.05099-.686-.687h-2.652l1.877.457 3.384 1.28099h-3.521l-1.28-.86799-6.175 1.32599 3.522 1.738h-3.522l2.195.458-2.195.869 4.85.411-1.783.457 7.043.457-1.328-2.194 2.196.412 3.063-2.195h3.109v2.652l2.605.868 3.064-1.325 1.784 2.195-2.653-.413 5.717 1.281-1.326.458-.867.457-1.738-.457 3.933 3.933 6.128-1.281-1.28-.457 1.738-.869.457-.457-5.716-1.738 2.194.411 1.738-.868h-2.195l-.412-.87h6.128l.869-1.325 2.652.868-3.064.914h2.605l-1.325.413 5.306 1.326-.458-1.326h-2.194l.869-.87 2.195 1.327h1.782l2.606.411 5.258.915 1.784 1.281 3.935 1.327.457 1.783 7.911.87-2.652-1.327-5.259-.458 7.453.458-.457-1.326.915-.413 1.278.87.458-.87 1.326 1.281h-2.194l2.606 2.195 5.306.914 6.585 3.065-1.327.411-3.52-.868.457 1.325 3.933 1.738 3.521 3.109 1.738 1.738 6.586 2.195-2.606.458-.915.411h.915 4.801l-.868 2.195-.868 1.327.868-.87 1.737.411 7.911 2.653-4.39-.412v-.045h-.412l-1.783-.412 2.195.73v.139h.456l6.588 2.652 2.604 1.281-2.193.458 4.847 1.325 1.738-.868 1.783 5.671v3.109.868l5.716 9.65v1.327l-2.195-.458 1.739 2.654-1.739.411 3.065 1.784-3.065-.869-.914.869 3.979 2.195 1.324 2.195 3.064.869h-.869-.915l2.652 2.652 2.194 1.28 7.043 3.522 1.28 3.52 3.521 1.738 3.979-2.606 3.063.411v-3.063l3.064.458-.457-1.784.914 2.195-3.109.458 4.848-.458 1.326 3.979h-3.063l6.128 7.912 2.652-2.195.411 1.28 3.521.457.456-4.847-1.327-.868 1.739.457-3.521-3.064v-1.325l2.193 1.738 3.11-.413 2.607 1.738v1.738l3.978 3.11-.914 1.28 10.975 7.0429h2.195l-.411-1.327 1.325.869.413-2.606 1.326 2.606 4.389.916-2.65-4.39 5.717.868 3.063 2.606-3.475-4.8009.869-.458 2.194-.869-4.847-2.195 3.063.458-3.477-3.979 3.935 3.063 5.259 1.784 7.912 7.9119.867 1.279 3.064.916-.412-.457-.457-.459h1.783l-15.822-13.5819-3.521-3.522-4.803-3.52v1.326l-2.195-.458-14.952-10.061-2.608-3.109 3.065 2.195.868-1.281.457 2.195 2.605 2.195 6.174 2.607-1.324-1.738 4.391 2.606-4.849-4.39-1.737-.868h.868l-2.194-.87-.459-1.325-3.063-1.738-1.326.868-3.935-2.652 2.652 1.327-2.195-1.327h1.281l-2.606-2.195 1.738 1.325-.413-1.325 1.738.457-1.325-1.738 1.325-.914-5.258-4.802.868-1.326-1.326-.87-1.19-.685 2.518.685.457-3.978-2.195-1.281-1.325.868v-.868l-1.785-.458 3.11.458-1.325-1.327-5.26-.869h3.934l-.459-.914-2.193-.87 2.652.87-.871-1.281 1.327.868v-.868l.412.868.458-.458 1.737.87-.412-2.608 4.803 2.195-5.26-2.652h.869l4.847 1.327-4.115-2.058 1.053.32-.915-.914 3.108 1.782h.413v.413h1.325l-2.195-1.281 2.652 1.281.413-.413-4.391-2.195 2.194.87-1.327-1.327 2.195 1.784v-1.327l1.737.87h.458l1.783.868h.822l-1.691-.868 1.052.457.641.412.914.457-1.326-.777 1.784.777-3.567-2.378 1.373.596-.457-.413-.412-.137-.457-.32-1.738-.868-2.651-1.327 3.064 1.327-3.064-1.738.869.412-1.326-.869h-.411l-.457-.457-2.607-1.28-.457-.458-2.652-1.327-.412-.411-.044-.046-.413-.412-.868-.458-.457-.411h-.869l-.868-.458-.458-.411-.869-.458h-.867l-.457-.458-1.738-.868h-.457l-2.607-1.327h-.456l-1.738-.868h-.458l-1.737-.87-.457-.458h-.868l-1.736-.868h-.457l-.871-.412-1.781-.914h-.413l-.868-.412-.915-.457h-.41l-.868-.413-.916-.458h-.411l-1.785-.868-1.278-.457h-.503l-.823-.413h-.457l-1.737-.914h-.457l-1.327-.412-.412-.457h-.456l-1.144-.366-.185-.046-.867-.457-1.327-.458h-.868l-1.737-.868h-.457l-.869-.413h-.459l-.867-.457-1.326-.458h-.421-.457l-.869-.411h-.458l-.41-.458h-.457l-.641-.183-.047-.046-.183-.184h-.457l-.868-.457h-.413-.914l-.411-.458h-.457l-.87-.411h-.457l-1.279-.457h-.457l-.457-.413h-1.281l-.458-.457h-.457l-1.28-.458h-.914l-.411-.411h-.868l-.688-.229-.229-.228h-.413l-.869-.413h-.456-.87l-.868-.457h-.457l-.87-.457h-.457-.868l-.456-.411h-.869l-.868-.457h-1.328l-.41-.412h-.915l-.869-.458h-.868l-.868-.458h-.868l-.915-.411h-.413-.868l-.913-.457h-.413l-.868-.413h-.457-.869l-1.145-.228v-.046l.459.046-.641-.229h-.413l.321.137h-.092-.093l-.091-.046-.96-.091h-.411v-.274-.046l-.457-.13699h-.871-.457l-.868-.412h-1.325l-1.371-.457h-.824l-2.332-.595.138.183-2.606-.457h.411l-.229-.229-1.512-.228-1.326-.412h-2.196l-1.325-.458h-1.325l-1.28-.411h-.915l-1.281-.458h-.913-.412l-.364-.137-2.014-.32h-1.144l-1.325-.411h-2.2l-1.327-.458h-2.604l-1.327-.412h-2.194l-1.327-.457h-2.605l-.916-.458h-2.195-1.28l-.914-.413h-4.801l-1.326-.457h-4.303z"/><path d="m575.705 47.6791h-.41l2.194.868z"/><path d="m615.674 107.403v3.063l7.042 6.585-1.326-1.325v-.87l-1.736-.868.868-.914-3.064-2.195h1.327z"/><path d="m409.794 15.2081-8.781-.457.457.457 2.196.413-2.653-.413-2.194-.457 1.325.457h-3.521l-3.064-.457.868.457 1.327.413-1.327.868-2.652-1.281-.867-.457-1.327.457.458-.914-2.652.457-1.738-.868 2.652-.869-2.652.412-3.52-.412-1.327.412-4.801-2.195 1.737-.87 3.521-.86799-3.521-.87 6.585-.457h4.847l1.738-1.327-10.976.458.868.412-3.476-.412-.457.412-2.653-.412h-4.39l2.652-.458h-1.737l-18.888.87 11.389.457h-4.392l1.326.457h-10.977l3.064.87h-3.064l1.326.412h3.521l-1.325.45699h2.195l1.738-.45699 1.325.45699v-.45799l3.064.91399 2.195-.91399.913.91399-3.108.413 2.651.457-3.063.411-2.654-.411-.868.411v-.411l-3.064.868 1.738-.868-6.585-.457 1.784 1.325h-3.108l1.782.458-2.652.412h3.063l-3.476.457h2.195l-2.195.411 2.606.457.869-.868.915.411 2.194-.868-.914.868 1.326-.868-.412.868 1.281-.411h2.195l-2.195.411h2.195l1.781-.411 1.738.411v-.868l.459.868.868-.411.457.411.411-.411 1.327.411 2.194-.411-2.651.868 7.042-.457-3.934.457 1.281.457 1.784-.457-1.234.595-4.024.275 1.737.458 7.042-.458-1.782.868-.869.458 1.875-.458h.32l-2.652.915 3.108.413 2.195-.87-1.325.87 3.063-1.738-.458.868 1.783-.458-2.651 1.327 3.978-.87-2.194 1.327 3.064.411 2.606-1.281v1.281l2.651-1.281-.867.87h1.737l-2.194.869 4.39-.458-2.195 1.327 5.258.458 1.784-.87-3.063-.457h3.475l2.195.869.458-.413 2.196-.914-1.738 1.784 2.604 2.195 6.586-.87-2.194-.915 3.521.458-3.063-.868 3.521.411-2.651-1.737 2.193.457 1.737-.457-3.063-.869.869-1.327.457.457 10.105.87-.868-1.327-1.783-.868-3.934.411z"/><path d="m372.932 15.6211-6.584.868.413.458 2.652.457 1.326-.915z"/><path d="m379.93 3.776-4.803.457h-.915z"/><path d="m396.622 4.23303-2.196.412.87.458z"/><path d="m408.466 4.64502-6.128.869h3.934l3.063-.411z"/><path d="m342.43 5.37708-.228.137h-.503z"/><path d="m390.495 5.51404-1.327.457h3.063z"/><path d="m339.275 5.88-.182.091h-.413z"/><path d="m399.685 5.97107-2.604.458h5.671l-.87.869 7.454 1.326 1.327-.457 1.782.87 2.606-1.738 3.521-.458h-4.849l-.869-.868-6.996.868-1.783-.868h-4.391v-.002z"/><path d="m347.461 7.70911-.458.457 2.652-.457z"/><path d="m372.476 8.16602.457.87-4.847-.413z"/><path d="m384.32 10.8181-.412 1.28h4.39l.413-1.28z"/><path d="m396.622 14.2941-1.326.457h1.326l1.736-.457z"/><path d="m433.939 16.078 4.391 2.606 4.39-.868-4.848-1.738z"/><path d="m407.597 17.816 2.196 1.326-.459 1.737-3.476 1.785 3.476.411 5.306-.868 3.934-3.522-6.585-.868z"/><path d="m311.013 18.2731-3.063.869-.87-.458-.914.914v-.914l-3.477.914.413-.457-2.196.869.869-.869-1.28.869v-.413l-1.784.413.823-.413h.046l.915-.457-1.281.549-3.109.777-2.652.411-5.26 2.653.87-1.326-1.327.868.457-.411-1.782.868h-1.279l-.458.457-.457-.457-.413.457h-1.326l-.457.413-3.476 1.325 4.39-1.325-3.522 1.783 2.608-.914-1.281.914 2.606-.458-1.738.87 2.195-.87-1.782.87 1.782-.413-.868.87 3.796-.824 1.462-.503-3.063 1.738 2.194-.411-2.651.868 3.063-.457-2.605.915 1.737-.458-1.327.87 2.652-.87-3.063 1.327h1.737l3.063-1.327-2.606 1.327 5.259-.457-3.063.868 1.281.457h.458l-3.522 2.195 2.652.458-1.783.869-.413-.869-1.782.412h1.782l-1.782.457-1.737 1.738 2.194-.411-3.064 1.279 3.521 2.195-.915 1.327 4.391-.411-4.391.868-2.194 1.738h1.325l-2.195.87-2.606 3.521 1.737 4.847 6.128-3.521.458-1.738v-.457l1.738-.87.914-.457-1.327 2.195 1.51-1.007-1.967 2.791 2.652-.457-.411-2.516 2.148-1.418 1.784 1.738-2.652.868v1.784l5.259-3.109-.869 1.326 3.063-.868-8.323 3.52-6.173.87.915 1.325h-2.194l-.915.87 3.977-.87 1.738.87.87-.87.914.413.868-1.281.87.868 4.848-1.783-.458-1.281 1.327.412 1.326-.868-1.785 1.737 2.653-.413v-1.782l2.606-.413-1.28 2.195 3.065-2.195-.87 1.327 2.606-.914-3.063 1.326v1.327l.87.457-3.064 1.738 2.652-1.738-4.39 1.281-.915 2.195h2.194l2.652-.87-2.195-.411 2.652-.457 3.063.457-3.979 1.738-.868.458.868.868 1.785-.868 1.325-.914 1.737.457 2.652-1.738-1.783 1.738 3.979-1.327-4.391 1.784-.914.411 3.522.458.868-.458 2.651-1.325-.867 1.325v.458l.41-.458 1.784-1.325 3.521-.413-1.783 2.195-1.327 1.327 3.109.411 2.194-1.325 1.28-.413-.411.87v.458l1.326-.458 1.738-.457-1.326-1.281 2.652.868 3.521 1.738 4.801 2.195v-1.325-.413l2.195.413v.457 2.195l2.195-2.195.87-.457-.413.914-.868 3.063 4.39 1.738 2.606-2.195-2.195-1.326 1.327-.412.868-.457-3.929-3.52 7.913 3.109-.915-3.109 2.195 1.783 3.978-3.978.87 1.325-4.391 3.065.869 2.194 3.521-1.738 1.737.869 3.521-4.801.869 1.738-3.476 3.063 7.455-3.521-2.654-2.195h4.85v-1.281l-3.979.869-1.738-.869 5.718-.914h-4.85l2.15-.87h.047l.868.458h2.651v-.458l-4.39-.411.64.32-1.967-.777h7.455l-3.933-2.195h3.933v-1.327l2.652 2.195 3.063-1.738h.458l-.458-.457-.413-.137v-.272l1.738-.457-1.738-2.195 2.195.457-1.325-1.326 1.738.869 2.195-2.653-.87-.869-3.521.869.869-3.475 3.522-.458 4.847-3.063-6.174-1.327-4.391.87-.867-.87 4.848-.458h-4.39l7.452-.868-5.715-.412 2.195-.914-2.195-.412h-3.521l1.327.412h-3.064l-2.653 1.326h-6.128l-9.649-1.326.87-1.281-1.738.413-3.979-1.738-4.39-.457 2.653-.87-2.195.458v-.915l-.868.914 1.281-1.783-4.39.869 2.194 1.327-2.606-.87-3.063.87 1.738-.87-3.065.87 1.327-1.327-.914.457-2.607.458 1.737-.458-4.801-.457 6.128-.412 3.063-1.326-6.128.457-4.391 1.281h-.458l-.411-1.738-2.653.869v-.413l2.194-.457-3.063-.458.458-.091.411-.777-3.063.458 7.455-1.785-3.521.458 2.651-.458-.458-.868-2.378 1.372-4.207 1.281 6.584-3.065-5.717 1.738 5.306-1.738-4.849.87 2.654-1.327h-2.014l-3.292 2.195-1.737.457 5.26-3.109-4.39 1.327 2.651-1.327h-2.651l-1.738 1.327-2.652.458 4.391-1.784-1.738.458-.87-.869-1.782 1.325-6.128.87 3.934-.87-2.195.413 3.063-1.738-1.736.503-.869.365.228-.184.642-.685-3.063.869 1.325-.869-3.109.869z"/><path d="m312.568 18.9581.642-.182 1.327-.503z"/><path d="m314.078 19.5981h2.194l1.325-1.325h-1.738z"/><path d="m324.824 19.1421.687-.458-.87.458z"/><path d="m325.967 22.9831-.047.091.458-.183z"/><path d="m326.378 22.891 3.063-.685 1.784-1.327z"/><path d="m449.304 19.1421-.458.869h3.109l-.457.868-1.737-.411h-3.431l-.091-.046-.457-.824-.869.413-.457.458 5.305 3.063-3.521 3.521 1.325 1.326 3.064.869 3.934-3.064-.413 3.476 1.738.457v-1.325l1.327.868 1.325-.412 1.737.868h-3.063l2.194 1.327 4.391.411-3.065 1.327 9.649 1.326 4.391-.458-2.193-.868h2.193l-6.175-2.195 7.502 1.783.41-.915-7.454-3.063-3.063-1.738 12.303 3.933h.411l.457-1.326-4.392-2.606 1.327-.87-10.106-3.109-7.454-.411-1.325-1.785z"/><path d="m395.296 20.468-6.585.411 2.652 1.327 5.259.458h1.736l-1.278-1.785h-.458z"/><path d="m428.221 21.3361-3.932.457 1.325.87-4.391-.87-5.305 2.195 9.238 1.281z"/><path d="m432.614 21.3361-2.607 1.738 3.065 1.327-4.392.869 5.716 1.327 1.28.457.457-1.327 1.737.87-2.194-1.327h-.411l.868-.412.869-.457 3.063 1.783 1.783-.914-2.654-2.606-.866-.87-2.652-.457-.411.457z"/><path d="m335.161 21.7931-3.522 1.738h4.391.456l3.065-.868-.458-.458-.869-.413-3.521.87z"/><path d="m399.685 24.401-3.063.457-1.326.412h1.326.458l-.458.457-.869.87h.869l2.652.868 8.78-.868 3.477 1.325.457-.868 1.324 1.738 2.195.868-3.978-.412 3.521.868-.868.458 4.391-.458h-.87l.413-3.52-3.064-1.327-3.063.457-1.326-.868-7.454-.457-.457.869z"/><path d="m418.574 30.1161-.87 1.327 4.803.868-.869-2.195z"/><path d="m420.768 26.1841.457 2.608 4.802-.87z"/><path d="m445.372 27.0531-2.652.868 3.521 1.327 1.325-.457-1.782-1.738z"/><path d="m396.622 28.3791-2.653.413-.411 1.782h3.064l2.652.412.41 1.326-3.063-.868-1.736-.458-.917 1.783-3.475.412 1.736.457-2.652.411 2.194.458-2.605.458 6.128.868h-6.128l4.801.868-5.671.87 1.28.868h-3.476l-.915.916 2.652.411h-2.652l.915.869-1.323-.411-3.979 3.933 5.305-1.738-3.108 1.738h3.108l-3.521.457-2.652 1.327-.413 1.281 3.064 1.326 3.934-1.326-1.327 1.326 8.78-.412h.457l2.196-.914 2.195-.413-1.737-2.195 4.39 1.738 1.738-.868-2.195-1.327 3.063 1.327 4.39-1.327-2.194-.412.869-.457h-3.062l3.063-1.327-5.671.458 5.259-.458-1.781-1.327-5.672 1.327 3.477-.868.915-.87-3.522.87h-1.783l1.783-.87-2.651.411-.869.458-3.064 1.738 1.738-1.738h-2.605l3.932-.87 3.521-.458-2.651-2.606 3.521 2.195 3.063.411-3.063-3.933h-2.652l2.652-.458-1.327-.869 3.522 1.327 2.516-.458-2.973 1.326.915.87h2.194l-.457 2.652.867-.868 3.979 4.39 3.063-1.326-1.324-1.326h3.521l-1.783-1.327 2.195.869.457-.869-2.194-.411 1.737-1.327-6.127-.869h5.258l-2.605-1.784h1.737l-.87-.869-3.52-.458.456 1.327-1.326-1.327-1.783 2.195-.412-1.279-.823.365 1.235-1.692-2.605.411v-.411l-1.783 1.327.915-3.111-3.98 1.327 3.522-1.738 5.258 1.738-1.736-2.195 5.26-.87-1.326-.868-.868.868-.87-.868-.458.412-.868-.412-.457.412-1.736-.868-1.737.868-1.785-.868v.868l-1.737-.868.869 1.325-2.652-1.737h-1.742v.002z"/><path d="m428.221 28.379-2.194.413-.411 3.52 1.28-.458 1.325.458 1.327.458v-1.783l1.737 1.783v-1.783l3.521.458-4.803-.87-.457-.458h.869 1.782l-.457-1.325z"/><path d="m441.393 31.4431-3.521 1.326 1.325.869 1.783-.457 1.281.457-1.737 2.606h3.064l.868-2.606 3.521 1.327 1.326 3.474 2.194.458-1.325-.869 3.978.411-2.651-.868 4.847.868-3.52-1.279 5.258.869-1.738-1.785h-4.39l1.737-.868-5.258-.869 6.996.869-2.196-1.738-7.452-.869z"/><path d="m412.445 31.854-.913.458 1.781.458z"/><path d="m416.835 32.769v.869l3.477.411z"/><path d="m461.148 34.0491.868 2.195 3.522.916v.869l.868 1.327 5.307 2.195 1.278-1.327h11.435l-1.327-.868.87-2.654-5.671-1.326h-3.521z"/><path d="m419.441 34.5071-2.605.869 3.477 2.195 1.325-2.195z"/><path d="m423.421 35.3761v1.784.869l4.801 2.606.869-1.279-1.737-.916 2.652-.411-2.652-.458-2.65-1.738z"/><path d="m440.98 38.4391-3.108.916 3.979 1.279 1.326-.869z"/><path d="m456.758 38.8981-2.194.458 4.391.411z"/><path d="m452.827 39.3551-6.176.868 1.785 1.327 3.063.868h2.195 7.91l-3.521-.868v-.916-.411l-6.128.411z"/><path d="m435.265 40.224.868.87h4.391z"/><path d="m568.755 41.093 2.605 1.326-.456-.458-1.737-.868z"/><path d="m572.229 42.8311 1.738.914.687.229-.229-.229-1.738-.914z"/><path d="m574.654 43.974.229.183.87.457h.411l-.868-.457z"/><path d="m566.513 43.745 1.372.548 1.281.732z"/><path d="m577.123 45.071.366.413 1.691.822-.367-.365z"/><path d="m579.683 46.8091 1.783.87.64.228-.227-.228-.869-.458-.459-.413z"/><path d="m582.106 47.906.23.229 1.737.868h.41l-1.736-.868z"/><path d="m303.97 48.547-3.933 2.652 3.933-1.325z"/><path d="m261.852 49.0031-1.327.87.366-.093z"/><path d="m260.891 49.7811-3.887 3.156v-1.325l-2.195 1.325 3.063-3.063-6.996 3.933-.87-1.738-2.195 2.652-2.652 1.738-3.521 2.195-.413 2.195-.457 2.652 2.652 1.281 1.28-.869-.867 1.327 7.91-3.522.87.87-.413-1.28 3.477-1.327-2.195-.457 2.652-2.195-3.521.458 4.391-1.326-1.738-.457 1.738-.87 1.325-.868-3.933-.457 4.802-.87 5.26-2.606-4.392 1.281 3.522-1.281-3.064.411 2.195-1.325z"/><path d="m300.496 49.416-2.653.458-3.934 1.738 5.123-.87-2.058 1.328 2.195-.458 1.326-1.738-1.235.777z"/><path d="m585.447 49.4611.41.413.869.457-.457-.457z"/><path d="m588.051 51.199 1.739.87-.458-.458-.868-.413z"/><path d="m589.333 51.6111.869.594.274.09z"/><path d="m590.477 52.296 1.052.641-.411-.411z"/><path d="m591.529 52.937.456.458 1.646.823z"/><path d="m593.632 54.217 2.287 1.372-.412-.458z"/><path d="m590.203 52.2061-.411-.137.869.457z"/><path d="m305.755 52.525-2.195 1.738 2.195-.869z"/><path d="m596.01 55.635.365.367 2.653 1.325z"/><path d="m599.029 57.327 1.278.87.916.457-.457-.457-.869-.413z"/><path d="m307.08 56.0011-1.325.915 3.063-.458z"/><path d="m602.962 59.5221.73.595.596.274z"/><path d="m604.288 60.3911 1.326.915-.457-.458z"/><path d="m605.615 61.306-1.234-.641.777.641 1.098.64z"/><path d="m606.255 61.946.228.229 1.145.596z"/><path d="m607.626 62.77.686.365-.092-.091z"/><path d="m608.311 63.135.777.777 1.327.457z"/><path d="m604.38 60.6661-.688-.548-.273-.138.411.412z"/><path d="m325.052 78.8661-9.192 3.476 4.804.914-2.608.413 1.738.869-1.738.914-3.108-2.652-2.195.869 1.784 2.195-2.195-1.327-.87 1.327v-1.738l-3.521 2.195-2.195 1.737 12.713-1.327.869.458 1.784.869 2.194-1.737 3.063-2.195h-2.195l4.85-1.784-7.912 1.784 5.717-2.652h-3.522l1.738-1.327 2.195.458z"/><path d="m329.443 83.2561-2.605 1.281.411.457.868 1.327-2.606-.458-.87 3.063 6.129.457 1.736-2.194-2.195-.458 2.654-.868-3.522.458 2.653-2.195.411-.458-2.606.458z"/><path d="m593.722 84.5371.915 1.327 2.195.868z"/><path d="m597.246 85.864v1.783l2.193 1.281h-.867l3.063.914-.868 1.281 1.736 1.327 1.327-.87-1.327-1.325 2.195 1.325-4.392-3.933-.868.412v-1.327z"/><path d="m195.999 87.1891-1.327.457.87.87 3.063-.87z"/><path d="m318.924 87.646-1.784.87h3.109z"/><path d="m179.764 88.5161-3.109 2.195-1.28-.458-2.652 3.521-1.738-.869-1.327 2.607v-3.063l-1.325 1.782-.457-.914-1.281 1.784-.458-.457-.457 1.325h-.87l-.411 3.064v2.6529l9.65-4.3899 1.325.868 4.803-3.063v-2.195l.868.412 1.326-1.281-1.737.413 1.737-1.327-1.737-.868-1.327 1.783h-1.738z"/><path d="m193.804 88.5161-3.979 2.606 1.327-.411z"/><path d="m316.729 88.927-4.39 1.327 1.738.868-2.607.915 3.065.413 3.52-2.195z"/><path d="m194.215 89.8411-4.392 2.608-1.279-1.327-1.326 2.652-7.042 1.738 2.651-.412 1.326.412-2.194 1.327.868-.87-5.716 2.195-1.737.869 1.28-.411-.868 3.4739h-2.195l-2.606 2.195.411.458-3.52.868-1.281 1.784.868-3.111-1.783-.411v1.327l-2.195 1.279-2.195-1.279-4.39 5.67.914 1.326-2.652.457 1.325-3.063-3.978-.458-1.738 4.847 2.195-1.327-2.195 8.323.868 2.195 1.327-.411.869-3.109.457 1.325 3.934-.868 3.063-2.195.458-3.064 3.521-1.782.87-.87.868-1.326-.411 1.326 2.194-.868 3.064-3.933 8.323-5.306 2.651-4.3899-.457 2.195 1.325-1.738.458 1.327 5.26-.868 1.738-5.306 5.258.457 1.327-3.933-4.391 1.738z"/><path d="m185.892 92.0371v1.281l1.738-1.281z"/><path d="m349.656 100.361-7.042.868 4.848.458z"/><path d="m88.8511 308.025-5.67-5.258.868-3.109-1.784-3.476-6.128-1.784-1.736-10.107-2.653-6.128.869-3.063-1.326-6.585 1.326-3.065-.869-6.174-4.391-1.325-4.848 6.584-3.063-.411 1.326-7.044.457-9.648 3.065-6.585 1.3239-8.78-.9129-3.065 3.521-11.433 1.782-2.607 3.933-1.325 3.522-6.174 3.9329-2.606-1.3269-.457 2.653-4.803-2.195-3.52 1.326-5.717-1.326-1.738 2.195-5.717v-7.042l-1.327-.411.458-2.653-1.784-.457 1.3269-3.065 1.3271-1.737 1.738-4.391 3.978-5.259v-.915l-5.258 4.39-.916-1.738-3.063 2.654-4.3901 6.128-.4109.458h-.413l1.281-1.784-1.327 1.784-.869 1.281.412-.87-3.476 4.848v.413l-3.109 4.39-2.605 3.978.411-.869-3.934 6.996-1.737 2.195-5.305 9.239-3.934 7.453-.457.457-4.391 8.322-1.28 2.195-.503 1.143-.824 1.509-.868 2.196.411-1.326-1.738 3.521h.413l-1.28 2.195-.458.868-1.327 3.065-.41 1.325v-.458l-1.327 2.653-.458 1.327-.411.411-2.195 5.26-1.327 3.109-.458 1.281-.411.914-.914 2.606-.412.87-.458 1.325-.411.87-.914 2.652-.413.868-.457 1.327-.411.868-.915 2.654-.413.869-.457 1.327-.412.868-.457 1.327v.869l-.457.869v.548l-.183.55-.229.227v.458l-.457.87-.411 1.325-.457.869-.458 1.326v.87l-.412.411v.915l-.458.869-.411 1.326-.458.87v1.326l-.458.412v.868l-.411.458v.457l-.458 1.281v.914l-.411.87v.411l-.458.916-.459 1.279v.457.459l-.411.868v.411l-.458.916v.412.868l-.41.458v.457l-.458 1.28v.915l-.458.869v.413l-.411.914v.868l-.458.87v.458l-.411 1.281v.914l-.458.868v.87l-.458.868v1.327l-.411.868v.869l-.458.915v.868l-.411 1.326v.641l-.046.274-.412.366v.457.868l-.45805 1.327v.868l-.181 1.189-.23.594v.866l-.457 1.327.366-.731-.04.184v.09l-.319.868-.412.87v.914l-.458 1.281v1.784l-.457 2.195-1.281 7.454v-.458l-.458 4.391-.868 5.717-.457 2.652v.869l-.412.869-.458 7.454-.457 2.654v.457.411.87l-.411 3.109.411-2.195-.411 3.476v-.413l-.456 6.128v2.195l-.413 5.717-.458 8.323v3.522 1.325.457 2.607.458 1.325 11.844l1.326 19.756.868 8.781.458 3.521-.458-.916 2.652 17.15v2.195l1.281 6.584v1.326l.365.686.092.551v.959l.274.504v.045l.184 1.053v.137l.045.184.367 2.012.456 2.104v.092l.047.184.364 1.646v.365l.138.229v.045l.31905 1.463v.916l.229.182v.047l.229 1.053v.457l.229.457v.045l.183.688v.549l.458 1.326.411 1.646v.549l.276.504v.045l2.378 9.604v.412l.182.318v.047l1.555 6.219 1.327 3.979v.412l.32.639.046.092.091.139v.867l.411.457v.869l.413.365.046.047v1.328l.458.867.411.457v.869l.458.867v.916l.412.41v.869l.915 1.785v.41l.411.914v.871l.87 1.736v.457l.457.867v.871l.456.867.412.457v.869l.457.869v.914l.413.412.458.824v.043.916l.457.869.185.184.228.641v.502l.503 1.006.367 1.1v.092l.137.229.321 1.051.457 1.098v.229l.183.184v.045l.687 1.602v.367l.412.867.183.184.274.641v.504l.867 1.783.139.139.319.729v.412l.406.91.229.184v.043l.229.504v.551l.868 1.781.1839.139v.047l.2741.639v.504l.413.869.274.229v.045l.64 1.51v.41l.411.871.229.227.641 1.512v.457l.457.867.137.137.321.732.867 1.693v.09l.869 1.738.091.092.777 1.508v.596l.457.869.413.457.915 1.738v.457l.868 1.736.413.459 1.326 2.65v.412l.868 1.783.458.414.868 1.779.366.322.093.182v.777l.411.916.458.412.869 1.781.411.365.046.047.868 1.781.047.047.411.824.413.869.457.457v.412l.867 1.781.458.869.413.41.457.916.412.869.457.412.458.912.413.414 2.195 4.389 1.326 1.326 2.197 4.392.87.869.868 1.783.458.412.457.869.87.916 1.325 2.604.869.871 1.325 2.652 1.281 1.324-.868-1.324 3.063 1.736-4.802-8.781-6.175-10.063-1.736-4.391.868 1.738h2.195l-.413-3.063 6.585 3.063.413-.457.457-3.934-4.39-10.975.868-.457-3.063-8.322.411-2.197-2.606-4.389-1.326-2.195-3.063-10.518.411-1.785-.868-.867.457-3.064-3.063-7.912.412-6.127 2.195-5.717.457-1.783 2.606.457-.868-2.652 2.194 1.783 7.911-7.453 10.107-1.783 8.78-5.717 15.3639-20.627.87-3.063.458-1.736 2.195.41-1.784-.867 2.654-7.912-1.785-2.197h-6.9939l-8.368-5.258h-4.39l-2.607-3.063-5.258-1.326-3.979-11.846-2.608-1.326h3.9329l.458-3.063-4.8489-19.758-2.652-5.258-.411-3.111v-1.278l-1.326 1.737 1.326-21.494-1.783-8.78 3.979-14.498.412 1.327.914-7.499-1.326-9.193 1.738-6.174.868 1.327v-5.717l5.306-24.556.868-9.239 2.605-6.128-2.194 10.518v7.912l7.044-7.912"/><path d="m69.0941 617.535.457.869.458.457z"/><path d="m70.0081 618.861.413.412.868 1.783.916.867.867 1.738.869.869-3.933-6.127z"/><path d="m73.9421 624.531.87 1.785.868.867z"/><path d="m259.199 104.751.868-1.327-3.475.458z"/><path d="m253.483 101.229-.412 1.327 2.606-.869z"/><path d="m255.267 102.556-3.979.868 1.784.458z"/><path d="m355.784 104.751-1.738 1.736h.413l3.521-.868-1.737-.868z"/><path d="m351.851 105.208-.868 1.738 2.194-.459z"/><path d="m591.118 107.814 1.736 3.064 2.196-1.28-1.328-1.784z"/><path d="m623.585 117.052-1.737.413 3.065 3.978-.87-2.195z"/><path d="m337.812 124.05-2.651.457-8.782.868-.868 3.065-4.847.457.868 1.738-1.281-1.738-3.521.868 2.195 2.195h-3.522l3.065 2.195 1.783-2.195 1.281 1.327-.411-1.738 1.325 1.281 1.28-2.195.457 1.326 2.195-2.195.87 1.327 2.651-.87 3.934-1.782h13.628l2.606-3.476-7.455.868z"/><path d="m628.434 126.245.41 1.782 1.739.413z"/><path d="m630.674 128.486 1.69 3.474-.868-2.606z"/><path d="m173.179 129.765-2.653 1.327v1.738l3.063-1.738z"/><path d="m174.049 131.092-6.586 6.585 2.606-1.738 3.521-.457 3.063-2.652-2.605 1.326 1.737-1.737z"/><path d="m313.208 131.96-.869 1.327-2.652-.458 1.783 1.784-7.042 1.325-1.325 2.195 2.652.87-3.065 3.933 6.128 3.521 1.327-7.453 3.063-3.065 4.39-1.325-1.738-1.784z"/><path d="m186.762 140.742-3.065 2.195 5.718-1.738z"/><path d="m166.594 141.199v1.326l1.281-1.326z"/><path d="m197.324 143.805-.915 1.784.915.868.413-1.738z"/><path d="m289.519 143.805-3.521.457-.868 2.653 3.933-.458z"/><path d="m194.672 145.132-3.063 2.194 3.934.869z"/><path d="m309.275 148.652-1.782 2.195.868 2.652 1.784-.914v-.411-.458z"/><path d="m95.0241 167.082-1.782 3.065h1.326l1.326-1.738z"/><path d="m104.674 174.125-3.934 5.26 2.606-.87 4.39-4.39z"/><path d="m98.0881 179.384-8.323 8.78 1.281 2.653 5.305-4.848 3.476-4.847z"/><path d="m85.7861 205.268-2.194 2.652-2.606 10.976 6.996-5.259z"/><path d="m92.372 227.677-1.326.868v1.784z"/><path d="m102.479 239.978-.457 2.607.457.914 1.326-2.652z"/><path d="m84.461 251.365-1.738 2.195.869 4.847 2.194 4.391 1.327-1.327-1.327-.411z"/><path d="m92.829 261.471-.456 1.327 2.194-1.327z"/><path d="m67.357 416.914-.458 1.736 1.327 1.736-.87-3.063z"/><path d="m31.412 417.414.366.367.274.823-.274-.413z"/><path d="m42.4341 432.781.32.365.914 1.326-.457-.457z"/><path d="m44.9481 435.753.458.457.32.914-.32-.457z"/><path d="m59.4451 452.033 1.326.869.32.32-1.188-.775z"/><path d="m62.9661 455.097.457.412.412.914z"/><path d="m667.945 476.591-1.325 1.785.868.867z"/><path d="m53.7291 539.38v1.738l1.327 3.109-.87-3.109z"/><path d="m736.864 553.876.867 3.523.869.408z"/><path d="m702.61 554.291 6.173 1.324 1.737 4.848.87-4.391z"/><path d="m730.279 556.484 1.736 1.324 2.651-.408z"/><path d="m717.563 557.4.869 3.475 1.737 1.783 1.327-1.783z"/><path d="m723.692 558.267 1.736 1.738 1.784-1.326z"/><path d="m707.87 558.679-3.064 2.652.868 2.652-3.932 6.127-3.521 2.652.456-3.107-1.326 3.52-7.043 4.85h5.306l6.586-5.717 4.803-6.586-.413-1.738 2.194-4.848z"/><path d="m736.407 560.875-2.196.457-.869.457-.868 1.738 1.325-.869z"/><path d="m740.383 560.875-2.652.457 1.784.457z"/><path d="m687.244 561.332-4.391 3.52 2.651-1.322z"/><path d="m726.344 562.658-.916 2.193h1.784z"/><path d="m747.381 565.722-.412 1.736-.868 2.652 1.737-2.193z"/><path d="m747.381 569.656-.869 1.324v1.326z"/><path d="m673.205 579.349-22.82 3.477-10.976.914-4.391 3.934v1.326l-3.979 2.605-3.934 6.176-3.521 3.063-2.605-3.932-.914 2.605-1.736-2.193-.871-8.781-9.237 1.326-6.996 5.26-1.279 2.879.363-2.012-2.193 1.328 1.736.867-.411.914 6.176-1.781 2.194 3.52 9.19-4.391-1.737 3.934-2.194-.869-3.063 3.521-4.39 1.326 4.802.869.456 4.391 3.064-2.654.868-2.193 2.194 1.326 5.26-1.736-1.737 1.736 3.063.459 15.824-2.195-.456 2.195 1.78-.869v3.063l2.196 1.328-1.783 1.738 3.521-.869-3.063 1.736 2.195.869-1.327 3.979 5.718-3.979 4.801 3.521 5.718-3.521h2.194l3.979-4.803h-5.306l7.043-3.521-1.326-.867 2.651-.869-.867-2.193 3.933-.461-.457-1.736.915.869.868-1.783.411 1.326 5.717-1.736 5.717 5.717h.456l8.78-4.393 1.281.412 3.521-4.803-3.521 2.195-.411-.457h-.87l1.738-2.195-3.522 1.738.458-2.607-2.652 2.195-1.324-3.52-3.934-.459-.87-3.475 4.392-3.109-.868-2.195-8.369 2.195.457-3.477z"/><path d="m643.799 613.558-5.26 2.193-3.521 5.715 2.195-.869 5.258-3.93z"/><path d="m73.0731 582.824v1.328l1.327 1.781z"/><path d="m625.37 585.021 3.476 1.326 2.195-.871z"/><path d="m633.693 588.13-8.323 2.193h3.476z"/><path d="m77.006 589.41 1.784 2.193-.916-1.736z"/><path d="m602.091 591.195-6.585 2.605 4.391-.869h.41z"/><path d="m730.279 601.302-.459 2.605 3.109-2.195z"/><path d="m596.376 601.712-3.935 2.195 3.478-.412z"/><path d="m97.219 603.908-1.783.867 1.783 4.85-1.783.867-1.738-2.605 1.325 3.934-1.325-.869v3.063l-.457-2.193-.87 1.324.87 2.195-.87-.457-.41-1.738h-1.327l.87 2.195-1.738-2.195-6.174-3.063.457 4.389 6.585 13.582-.868 2.652 1.281 3.934 8.779 13.627 4.391 5.262h.458l6.128 3.932-4.391-23.23-1.279-4.391 1.279-.457-3.063-6.584h.869l2.194 3.52.458-1.783-5.26-13.17-4.39-5.67z"/><path d="m620.065 613.146-2.607 2.193.413 1.328-.87 5.258 3.521-4.848z"/><path d="m659.165 621.056-2.195 2.195-1.326 5.258-3.063 3.936 1.738-.869-3.522 7.453-.411 5.26-8.78 14.496-2.65 1.326-2.196.457-2.195-1.324-10.977.867-5.715-1.326 4.847-7.453-.457-1.738 3.109-1.326.412-2.195 3.063-3.063-1.737-1.326-3.521 3.932.458-2.193-2.195 1.783 1.327-1.783-3.979 3.064-2.195-.412-3.521 2.193-.868-1.781-2.606 1.781-7.912-.455-1.325 1.324 5.259-.457-.41 2.652-7.501 3.064-.868-.869-3.065 2.652.871 1.279-2.196-.867.868 1.324-2.193.457-.868 3.477-3.065 1.783-3.063 4.391 3.063.869-2.651 2.652-1.28-.916-1.325 2.195v-1.279h-3.064l-2.194 2.193.412 1.74-1.234-1.236 1.234-2.285-4.391-2.195h-3.063l-1.738 3.063-.457-1.279-1.738 1.736-1.326-.867-.868 3.52-1.783-1.781-3.063 3.52 1.737 1.328-3.933.867 2.194 1.326-3.521-.457-2.194 2.195.869 1.326 1.783-1.326-2.652 3.063 3.521-.867-3.934 1.783-4.848-.457-.457 2.193h2.653l-.459 1.736-2.194-.41-.412 2.607-3.063-4.393-5.307 4.85.916 3.52-8.779 7.457-7.044 2.65-5.716 1.738-11.389 5.258-3.108-.41-14.451 7.455-2.194 2.604-1.784-2.193-5.259 10.105 3.521 5.717-1.783-.867-.869.867-.868-2.193.868 3.52-3.522-.869 7.913 8.322v2.195l-.412 1.738 3.478 3.109-2.195 3.934-4.391 1.326v2.193h7.5l6.996-.867 11.846-5.305h.457l18.887-4.391 5.259-3.477 10.106-4.389 28.08-10.566 13.17-2.605-1.737 1.736 2.605-.457.458 2.652-1.738.457 3.064-.457.868-1.326 11.845-7.912 1.327-1.736-1.327 3.064-3.934 2.65-1.783 2.197-2.194.867-1.281 1.326 4.392-2.193 3.934-3.523.458.871-4.392 3.52 3.934-2.193h1.736v.457h-.41l-2.195 2.605h.411l.916.457 9.648-3.979 5.717-3.934 3.476-1.736-1.28.869 2.605-1.326 9.239-6.129-2.653 1.279 1.326-.867 9.649-6.588 6.174-5.715 4.389-3.932 6.129-5.719 7.911-7.453 5.718-6.127 3.934-4.393 4.847-6.174 1.281-3.52 3.978-5.672-.868-3.979-3.108.457 2.194-4.391-.868 1.324-1.326-.457-.87 2.195-.411-.457-1.326 1.326.869-7.912-8.78.916 1.739-7.912-1.739-.869 1.739-6.586-3.064-1.781-3.935 3.063.868-6.584z"/><path d="m626.24 649.593-2.196 2.193-.458 1.738 3.064-1.326z"/><path d="m599.029 650.46-3.109.412-.868 1.326-2.608-.869 3.064 2.652z"/><path d="m592.442 652.199-2.194 2.652 3.476-1.326z"/><path d="m684.18 655.263-2.653 3.521-.411.869z"/><path d="m137.142 663.175 3.111 2.652-1.327-2.195z"/><path d="m145.924 664.5.457 1.74h1.326z"/><path d="m636.344 668.021-1.783 5.26-.412.412.87-2.607.411-.867.457-1.328z"/><path d="m581.01 676.802-2.653 3.521v-2.195z"/><path d="m631.176 681.24-.137.365-.411.912-.869 2.607-.457.41.457-1.277.411-.871.458-1.326z"/><path d="m627.794 688.738-.229.775-.458.869-.318.459.318-.869.458-.867z"/><path d="m625.598 693.128-.229.777-.456.871-.321.455.321-.869.456-.867z"/><path d="m623.404 697.519-.229.777-.411.412.411-.822z"/><path d="m621.986 700.033-.139.459-.457.869-.411.457.411-.869z"/><path d="m620.203 703.189-.138.365-.366.365z"/><path d="m618.785 705.292-.456.916-.321.502.321-.959z"/><path d="m617.457 707.533-.457.869-.411.459.411-.916z"/><path d="m617 722.031-.411.412-1.691 1.006z"/><path d="m615.262 725.507-2.651 1.781-5.26 2.607-2.193 1.783v.41l4.391-2.604.868-.457 5.259-3.521h-.366-.048z"/><path d="m605.158 732.091-.869.457-1.326.871h.457z"/><path d="m594.637 730.81-7.043 2.609h1.328z"/><path d="m315.853 159.405-5.298-5.906-2.194.87-1.281 4.39-2.653-.457v-.412l-2.194 1.737 1.326-3.933-4.848.87-3.521-2.195-3.064 1.325-1.326-.914-1.281-.868 3.476-2.608 2.652.413-1.326-.87-5.716 1.738 1.325-1.738-9.648-.868-.457 1.738-2.195-1.327-3.933 2.652-3.065-1.325 1.738-3.933 4.39.411 1.784-1.738-2.195-6.128-.914 3.065-12.256 9.648.411-5.258-5.26.411-3.063.457-1.327.457-1.325 1.738-2.608 3.065-.458-.87-.867-3.063h-1.784l1.784-.458v-3.521l-3.065 1.326-.457 3.978-3.521 1.281.457-6.996 4.391-4.39 3.52-.87v-4.39l1.738.413 2.652-5.26 2.195 14.497 3.476-.457 5.306-.87 3.063-5.258.411-.87 1.327-9.695-1.738-2.607-2.652.87 3.522-1.327-1.327-1.738 1.784-.868.868 1.281.411-2.196-3.063.458 1.327-2.653h-2.196l1.737-2.195.916-.869.411 2.652h2.652l1.327-4.391h-3.522l3.933-.457.457-1.737-4.847 1.326-.868-.457 3.932-1.738-6.586.869 5.306-1.326v-2.195l-6.585 1.326.868-3.064-1.784 1.281-1.738.915 1.327-1.785h-4.848-.411l1.28-.411 1.738-.457h-.824-1.325l2.606-.869-1.738-.458-2.195 1.784.869-2.652-4.802 1.326-1.782-1.326v2.652l-.87-2.652-3.521 1.736 3.064-1.736-1.739-.459-.867 1.327-.458-1.738-1.326 2.606-2.606-1.736-.87 2.195-1.326-2.654-.869 1.327h-3.979l1.326 1.327-2.194-1.738-1.328 1.279.459-.868-4.391.458.869 1.326-3.065-1.784.413 1.327-1.737-.459-1.327 1.327-.869-.868 1.738-.869-6.128-.458-.092.367-1.235-1.235-3.52 1.736 1.325-1.736-2.195 1.736 1.784-3.474-1.784 2.606-.411-3.063-1.327 1.325-1.325.411.868-1.279-1.325.868 1.325-2.652-1.738.868-.868 3.111.411-3.111-1.738.459-.868 2.195v-1.738l-.457 1.279h-1.327v2.195h1.327l-1.738 1.785 2.195-.458-1.784.87-2.195-.412 2.195-1.326-.411-3.065-1.327 1.738v-1.327l-1.784 1.327.916.458h-1.784l-1.738.869h1.738l-3.064.868 3.064 1.785-5.26-1.327-1.738 1.327 1.738 1.28-2.652-.412-.411 1.738h-1.327l1.327-2.196-2.652 1.784-3.934 4.391.869 2.194 5.717-.457-.458 2.195 5.259-1.738-9.191 5.259.41.869-3.062 1.326 2.652-.457-3.979 1.327-6.128 6.128h-1.738l-5.305 3.978.458 3.064 4.847-1.738-.457 3.065 8.323-3.065 5.717-3.979.457.869.411-2.194 1.784 2.194 2.195-.869-2.195 1.784h3.52l.413-1.784 2.195.869 4.847-4.802v-1.783l14.04-6.585-1.327 1.783 5.717.869 1.738.458 4.847-.458 5.258-3.522-.868 1.328 3.522-1.738-.869 1.738 2.607-.87.868 3.522-4.389 3.932h-16.646l-7.043 5.718-5.717 2.194-1.326 3.521 1.326.413-3.522 1.782 10.564 7.455-2.195 1.325-.457 4.803-3.063-3.522-2.653.914-.412-5.304-4.847-2.606-4.803 3.932.87 1.783-6.585 3.476-2.196-.411 3.521-4.848-1.782-1.326-6.129 2.195-4.985 3.75-3.794 2.835-.459-1.281 4.253-1.554-3.384 1.097-1.28-.868h-.457l-1.327.868v.457l.458.413h-1.326l-1.738-.413 2.606-.457-2.195-1.325 2.195-3.933-6.128-4.39-2.195 1.326 3.933-6.586-2.606-3.109 2.195-.868-.458-2.197 3.064-3.521 4.849-2.195 4.39.457 1.325-2.651 6.128-1.739-3.52-2.652-13.583 6.585.411.457-2.195 2.196-.869-.458-4.389 5.305 2.194-3.979-3.064 1.327 2.195-2.195-.868-1.738-1.784 2.195 1.327-4.39-1.739-.457-2.651 3.063-1.328-.869 3.522-3.064-5.26 1.327-1.325 2.195-.457-2.195-1.28 2.606-1.327-5.259-3.521 2.653-.87-.457-2.652-1.327 3.979-6.128-6.174 5.259.457-3.064 2.606-2.195-.411-3.063-1.784 2.194.916-1.326-3.11 2.195-3.475 6.128-5.306 4.847-1.737 2.196-3.064 1.737-.457.869-9.65 6.175 7.043-15.367 2.194-2.652-.914-2.196-3.933 4.391-9.648 7.043-3.98 2.606-.41.915-1.785 1.281-.869 1.784v-.87l-4.8009 4.803-2.653 5.258-7.042 8.78.914.915-2.652 6.997 2.195-.869-.457 1.737 3.11-2.195.411.458h.457l1.326-1.326.869-1.327 2.608-2.195.456-.411 4.3909-1.327 2.195 3.065 4.39-4.39 1.737-.413.915.87-3.109 8.323 5.716 1.784-2.194 5.671-7.455 9.238-9.2379 24.145-4.803 7.043-3.977 2.194v1.738l3.977-2.652 1.328.914 3.063-5.715 3.064-1.784v3.522l-1.737 3.977 1.737-1.325 3.9339-13.628 2.194-1.326v-4.802l6.585-9.65 2.653-6.585 5.717-5.304 2.606 2.195-4.802 5.304 2.607-.457-7.866 11.433v3.064l-2.195 5.259.411-3.063-1.325 7.453-2.196 5.717-6.5849 5.258-2.607 5.717-2.652 5.716.869.869h-1.281l-1.783 3.522 1.783 6.996-1.326.458-.457-6.175-1.739.916-3.977 6.996 1.326.458-1.738 3.932 1.738-1.325-.869 3.52 3.933-6.996.458 3.064 1.325-3.978 1.326.914-.914 3.476 2.103-2.515-.32 1.645 2.195-3.932.869-4.391-1.327-.457-1.234 6.219.824-7.087 1.281.457 1.325-1.784-.411 2.195 4.8009-8.78.869.457-1.737 6.128 1.737-2.606v3.063l1.785-4.847 2.606 2.652.914 6.585-3.52 1.327 2.102-.32.55-.092 3.476-.502 2.652 3.978 3.933-10.564-.87-1.28 7.042-1.784 6.998-6.585-.87 1.782 1.738.87 4.39-4.848-.868 1.327 3.52-.458 2.654-1.281 3.933 1.281-1.327 3.109-1.327-2.651.459 1.737-1.327.457 3.065 4.848-1.281 2.196-4.39-.916 1.738 1.327-3.522 4.847v2.608l10.107 1.783-3.065-2.653-.457-1.325 1.327-4.391 4.39-1.28-2.652 1.738 4.39-.458 10.105 4.848-3.933 1.325-1.782-2.195-1.281 5.717.411-2.195-5.715 3.064-2.607-1.326.142 6.303 1.482 10.2.736 2.576 1.159 2.626 1.166 2.982.365 1.372 1.076.45 1.666 2.922.787 2.598.615 2.372-.322.618 1.433 2.613 1.244 2.473.931 1.83.768 2.106.677 1.963.137 1.51-.625.626.224 1.452.449 1.688 1.276 2.842 1.752 3.124 2.362 2.988-1.94-3.619 1.327-15.777 4.801-7.043-2.606 1.325 2.606-8.322 6.174-4.39 4.39 2.194 4.39-3.109 7.919.9.941-2.424.491-2.394 2.349-2.409 3.077-3.331 1.181-8.299 3.26-3.908.998-.825 5.127.504 6.68 2.617 3.545.31 2.194 2.025 1.077 2.297 1.015 1.672 2.827 3.597.525-.407 2.531.725 1.259 5.792 3.137-1.456 4.261 2.812 1.44-1.467 1.199-1.332.119-1.167-1.346-1.696-1.653-3.254 1.041-.548-3.278-3.172-.997-2.056.352-.971.783-.347.704-1.944 6.348-3.426.808-1.378-.875-1.853-1.781-.638-3.905.101-2.886-.147-.771-1.29-.939-.399-.305-7.246.792-2.186 2.132-.335 6.297 1.949 4.127-.607 1.819-2.029-.154-1.819-1.639-2.739.511-2.264 4.233-2.285 3.062-.338 8.28-8.36 6.025-6.433 3.065-3.463.699-1.74 1.894-.716.956-.004 9.894-13.439 10.327-1.764 10.931-2.528 6.941-3.521.072-.921 1.764-6.75z"/><path d="m667.945 476.593-.461 2.651-.869-.871z"/><path d="m643.804 613.552-1.33 3.112-5.259 3.929-2.191.869 3.52-5.709z"/><path d="m633.695 588.132-4.851 2.192h-3.479z"/><path d="m631.495 129.353.87 2.61-1.691-3.48z"/><path d="m631.044 585.472-2.2.871-3.479-1.32z"/><path d="m628.434 126.243 2.15 2.2-1.74-.42z"/><path d="m626.234 649.593.42 2.61-3.07 1.32.46-1.74z"/><path d="m620.064 613.142.46 3.941-3.519 4.84.869-5.259-.419-1.321z"/><path d="m618.325 597.324 1.739 2.189.92-2.599 2.6 3.929 3.52-3.06 3.94-6.18 3.98-2.6v-1.33l4.38-3.929 10.98-.92 5.321-.811.179 1.18-2.57 33.51.08.13-.399.25-4.8-3.531-5.721 3.981 1.33-3.981-2.2-.869 3.06-1.73-3.52.871 1.79-1.741-2.2-1.33v-3.06l-1.779.871.449-2.201-15.82 2.201-3.06-.461 1.74-1.74-5.259 1.74-2.201-1.33-.87 2.199-3.06 2.651-.46-4.391-4.799-.869 4.39-1.321 3.059-3.529 2.2.869 1.741-3.929 1.219-.12z"/><path d="m603.834 225.943 1.781 2.19-.461 3.48z"/><path d="m605.154 270.253-2.189 10.11-.46-7.46z"/><path d="m603.834 349.273h-.869-.871l.871 3.98h-2.661l.46 4.8-1.74-3.06-1.319 4.39-5.26 2.65 1.279-2.19-2.2-.46v1.74l-1.73-1.74v3.06l3.06 1.79-3.06 5.26-.46 2.19-4.389-1.32-.41-6.13-5.261 2.19-6.59 7-1.319-1.74v4.39l-6.181 1.33-1.28-2.2 8.33-12.76 13.62-5.71-1.319-12.26 2.189-1.78-.87 3.52 2.611 1.32 5.259-13.17-.87-9.23-.409-1.74-.921-1.78h-.409l-.87.91-1.321-4.39v-1.33-3.52l4.39.87-3.069-3.06 2.609-1.33 7.91 10.56 1.33 9.2-2.2 1.78 3.52 7.45.42 5.26 2.65 3.07-1.789 6.17-.41.87v-1.33-.86z"/><path d="m602.094 591.193-1.79 1.74h-.41l-4.389.869z"/><path d="m601.634 281.223-.87 7.05-.87-2.66v-3.93z"/><path d="m599.945 598.003 1.279-2.88 7-5.26 9.231-1.321.769 7.791-1.219.12-9.191 4.39-2.199-3.519-6.17 1.779.409-.91-1.739-.869 2.189-1.33z"/><path d="m596.374 601.712-.46 1.782-3.469.408z"/><path d="m593.724 107.813 1.33 1.79-2.2 1.28-1.739-3.07z"/><path d="m595.505 653.982-3.06-2.649 2.609.87.86-1.33 3.11-.411z"/><path d="m592.445 652.203 1.279 1.32-3.479 1.33z"/><path d="m583.205 592.064 4.389 1.738-6.129.461.869 4.379 2.611 2.66-4.801-2.66-1.79-6.578 3.53-7.912.45 5.262-2.65 2.65 6.59-5.721v3.071z"/><path d="m585.404 580.632v3.112l-1.74 1.279z"/><path d="m583.205 304.963 1.33-3.11-1.79-1.74 3.979-1.74-5.259-14.49 11.389 5.25 4.391-1.32.46-3.52 3.059 6.17 1.741-1.33-4.8 6.59v7.04l-7.911-.91-1.329 3.52-3.061-.87.45 2.65 4.81.87-3.94 3.94-.82-1.29-.05-.04-3.109-4.8z"/><path d="m584.535 614.882-1.79-1.33-1.731 3.112.87-2.651 6.17-3.519 7.86-1.741 2.661 3.93-5.261-.859z"/><path d="m581.884 605.232.861.871-4.391.869 1.33-2.199z"/><path d="m580.554 168.863.911 4.8-2.191-2.6z"/><path d="m581.465 601.302-2.651 1.281-.869-1.74 1.329-1.33z"/><path d="m580.554 281.223-13.17-24.55-3.939-6.59-6.58-6.17-3.061-6.13 1.731-3.52 9.239 11.84 8.33 7.46 7.45 6.58-4.799-2.19-2.651 2.65 3.06 8.78 8.371 6.13.869 2.65-2.199-3.06-3.521.41z"/><path d="m577.075 617.943-3.521 2.65-3.979-1.73 4.849-2.651z"/><path d="m571.774 379.143 2.65-6.59 1.331.87 2.599-4.39 3.53-.41 1.78 2.6-1.33 4.85-3.52-.87-1.739 4.8-1.32 2.2-2.201-4.39z"/><path d="m573.554 640.814-6.58 3.059 1.32-2.19z"/><path d="m570.495 549.482 1.739 7-2.659 3.111.46 3.93-3.521-5.26-1.74 3.94 2.2 3.98-1.79 3.061-.87-3.061-1.73 1.731-5.719-1.321.869-6.59-3.93-1.74v-.861l3.93-4.85h2.65v-3.07l4.39-1.318-.87-5.262 4.801 2.191-.411 4.389z"/><path d="m568.705 415.132-1.321 3.06-1.28-.409z"/><path d="m154.584 265.133-5.3-10.31-1.43-9.87-.15-6.3 2.61 1.32 5.72-3.06-.42 2.2 1.28-5.72 1.79 2.19 3.93-1.32.03.05 14.75-10.72-7.39-11.82 5.91-14.77-4.43-5.9 7.38-4.43 5.91-5.91 2.95-11.82 7.39-8.86 11.81-5.9-.4-1.14 1.32-.46 3.06 3.52.46-4.8 2.2-1.32-.73-.52.31-.44 8.55-.75 11.82-2.95 16.98-19.45 16.74-6.89.26.2-.38.48h2.19l-1.32 2.65 3.06-.46-.41 2.2-.87-1.28-1.78.86 1.32 1.74-3.52 1.33 2.65-.87 1.74 2.61-1.33 9.69-.41.87-3.06 5.26-5.31.87-2.1.28-1.37.18-2.2-14.5-2.65 5.26-1.74-.41v4.39l-3.52.87-4.39 4.39-.45 6.99 3.52-1.28.45-3.98 3.07-1.32v3.52l-1.79.46h1.79l.87 3.06.45.87 2.61-3.07 1.33-1.73 1.32-.46 3.07-.46 5.26-.41-.42 5.26 12.26-9.65.91-3.06 2.2 6.12-1.78 1.74-4.39-.41-1.74 3.93 3.06 1.33 3.94-2.65 2.19 1.32.46-1.73 9.65.86-1.33 1.74 5.72-1.74 1.32.87-2.65-.41-3.47 2.61 1.28.87 1.32.91 3.07-1.32 3.52 2.19 4.85-.87-1.33 3.93 2.19-1.73v.41l2.66.46 1.281-4.39 2.189-.87 5.3 5.9.02.05 2.18 2.37-.91-.87 2.19 7 4.85-3.48-.46-3.52-2.6-1.33 1.32-2.19 3.93-5.72 4.85-1.32 6.59-6.13.87.46h.04l2.561 1.28 1.79 1.78-5.721 5.72v3.47l-2.649 4.39-3.481 5.31.87 3.93-8.78 6.59-7.04-.46 5.71 4.85 10.52-6.59 3.111-5.72h4.799l-2.19 7.05 3.521 2.19-2.651-2.19 3.111-2.2.41-3.98-3.061-2.6-5.26-.87 3.52-4.39 1.74-3.11v-4.8l6.12-3.07 1.33-3.11-2.2 9.24 4.39 2.19-2.6-6.12 3.93 1.28v-2.2l2.2-.41 2.19 2.2 2.201 2.19 3.929.87-5.259 5.72 2.649-1.79-2.189 3.98.41 1.33 1.319 1.74.46-1.33 3.07-9.19-.38-.52-3.56-4.79 1.74-5.67 13.17.41-.87-5.71 1.33 1.78.87-3.06 13.17-2.66h-2.2l.87-1.32 4.391.46-.871 1.32 5.72-2.19 1.28 1.28-1.28-2.2h1.74 1.73l.46-3.06 3.941-3.52 3.519 1.78-3.069 1.74 5.26.46-1.321 2.19 7.04-2.19 5.71 4.39v1.73l-2.649-1.32 3.069 2.65-10.059 9.65-2.201 4.85 1.28-2.2 8.371-3.52-2.2.46v-2.2l3.07-.46 1.739 1.74.45-1.74 2.66 3.94 3.06-3.07 6.591-.41-.46 2.2 3.519.41 5.72-.41.41-5.72 4.84 1.74 4.391-.87 3.069 2.19-1.33 1.33 3.11.87-2.189 1.33 9.649 5.25-.87-7.04 3.931 1.79 3.069-2.66 5.25 1.33-1.279-2.65 3.479-.87h.46l-1.33-1.33-.87-.41-.87-.87-.46-.91v-.41h-.409l-1.321.86.871-1.32 1.319-1.74-1.779-1.33 10.979-2.65-3.479 3.11 3.929-2.65.46 2.65-2.2-1.32 3.071 3.06-1.331-4.85 1.74-.87h4.39l-.41 2.2h9.65l3.06-4.8 4.391-2.2 6.169 1.74.42.46v-.46l5.71 2.19-1.32-3.52 5.71-4.8-.87-2.19 3.941.86 4.389-1.32-.87-1.74-4.39-.46-2.2-1.73-.45-.46 1.32-.87 2.651-1.33.87-4.39 7.909-2.65 10.11-3.47 9.651 1.73-5.71-1.32-.46-1.74 1.319-2.2 5.26-1.32 3.52 2.65-1.729.87h2.599l-1.73 2.6 1.32-.86 2.611 1.32 1.779 2.2 2.61-.46.91 1.78-2.65-.45 1.74 1.32-3.07 1.74-5.25-.41v3.52l-5.72-2.65v1.74l4.851 1.78 2.189 2.61 1.74 1.78-2.61 7.45 1.28-1.73 1.33.86-.869-3.06 3.929.41-1.739-.87 11.439 3.07 2.191 2.65-3.11 2.61 2.199 9.23 4.39 10.52 2.651 2.2-5.26-.87-1.781 4.85 2.19 3.93-3.47-2.61 1.74 5.26-2.2-.46-.87 1.79 7.911 12.25 3.48-1.73 1.329 3.06 7.04 3.98-1.79 3.06 6.591 6.13-1.281 7.45 1.281.92 1.279 1.23.051.05 2.189 2.19.46.46v.46l-3.07 3.48 3.941 3.52 2.189 10.97-22.409-19.75-6.121-8.33-3.52-7.04 1.78-3.52-2.65-8.32-3.529-9.24.87-5.26-7.451-6.59.46-2.6-2.2.41-.87 2.65 4.8 3.52-1.319 1.74 2.189 8.32-2.189-2.6-.411 1.32v.41l-1.79-1.32-.87-1.74-1.729-2.65-.461.91-3.519 7 3.519 11.84 1.78 2.2 1.28-1.74 2.201 1.33-6.591 7.91-1.74-.92 1.74-2.6-8.78 1.73 1.331 3.53-6.59 2.65v2.19l-1.731-.91-7.46 5.72-.459 12.3-.861 8.78-4.399 12.71 3.069 1.33 3.06-1.74 3.07 5.26.91-4.85 1.28 5.31 2.651-4.39-.861-1.79 3.52-1.74 1.28.42 7.5 2.65.41 2.19h-2.2l6.181 4.39 1.739 10.11 2.191 4.39 3.519 6.13v3.52l.41 17.1-3.469 21.95-6.591 8.37-7.04-2.19-.129 1.75-8-9.33 5.899-4.43h4.431l-4.431-25.11-10.33 8.86-7.39-5.91h-10.34l-17.719-20.67-7.381 2.95-2.96-2.95-11.81 10.34 4.43 4.43-2.949 14.77-10.881 1.35-.94.12-11.81-1.47-10.34 10.33-10.34-1.47-1.47-8.86-16.25 2.95-5.909 2.95-5.901-4.43v-7.38l-13.3-2.96-5.899 16.25-11.821-2.95-1.469-4.43-16.25-1.48-14.071 9.85-.7-.99-5.899-4.43-5.91-1.48-1.481-7.38-8.859-1.48-7.381-4.43-4.43-19.2-13.3 1.48-8.86-8.86v-8.86l-36.92 1.47-7.38 5.91 2.21 7.39-7.38 1.47-5.91-8.86-11.81-1.48v-10.33l-11.82-1.48h-5.9-4.44l-11.81 8.86 1.48 14.77.1.37-4.39 3.11-4.4-2.19-6.17 4.39-2.61 8.32 2.61-1.33-4.8 7.05-1.25 14.78-.51-.04-2.95-4.92-2.22-6.65v-8.86l-4.43-1.48v-2.91-3z"/><path d="m565.644 611.363-6.13 3.109 1.28-2.648z"/><path d="m562.995 528.402 2.189 6.592-4.66-.461-.14-.41v-2.2l-5.26-3.98 5.26-1.731z"/><path d="m562.844 652.552.248-.25-.071-.57-.07-.856-.144-.642.072-1.568-.295-.403 13.171-4.84z"/><path d="m563.343 652.482-5.11 3.619-3.07 2.201-3.52.869.87-1.779.92-2.201 9.65-7 .152 2.478z"/><path d="m562.584 386.183-3.07-2.65 6.13-5.72 7.04 3.98-.45 11.84-2.659 3.52-.87-4.84v3.93l-3.061-.87.87-9.19-2.61-3.98-1.32 1.78 2.19 2.61-3.059 1.78-1.331-3.52z"/><path d="m560.524 534.533 2.06 5.72-1.79.45.461 2.199-4.39-5.26-.87-3.519h4.389z"/><path d="m562.584 645.613-.869 1.33-3.981 1.32 1.33-1.781z"/><path d="m558.195 543.314.409 1.779-3.48 1.74-1.32-.871.86-1.73.871-.918z"/><path d="m557.734 647.392-1.33 1.74-.869-.869z"/><path d="m552.474 230.333 3.061 3.93-3.931-2.65z"/><path d="m553.804 533.253-3.07-1.781-2.19 2.192v-4.391z"/><path d="m554.664 542.033-2.19 3.06-1.74 3.94 1.28-3.94 2.65-8.779z"/><path d="m551.144 614.013h-.41l-.449-1.74 4.379-.449z"/><path d="m548.084 636.833.871-3.931 2.189-3.52-1.319 4.391h1.779z"/><path d="m547.624 545.503 1.78-6.121 2.2.871-1.779 5.25.909 4.399-1.779 1.781-3.941-3.98 1.741-1.28z"/><path d="m540.174 617.943 7.45 5.721-2.19 2.65 4.391 3.519-4.811 1.741-.86 2.199h-3.11l.911-3.94-4.851-1.781 1.74-4.799h-2.19l-3.939 2.6 1.329 14.039-3.06.461-3.529.461.419-3.111.451-7.87-3.931.87-.91-3.981 3.971-5.67v-3.969l2.609-3.531.92.92-.279-.689 1.559-.641 3.97 3.522 2.61-.452 3.521-4.388 11.439-3.071-11.439 9.649z"/><path d="m548.955 535.863v2.65l-6.59 6.129-1.731-8.779 6.581 1.32z"/><path d="m548.955 631.113-.411 2.201-.92 2.189-1.73.459.45-3.519z"/><path d="m544.564 559.593 7.04-6.58 3.06 1.279-.86 3.11v.861l-1.33 3.07-5.259-1.33-2.651 6.18-1.739-.92z"/><path d="m545.484 321.923.41 1.01-3.069 4.85 2.189 6.13-7.91 10.56.46 3.48 5.67 2.19 2.57 2.7-11.189 5.79-3.221-.58-.41 1.33-2.659.46.87-1.33-3.061.41.871-3.47 3.059-1.33-2.609-.87.419-5.72-6.32.28 8.061-14.2 7.38-1.48v-7.38z"/><path d="m545.894 567.462-2.66 1.782.461-1.782z"/><path d="m538.844 522.693-2.61 3.06-4.38-.41 1.32-5.72-2.65-.459v2.66l-2.65-1.741-.869-1.781-2.201-5.719.87-2.611h.46l3.061.41-.41-15.359 10.059-1.279-.41 3.929 2.61 5.26-5.67 11.84 2.6 5.31 3.981 2.61-.46-2.199 3.519-1.33 2.201 3.529.869-2.61h2.65l1.74.87-2.649 1.74 1.779 3.06 2.611-.871-.411 3.52-.46-2.649-4.389.911-5.26-4.84.869 4.84z"/><path d="m540.634 654.853-10.57 1.74h-1.279l1.279-.871 3.11-2.648 6.59.449 6.13-1.74 2.65-3.11.86 1.33z"/><path d="m537.104 363.313 2.66 1.33-3.53-5.72-1.619-.29 11.189-5.79 5.8 6.08 2.611 7.04-.411 7.05-2.66-.46v3.52l-3.929-.87 1.329 2.61-2.2-1.33v3.11l-1.33-2.19-2.649 4.39-1.731-1.79 1.731-.41-2.601-2.65 1.28-7.91-2.2.46-.87-3.53v2.2l-2.189-2.2z"/><path d="m537.974 528.402-.41 5.721-1.779.41-2.611-3.93v-.461l-3.11-2.609z"/><path d="m536.654 234.723-2.199 1.73v-3.06z"/><path d="m534.914 661.433v.42l-2.65 1.779-2.61-.869h-.459l-6.131-1.33 6.59-2.189h.41z"/><path d="m559.514 600.843-25.93 6.129-1.32 6.17-1.559.641-1.51-3.7 1.329.411 1.33-3.93v-.871l1.73-2.199 2.201.869 1.779-3.52 19.301-1.74 7.909-7.039z"/><path d="m530.984 450.253-3.979 21.539-5.72-6.179v-3.52l6.589-13.17z"/><path d="m523.934 120.113 1.33 1.74-3.069-.41z"/><path d="m523.484 103.423.45 1.79-3.06-2.66-1.33-.87 3.071-2.19z"/><path d="m524.804 548.164-.41-3.071 1.74 1.33-.46-4.39 2.2 5.259-5.259 4.391-.87.41-4.391 7.5-5.26 4.389 9.651-12.299z"/><path d="m519.094 658.373-3.479-1.78 1.279-.871 8.37.871-14.5 5.26-1.74-1.74 2.61-2.199z"/><path d="m514.844 590.583.51-.509 1.54 1.529-4.8.92 7 6.58-2.2.869.92 1.74 7.45 3.52-3.979 2.201-3.471-1.33 1.28 1.779-3.94 4.391.87 4.81-4.39 3.51-1.32-.861-3.94 4.801 3.07 1.781-2.199 4.389-1.331-.459 1.331 1.33-8.78 6.129-2.611 1.33-.449-4.401-5.721 1.33v-1.74l-3.929-.449-7.911 4.391-1.33-3.942-9.649 1.74-1.741-9.648-3.98 1.328 1.79-1.789-2.66-1.73h2.2l-3.06-.87.86-3.111-2.65-1.279v-4.85l2.57-2.769.011.009 10.339 4.43 11.81-5.9h13.29l8.861-19.2z"/><path d="m509.024 658.373-.909 3.06h-3.931l1.73-3.06z"/><path d="m502.444 659.652-3.979 3.111-3.93-3.111 3.519-.408z"/><path d="m494.075 657.914.869 4.849-3.93-.461-21.5.871-12.759-1.74-6.581 1.33-9.65-.91.46-2.201-8.779-.869 3.929-1.321 1.74-3.48 15.36.871 4.39 2.609 9.701-.42 4.39-3.06 10.059.871 3.981 3.93z"/><path d="m492.334 653.982-3.98 2.191-5.25-.451z"/><path d="m482.354 299.643 7.38 8.86-11.81 1.48-5.91 10.34h-5.899l-2.96 4.43-8.861-1.48v2.96l2.951 10.33-16.24 7.39h-7.381l-11.82 7.38-14.769-5.91-28.061-2.95-5.899-10.34-10.341-4.43-8.86-4.43v-14.77l-7.39-4.43-4.43-5.9.7-.49 14.071-9.85 16.25 1.48 1.469 4.43 11.821 2.95 5.899-16.25 13.3 2.96v7.38l5.901 4.43 5.909-2.95 16.25-2.95 1.47 8.86 10.34 1.47 10.34-10.33 11.81 1.47.94-.12-1.46 16.01 7.91-4.07z"/><path d="m475.184 120.573v3.06l-3.469.42-3.981-2.2z"/><path d="m473.905 133.283.409 1.33-5.25 1.74v-.41l.87-3.52z"/></g><path d="m466.865 495.023.869 2.189-3.519 7.051-5.26 3.93-3.521-.869-3.069-5.721 3.979-4.801z" fill="#ccc"/><path d="m467.734 127.163-4.8 2.6-2.66 1.33-4.38-2.65-.46-3.94 3.521.87 1.779.46-1.779-2.65h8.37l-.46 3.47z" fill="#1b1b1b"/><path d="m472.995 611.363 1.779-7.869 10.981-4.391 6.119-9.24 5.621-1.86.269-.089 3.351-1.112 1.329-2.189-1.78-.869 3.52-1.33 5.26-10.112.87 3.071 1.78-3.071 3.93 2.66-.87 3.471 3.07-1.74-.41 2.66 2.6-1.33 6.18 1.33-7.5 4.391 3.101 2.599-7.91 2.66 1.069 1.071-.51.509h-10.339l-8.861 19.2h-13.29l-11.81 5.9-10.339-4.43-.011-.009 2.74-2.942 1.74 1.781z" fill="#1b1b1b"/><path d="m454.155 597.783-1.79 2.189-1.321-2.189 1.781-1.33.869 1.33z" fill="#1b1b1b"/><path d="m453.234 636.423-1.739 2.61h-2.651l.46-3.53z" fill="#1b1b1b"/><path d="m446.174 530.773 1.481 16.24-8.87 2.949v7.391l-9.801 4.199-6.019-2.869-1.741 1.32-.46-3.929-3.059 1.74-2.971-7.691.421-.161v-10.33l19.199-5.91 4.431 1.481z" fill="#1b1b1b"/><path d="m444.694 521.914 1.48 8.859-7.389 4.43-4.431-1.481-1.47-7.379-4.429-2.961-1.481-7.379-2.95-5.91h-7.39l-11.809 2.959 1.469-8.869-5.9-1.471-5.91-7.388 8.86-4.432h4.43l1.481-10.34 8.86 11.821 5.909 1.48 2.95 4.43-2.95 4.429 5.9 4.43 8.861 8.861 3.339 3.34z" fill="#1b1b1b"/><path d="m443.584 517.882 7.911 4.391 4.399 5.26 3.931 16.24-1.741.459-.869 8.32-11.43 7.041-3.521-.91.451 1.779h-2.651l2.651 1.33-3.06-.919.869 1.33.87 1.32-1.33-1.32-1.739-.87.869.87 1.79 2.65-4.85-2.201 2.651 3.531-6.17 4.391h-3.521l2.191-7.922-2.301-1.1 9.801-4.199v-7.391l8.87-2.949-1.481-16.24-1.48-8.859-2.57-2.571z" fill="#1b1b1b"/><path d="m438.785 516.003-8.861-8.861-5.9-4.43 2.95-4.429-2.95-4.43-5.909-1.48-8.86-11.821 11.809 1.481 8.86-7.381 5.91 4.431h2.951l1.479 5.899 4.43 2.961.49.33-1.6 2.359h-4.39l1.33 2.192-1.739-.41.409 3.068-4.39 3.06-1.32 6.59 10.1 12.75-1.46 1.461z" fill="#1b1b1b"/><path d="m443.584 635.962-.869 2.651-5.25-.91-1.331-3.481h-4.389l1.739-2.648 4.841-.461 1.739 4.39z" fill="#1b1b1b"/><path d="m435.264 635.503 3.061 4.389-2.651 14.5-2.599-2.189-.87 1.779-4.391-1.33.41 2.201-4.39-3.07-16.24-10.969-8.78-12.762-2.19-1.738-6.129-4.391-2.201-8.371-7.04-3.469-6.13-8.371-9.23-6.129-2.2-5.72 15.82 2.66 5.26 4.801-.869 2.189 10.979 5.719 1.74 1.332 6.581 6.578.459-3.059 9.65 8.319.41-1.738 1.781.869 2.2 1.74-.641-.141.96 1.33 1.42-.73 3.061 1.73-3.47 5.26 7.859 1.791.46 5.26 2.651.449-.911 2.611.911-1.74z" fill="#1b1b1b"/><path d="m430.874 624.123h-3.52l.46-1.331z" fill="#1b1b1b"/><path d="m428.224 615.753v2.19l-.87-.86-1.739-.419z" fill="#1b1b1b"/><path d="m420.314 606.564 5.71 8.318-2.19-1.74-3.07 2.611-15.359-8.781-4.851-8.779-2.92-12.58 4.231 4.23 8.869-2.951.36-.449 7.021 5.621 2.199 4.389z" fill="#1b1b1b"/><path d="m421.634 144.263-.87 1.74-2.189-1.28z" fill="#1b1b1b"/><path d="m413.724 616.212-1.28 1.321-.46-2.651z" fill="#1b1b1b"/><path d="m401.474 121.443 2.601 3.06-6.991 2.66 2.6-7.05.46 3.07z" fill="#1b1b1b"/><path d="m399.684 639.892v1.791l-1.74-2.65z" fill="#1b1b1b"/><path d="m396.624 118.383v4.39l-5.259-.46-3.521-3.07 6.12-2.65v1.33l1.33-.87z" fill="#1b1b1b"/><path d="m396.624 550.353-5.719 10.98-2.271-1.13 4.37-8.76-1.469-10.34-4.431-7.381 1.471-10.34-8.861-16.24 2.96-5.91h7.38l4.43-5.908 5.91 7.388 5.9 1.471-1.469 8.869 11.809-2.959h7.39l2.95 5.91 1.481 7.379 4.429 2.961 1.47 7.379-19.199 5.91v10.33l-.421.161-.09-.221-6.179-3.479-6.131.41.871-5.259-6.581 1.328h-.46l.46 4.801z" fill="#1b1b1b"/><path d="m392.234 110.883 2.19 3.11-.87 2.19-4.39.87-2.65-1.33z" fill="#1b1b1b"/><path d="m389.164 628.923 2.201 4.391-4.391-3.07z" fill="#1b1b1b"/><path d="m389.164 117.463-1.32.92h-2.2l.46-1.79z" fill="#1b1b1b"/><path d="m390.905 561.333v2.19l.46 4.85 4.39-.459.869 3.519 3.06 9.65 7.46 2.2 3.95 3.16-.36.449-8.869 2.951-4.231-4.23-.139-.59-.871-.871-9.24-10.52-2.61 1.33 3.07-11.439.45-1.731-1.15 1.5-.04-.029 1.53-3.06z" fill="#1b1b1b"/><path d="m357.974 502.064-1.729-3.932-4.851-1.789.46-2.599-1.79 2.189-2.81-6.791.33-.129 2.75-3.461 2.8-3.519 2.95-13.289 4.43 2.949 10.34-22.151h7.38v-5.91l4.44-1.468 5.901 5.9 2.96 8.869-7.391 8.859v5.901h7.391l-2.96 2.959 5.909 5.9-1.48 2.961 5.91 2.949 8.86 4.43h-4.43l-8.86 4.432-4.43 5.908h-7.38l-2.96 5.91 8.861 16.24-1.471 10.34 4.431 7.381 1.469 10.34-4.37 8.76-1.53 3.06.04.029-.17.231-.87-4.391 3.06-6.119-2.19-1.33.87-5.721-3.07-7.449-.869 2.61-2.191-8.79v-10.97l-2.65.461-3.069-6.592v4.391l-2.651 2.201-2.189-2.201 1.319 2.65-4.39.869-1.74 3.07-1.78-2.66-1.33 2.66-2.19-2.66-1.74 1.791 1.74-2.65-2.61 1.779 2.61-10.109-2.61-12.299-1.319 3.519-3.071-3.98z" fill="#1b1b1b"/><path d="m382.124 617.083-.41 2.649-3.11-2.199-2.199-2.651 1.789-.41z" fill="#1b1b1b"/><path d="m378.234 443.632v5.91h-7.38v-4.429h-7.38l-4.43 5.91-10.339-1.481v-5.91l13.29-7.379h5.91l4.429-1.48 4.43 2.959-2.96 4.432z" fill="#1b1b1b"/><path d="m372.474 609.164-5.71-2.6h2.191v.408z" fill="#1b1b1b"/><path d="m357.974 105.623-3.519.86h-.411l1.741-1.73h.46z" fill="#1b1b1b"/><path d="m355.374 581.083-.919 1.331-.871-2.651z" fill="#1b1b1b"/><path d="m353.174 106.483-2.19.46.87-1.73z" fill="#1b1b1b"/><path d="m349.655 100.363-2.191 1.32-4.849-.45z" fill="#1b1b1b"/><path d="m349.194 543.773-.409 3.519-1.321-1.789z" fill="#1b1b1b"/><path d="m348.705 443.632v5.91l-17.721-1.478v-2.951l7.381-4.43z" fill="#1b1b1b"/><path d="m342.615 142.933-1.741 1.79h-2.15-.04l1.73-2.2z" fill="#1b1b1b"/><path d="m279.594 397.703-.3-5.76 4.43-2.95 1.65-4.01-.55-4.64-8.49-.21-7.48-9.35-4.33-5.42 1.48-10.34-4.43-1.47v-7.39l8.86-2.95h11.81l13.29-5.17 7.39-7.38v-11.82l11.81-1.48 4.43-11.81 8.86 4.43 2.96-8.86 11.07-4.43.7.99-.7.49 4.43 5.9 7.39 4.43v14.77l8.86 4.43 10.341 4.43 5.899 10.34 28.061 2.95 14.769 5.91 11.82-7.38h7.381l16.24-7.39-2.951-10.33v-2.96l8.861 1.48 2.96-4.43h5.899l5.91-10.34 11.81-1.48-7.38-8.86-7.38 2.96-7.91 4.07 1.46-16.01 10.881-1.35 2.949-14.77-4.43-4.43 11.81-10.34 2.96 2.95 7.381-2.95 17.719 20.67h10.34l7.39 5.91 10.33-8.86 4.431 25.11h-4.431l-5.899 4.43 8 9.33-.331 4.38h-2.61l.47 1.18-8.489 2.83v7.38l-7.38 1.48-8.061 14.2-3.33.14-10.519 10.97 3.059-5.26-3.519.87 3.519-8.32-3.059-3.52-3.981 2.65-3.479 6.13-3.971 6.58-6.13 2.2.41 4.85h6.17l3.521 6.99 3.479-3.47 3.521-3.11 10.569.45v3.94l-3.109-.41-5.681 3.93.42 3.52-3.07.46 1.331 1.28-1.331 2.19-3.52 5.31.46 2.19 4.801 1.28h1.779l5.26 10.979 7.041 4.85-10.561.451h3.981l7.449 4.811-8.779 7.039 6.129-2.2 3.98 1.331 1.28.41-3.479 3.979 3.069-1.781.41 2.651-3.059.869 2.189 1.321-2.189 2.201 2.189 2.609-5.71 2.19 1.78 1.33-2.65 9.23h-.87l-2.649-.451 1.779 1.781-1.33.411h2.2l-2.2 2.65 1.74 4.809-2.189-1.28v2.6h-2.611l1.32 2.65h-2.65l.87 2.61-5.26.92 2.201 1.279-2.661 4.39-1.73-1.279-.46 2.6-4.39 1.789 1.781.871-1.321 2.189-5.259 3.061-1.79-1.32-2.601 2.65-.46-1.779-3.52 2.648.911 1.74-6.58-4.798 1.739 5.709-1.739-.911-.92 2.19-1.281-3.059.421 4.85-3.531-.869v2.189h-4.39v1.74l-7.45 3.061-.41-1.32v7.5l-2.2.408-2.19-4.389 1.73-3.93-2.19-1.791-3.06 2.661-3.98-3.071-.41 2.612-4.389.459-1.061 1.57-.49-.33-4.43-2.961-1.479-5.899h-2.951l-5.91-4.431-8.86 7.381-11.809-1.481-1.481 10.34-8.86-4.43-5.91-2.949 1.48-2.961-5.909-5.9 2.96-2.959h-7.391v-5.901l7.391-8.859-2.96-8.869-5.901-5.9-4.44 1.468-4.43-1.468 2.96-4.432-4.43-2.959-4.429 1.48h-5.91l-13.29 7.379-10.34-2.949-7.381 4.43-2.96-4.43-4.43-1.48h-13.29l-16.24-19.2h-8.87l-8.86-8.86v-8.86l1.95.699 1.62.581z" fill="#ccc"/><path d="m329.905 481.443-1.79 2.189-.101-.17-2.939-13.24v-5.908l1.479-4.432-2.96-4.429 4.43-1.481h5.91v4.43l14.771 7.39-7.391 4.43 1.48 4.43 4.43-2.959 2.71 13.539.4.32-2.75 3.461-.33.129-4.639-11.228-4.801-.452.41 4.391-1.33.91-.41-3.98-2.19 4.849-1.79-3.98-.87 3.98z" fill="#1b1b1b"/><path d="m329.444 86.3231 3.52-.46-2.65.87 2.19.46-1.73 2.19-6.13-.4601.87-3.0599 2.601.46-.87-1.3301-.411-.4599 2.61-1.28.461.87 2.599-.4501-.41.4501z" fill="#1b1b1b"/><path d="m323.594 439.203v10.339l-19.2-4.429-4.43-4.43-7.38-1.48-13.29-13.289 5.9-5.911h8.87l16.24 19.2z" fill="#1b1b1b"/><path d="m320.664 128.893 4.85-.45.86-3.07 8.79-.87 2.65-.45 4.801 1.78 7.449-.87-2.6 3.48h-13.63l-3.929 1.78-2.66.87-.871-1.33-2.19 2.2-.46-1.33-1.28 2.2-1.32-1.28.411 1.73-1.281-1.32-1.79 2.19-3.059-2.19h3.519l-2.19-2.2 3.52-.87 1.281 1.74z" fill="#1b1b1b"/><path d="m320.254 88.5131h-3.11l1.78-.87z" fill="#1b1b1b"/><path d="m316.734 88.9231 1.32 1.33-3.519 2.2-3.061-.42 2.601-.91-1.731-.87z" fill="#1b1b1b"/><path d="m313.205 135.943-3.061 3.06-1.33 7.45-6.12-3.52 3.06-3.93-2.65-.87 1.32-2.19 7.05-1.33-1.79-1.78 2.66.45.861-1.32 2.66.87 1.729 1.78z" fill="#1b1b1b"/><path d="m318.464 86.733-12.71 1.33 2.201-1.74 3.519-2.2v1.74l.87-1.33 2.191 1.33-1.781-2.19 2.19-.87 3.11 2.65 1.74-.92-1.74-.86 2.61-.42-4.799-.91 9.189-3.48 2.191 1.74-2.191-.46-1.74 1.33h3.52l-5.71 2.65 7.911-1.78-4.851 1.78h2.19l-3.06 2.2-2.19 1.74-1.79-.87z" fill="#1b1b1b"/><path d="m310.144 152.173v.41l-1.779.92-.87-2.66 1.779-2.19.87 3.06z" fill="#1b1b1b"/><path d="m289.524 143.803-.46 2.65-3.93.46.86-2.65z" fill="#1b1b1b"/><path d="m284.824 380.343.55 4.64-1.65 4.01-4.43 2.95-2.96-4.43v-7.38z" fill="#ccc"/><path d="m279.594 397.703.31 5.86-1.62-.581z" fill="#1b1b1b"/><path d="m279.594 397.703-1.31 5.279-1.95-.699-10.33-4.43-8.87-1.47-4.43-5.91.16-9.04 6.53 1.27 9.56 1.86 4.43-2.66.38-.23 2.57-1.54v7.38l2.96 4.43z" fill="#1b1b1b"/><path d="m274.504 378.973 1.83 1.16-2.57 1.54-.38.23z" fill="#1b1b1b"/><path d="m268.854 370.783 7.48 9.35-1.83-1.16-.37-.23-5.7-3.59z" fill="#ccc"/><path d="m274.134 378.743.37.23-1.12 2.93-4.43 2.66-9.56-1.86.03-.17v-2.46l-5.24-1.42v-4.43l-3.78-2.9 6.74-6.48 7.38.52 4.33 5.42-.42 4.37z" fill="#1b1b1b"/><path d="m267.974 118.573-.48.61-.26-.2-16.74 6.89-16.98 19.45-11.82 2.95-8.55.75-.31.44-9.84-6.94 3.52-1.78-1.32-.41 1.32-3.52 5.72-2.2 7.04-5.72h16.65l4.39-3.93-.22-.89 17.04-14.2v4.43l2.96 2.96z" fill="#1b1b1b"/><path d="m264.914 551.683 6.59 9.65 3.06 9.649-3.52 4.391-7-.411-1.78-6.179-1.28-7.91.87 1.779 1.32-7.449.42-2.19 2.19.86-2.19-1.78-.87-.41h.87z" fill="#1b1b1b"/><path d="m257.144 364.843-13.3-.95-1.47 7.38-2.96 5.91h-4.43l-4.43 7.38-4.43 1.48-1.48 4.43h-13.29l-2.95 7.38-16.25-2.95-10.33-5.91 7.38-4.43-1.48-5.91h-2.95l2.95-13.29 8.86-13.29 4.44 4.43 13.29-2.95 1.47-4.43 10.34 2.95 4.12 1.54 7.7 2.89 10.33-5.91v10.34l8.86-1.48 7.39 5.91z" fill="#1b1b1b"/><path d="m260.064 103.423-.86 1.33-2.61-.87z" fill="#1b1b1b"/><path d="m260.064 107.403-1.28.41h.42 4.84l-1.32 1.79 1.73-.92 1.79-1.28-.87 3.06 6.58-1.32v2.19l-5.3 1.33 6.59-.87-3.94 1.74.87.46 4.85-1.33-.46 1.74-3.93.45h3.52l-1.33 4.39h-2.65l-.41-2.65-.92.87-.87 1.11-7.88-1.31-2.96-2.96v-4.43h-4.52v-2.47-2.65l1.78 1.32 4.81-1.32-.87 2.65 2.19-1.78 1.74.45-2.61.87h1.33.82z" fill="#1b1b1b"/><path d="m252.954 327.703 5.66 8.13-5.91 2.95-2.25-.32-2.18-4.11-6.64-.74-3.69 5.17-7.39-1.48 5.91 7.39-6.19 8.84-.03.08-4.12-1.54v-7.38l-10.34-16.25-2.95-10.34-5.91-4.43v-7.38l-4.43-2.95-10.34.73 10.34-20.67 14.77 1.48 2.95 2.95v16.24l13.3 1.48 2.95 16.25 1.48 8.86 11.81-1.48 2.9-1.93z" fill="#1b1b1b"/><path d="m257.134 109.873-17.04 14.2-.65-2.63-2.61.87.87-1.74-3.52 1.74.87-1.33-5.26 3.52-4.85.46-1.73-.46-5.72-.87 1.32-1.78-14.04 6.59v1.78l-4.84 4.8-2.2-.87-.41 1.79h-3.52l2.2-1.79-2.2.87-1.78-2.19-.42 2.19-.45-.87-5.72 3.98-8.32 3.07.45-3.07-4.84 1.74-.46-3.06 1.49-1.12 3.81-2.86h1.74l6.13-6.13 3.98-1.33-2.65.46 3.06-1.33-.41-.87 5.99-3.42h8.57l13.29-8.86 8.86 1.47 14.77-2.95h11.72z" fill="#1b1b1b"/><path d="m255.674 101.683-2.6.87.41-1.32z" fill="#1b1b1b"/><path d="m255.264 102.553-2.19 1.33-1.79-.46z" fill="#1b1b1b"/><path d="m259.394 382.703-6.53-1.27-.16 9.04-2.95-1.48v-7.38l4.43-2.96 5.24 1.42v2.46z" fill="#1b1b1b"/><path d="m252.704 338.783 5.91-2.95-5.66-8.13-.3-.45 1.53-1.02 7.39-4.43 5.9 5.9v-5.9l8.86 5.9 14.77 4.43 4.43 5.91-13.29 5.17h-11.81l-8.86 2.95-10.34-1.47-8.86-1.48v-5.91l8.08 1.16z" fill="#1b1b1b"/><path d="m242.374 337.303v5.91l8.86 1.48 10.34 1.47v7.39l4.43 1.47-1.48 10.34-7.39-5.91-8.86 1.48v-10.34l-10.33 5.91-7.7-2.89.03-.08 6.19-8.84-5.91-7.39 7.39 1.48 3.69-5.17 6.64.74 2.18 4.11z" fill="#1b1b1b"/><path d="m206.924 442.164h14.77v-13.291l-2.95-4.44 5.9-5.9 5.91 4.429 26.58-26.579 8.87 1.47 10.33 4.43v8.86l8.86 8.86-5.9 5.911 13.29 13.289 7.38 1.48 4.43 4.43 19.2 4.429v-10.339l4.43 1.48 2.96 4.43v2.951l17.721 1.478 10.339 1.481 4.43-5.91h7.38v4.429l-10.34 22.151-4.43-2.949-2.95 13.289-2.8 3.519-.4-.32-2.71-13.539-4.43 2.959-1.48-4.43 7.391-4.43-14.771-7.39v-4.43h-5.91l-4.43 1.481 2.96 4.429-1.479 4.432v5.908l2.939 13.24-1.18-2.019v3.06l-2.19-3.521-3.109 3.06-.871-4.39-1.74 3.111-5.719 1.74.87 4.389-4.801 4.391-8.779 2.65-6.581 6.131-12.31 6.129v3.109l-6.58.41-2.65 3.52-4.39-.459-1.74 3.529.87 11.84-2.66 5.301-1.73 3.939v8.782l-3.52-.461-.87 1.33-2.2 3.06 1.74 1.33-5.67.45-1.78 3.529-3.07 1.281-6.13-6.59-1.78-7.451-1.33-7.459-11.38-35.119-.87-25.881 2.6-5.31-1.32-4.391 2.19-1.738-2.19-.452.46-2.199 2.65-1.279-3.52-1.32-2.2 6.988-7.91.92-8.78-14.088 7.45.918 1.79-2.199-7.05-1.321-3.06-6.179 2.61-1.741-3.48 1.331.66-2.01z" fill="#1b1b1b"/><path d="m221.694 442.164h-14.77l-.16-.051.21-.641-1.87-.549-.78-1.65-.78 1.15-.96-.281v-6.129l-3.06-1.32.41-5.721-24.03-5.45.01-.04v-7.379h10.34v-11.82l-4.43-4.43v-8.86l10.33 5.91 16.25 2.95 2.95-7.38h13.29l1.48-4.43 4.43-1.48 4.43-7.38h4.43l2.96-5.91 1.47-7.38 13.3.95-6.74 6.48 3.78 2.9v4.43l-4.43 2.96v7.38l2.95 1.48 4.43 5.91-26.58 26.579-5.91-4.429-5.9 5.9 2.95 4.44z" fill="#1b1b1b"/><path d="m212.234 104.293 1.33-.41 1.32-1.33.41 3.07 1.79-2.61-1.79 3.47 2.2-1.73-1.33 1.73 3.52-1.73 1.24 1.23.09-.36 6.13.45-1.74.87.87.87 1.33-1.33 1.73.46-.41-1.32 3.07 1.78-.87-1.33 4.39-.45-.46.86 1.33-1.27 2.19 1.73-1.33-1.32h3.98l.87-1.33 1.33 2.65.87-2.19 2.6 1.73 1.33-2.6.46 1.74.87-1.33 1.73.46-3.06 1.73 3.52-1.73.87 2.65v2.47h-11.72l-14.77 2.95-8.86-1.47-13.29 8.86h-8.57l3.2-1.83-5.26 1.73.46-2.19-5.72.46-.87-2.2 3.94-4.39 2.65-1.78-1.33 2.19h1.33l.41-1.74 2.65.42-1.74-1.28 1.74-1.33 5.26 1.33-3.06-1.79 3.06-.87h-1.73l1.73-.87h1.79l-.92-.45 1.78-1.33v1.33l1.33-1.74.35 2.61.06.45-2.19 1.33 2.19.41 1.79-.87-2.2.46 1.74-1.79h-1.33v-2.19h1.33l.46-1.28v1.74l.87-2.2 1.73-.46-.41 3.12.87-3.12 1.74-.86-1.33 2.65 1.33-.87z" fill="#1b1b1b"/><path d="m206.924 154.183-11.81 5.9-.72-7.93 1.61-.85-.88-1.78 4.81-3.93 4.84 2.6.42 5.31 1.33-.46z" fill="#1b1b1b"/><path d="m197.324 143.803.41.92-.41 1.73-.91-.86z" fill="#1b1b1b"/><path d="m194.674 145.133.87 3.06-3.94-.87z" fill="#1b1b1b"/><path d="m194.394 152.153.72 7.93-7.39 8.86-5.16-1.72 2.46-6.89-2.46-8.86-.42-.56.68-.52 6.13-2.2 1.79 1.33-3.53 4.85 2.2.41z" fill="#1b1b1b"/><path d="m189.414 141.203-5.72 1.73 3.07-2.19z" fill="#1b1b1b"/><path d="m187.724 168.943-2.95 11.82-5.91 5.91-7.38 4.43h-7.39l-4.18-9.11-1.72-4.18 4.18-4.68 4.92-1.97 3.45-5.42 1.48 3.45 2.95.49 7.39-2.46z" fill="#1b1b1b"/><path d="m182.354 277.263-1.33-2.19 1.33-1.79 3.52 3.52-.87-3.06 3.52-2.2 5.67 3.94-.86-2.2 5.71-5.26v-2.6l-4.83-4.38-7.86-.9-.1-.37-1.48-14.77 11.81-8.86h4.44 5.9l11.82 1.48v10.33l11.81 1.48 5.91 8.86 7.38-1.47-2.21-7.39 7.38-5.91 36.92-1.47v8.86l8.86 8.86 13.3-1.48 4.43 19.2 7.381 4.43 8.859 1.48 1.481 7.38 5.91 1.48 5.899 4.43-11.07 4.43-2.96 8.86-8.86-4.43-4.43 11.81-11.81 1.48v11.82l-7.39 7.38-4.43-5.91-14.77-4.43-8.86-5.9v5.9l-5.9-5.9-7.39 4.43-1.53 1.02-2.9 1.93-11.81 1.48-1.48-8.86-2.95-16.25-13.3-1.48v-16.24l-2.95-2.95-14.77-1.48-10.34 20.67-4.43-7.38-7.13-3.45-.32-.32 2.95-2.95-3.48-5.71z" fill="#1b1b1b"/><path d="m180.594 293.243 7.13 3.45 4.43 7.38 10.34-.73 4.43 2.95v7.38l5.91 4.43 2.95 10.34 10.34 16.25v7.38l-10.34-2.95-1.47 4.43-13.29 2.95-4.44-4.43 1.48-7.38-4.43-7.39-10.34-10.34-13.98 1.4 6.04-12.46v-3.52h-2.19l1.73-2.65 1.33 1.78.87-3.11-2.2-1.73-.45 2.19.45-4.39 3.53-3.93 1.32 4.39 5.26-.46-.46-8.78-3.06-.87-3.06 5.26 1.73-7.04.12-.12z" fill="#1b1b1b"/><path d="m177.844 154.143 4.3-3.23.42.56 2.46 8.86-2.46 6.89-7.39 2.46-2.95-.49-1.48-3.45 5.42-4.92 1.16-6.1-.09-.12z" fill="#1b1b1b"/><path d="m173.594 135.483-3.53.46-2.6 1.73 6.36-6.35.22-.23 1.74 1.33-1.74 1.73 2.61-1.32z" fill="#1b1b1b"/><path d="m173.184 154.373 1.28.86 3.38-1.09-4.25 1.55.45 1.28 3.19-2.37.09.12-1.16 6.1-5.42 4.92.4-9.64h.71l-.46-.41v-.46l1.33-.86z" fill="#1b1b1b"/><path d="m170.524 131.093 2.66-1.33.41 1.33-3.07 1.74z" fill="#1b1b1b"/><path d="m171.394 155.233-.22.04.01-.17z" fill="#1b1b1b"/><path d="m171.144 156.103-.4 9.64-3.45 5.42-4.92 1.97-4.18 4.68-5.91 7.38-4.43-1.48-3.16-10.74-.53-1.81 5.41-12.8-.56-.63 4.01-2.82 13.31-8.56 5.06 3.63-2.19 3.93 1.98 1.19-.01.17-2.39.42 1.74.41z" fill="#1b1b1b"/><path d="m167.874 141.203-1.28 1.32v-1.32z" fill="#1b1b1b"/><path d="m166.904 298.323.42.49-.17-.02.05.09-.07-.09-3.67-.45-3.06 4.39-3.52 1.28-.41-.2 1.72-3.43-1.48-2.95-2.75-.46 1.03-16.53.05-.09 4.62 2.31 2.22 6.65 2.95 4.92.51.04-.08.99z" fill="#1b1b1b"/><path d="m157.814 423.914 2.61 10.558-9.2 8.32-1.32-1.728-2.2 1.279-1.78 7.91-5.26-1.33-3.52 4.391-4.39-1.74-3.07 3.939-9.97-2.73.08-.28v-19.201l14.77 4.43 5.9-10.34-1.47-8.859 10.99-11.17-.54 5.159 1.78 4.802z" fill="#1b1b1b"/><path d="m152.744 264.663 1.84.47.65 1.28v3 2.91l4.43 1.48v8.86l-4.62-2.31-1.28-.64-4.43-2.96-2.96-5.9-.46-.71.47-.3 2.64-6.16.06.03z" fill="#1b1b1b"/><path d="m153.764 279.713 1.28.64-.05.09-1.03 16.53-6.11-1.02 2.21-4.67-5.16-2.71 4.43-11.82z" fill="#1b1b1b"/><path d="m153.424 395.833-1.78.87-3.94-.87z" fill="#1b1b1b"/><path d="m152.964 400.223-2.65 3.929-.27 2.64-3.91-2.779-.04-.071z" fill="#1b1b1b"/><path d="m149.284 254.823 5.3 10.31-1.84-.47-.35-1.32-.01-.01-1.16-2.98-.81-1.82-.35-.8v-.01l-.21-.73-.52-1.84z" fill="#1b1b1b"/><path d="m150.044 406.792-.06.571-10.99 11.17-11.82-8.86-.18-8.39 1.83 3.33 2.65-.461 6.13 4.39 8.49-4.6.04.071z" fill="#1b1b1b"/><path d="m151.214 260.353 1.17 2.98.36 1.33-3.66-.95-.06-.03.01-.02-.91-7.45-.1-3.84 1.25 2.42.05.35.53 1.85.21.73v.01l.35.8z" fill="#1b1b1b"/><path d="m149.274 254.793-1.25-2.42-.18-7.43z" fill="#1b1b1b"/><path d="m144.694 172.973 3.16 10.74-5.91 2.96-5.66-10.59.32-.86 1.73-4.6 5.83 2.51z" fill="#1b1b1b"/><path d="m146.374 199.963v7.38l-3.93 8.36-7.13 1.87.72-4.32z" fill="#1b1b1b"/><path d="m149.014 157.733.56.63-5.41 12.8.53 1.81-.53.16-5.83-2.51.9-2.41-2.85-1.14 9.25-13.14z" fill="#1b1b1b"/><path d="m106.994 316.373.74-5.9 10.83-.98 6.4-9.85 6.24-1.78 4.1 2.28 2.58 4.3.45.22-2.3 4.58 2.96 5.91-8.86 8.86 1.47 8.86-2.95 23.63-2.95-5.91-5.91 5.91-9.6-11.08 3.45-4.92-6.9-22.15z" fill="#1b1b1b"/><path d="m136.284 175.103.32.12-.32.86 5.66 10.59-.53 3.72-.21-.03-13.78 1.97-3.45-3.94 3.45-10.34z" fill="#1b1b1b"/><path d="m135.314 217.573 7.13-1.87 3.93-8.36v-7.38l-5.91-2.96.95-6.61.53-3.72 5.91-2.96 4.43 1.48 5.91-7.38 1.72 4.18 4.18 9.11h7.39l4.43 5.9-5.91 14.77 7.39 11.82-14.75 10.72-.03-.05-10.11-4.85-4.38.46 2.65-1.74-4.39 1.28-1.33 4.39.46 1.33 3.06 2.65-.7-.12-9.4-1.66v-2.61l3.52-4.85-1.74-1.32 4.39.91 1.28-2.19-3.07-4.85 1.33-.46-.46-1.74 1.33 2.65 1.33-3.1-3.94-1.29-2.65 1.29-3.52.45.87-1.32-2.24 2.46z" fill="#1b1b1b"/><path d="m135.314 217.573-.41 2.46-2.15 2.38-1.74-.87.87-1.78-5.52 5.2-.91-4.08-6.89-6.89 2.46-6.89 3.45-6.9 2.95-7.87 13.78-1.97.21.03-.95 6.61 5.91 2.96-10.34 13.29z" fill="#1b1b1b"/><path d="m131.474 355.863-1.33 2.19-1.52-1.52.03-.03 2.95-23.63-1.47-8.86 8.86-8.86-2.96-5.91 2.3-4.58.66-1.32 5.91-14.77 5.16 2.71-2.21 4.67 6.11 1.02 2.75.46 1.48 2.95-1.72 3.43.41.2-3.07 8.78 6.59 12.31 8.29 3.32.49.2.13-.26 13.98-1.4 10.34 10.34 4.43 7.39-1.48 7.38-8.86 13.29-2.95 13.29h2.95l1.48 5.91-7.38 4.43v8.86l4.43 4.43v11.82h-10.34v7.379l-.01.04-.99-.219-7.91-6.171-11.39-9.199v-5.71-4.85h-10.1l-3.98-3.93-3.06-9.65-3.53-4.39.46-15.82v-1.33l-2.65-.41z" fill="#1b1b1b"/><path d="m123.974 188.393 3.45 3.94-2.95 7.87-3.45 6.9-2.46 6.89-6.23 1.43 3.27-8.82-2.95-.98 1.48-4.92 6.39-7.99z" fill="#1b1b1b"/><path d="m128.654 356.503-.03.03-1.54-1.54v.87l-.46 3.06-2.65-.41 1.78 1.33-.65 4.62-5.31-7.96 5.91-5.91z" fill="#1b1b1b"/><path d="m121.774 481.443h-3.06l-2.61-3.07z" fill="#1b1b1b"/><path d="m119.794 452.503-.08.28-2.74-.75-2.19 4.39-13.63-2.65-3.5199 1.74-13.59-4.801-3.06 1.321-6.17-4.391.45-18.019 2.34-6.69 7.12-.34 7.01 7.75 3.32 4.799 8.4899-4.799 16.25 2.959z" fill="#1b1b1b"/><path d="m115.604 206.603-3.27 8.82-.17.04-3.94-3.44 1.48-2.46-1.21-2.42 4.16-1.52z" fill="#1b1b1b"/><path d="m112.334 215.423 6.23-1.43 6.89 6.89.91 4.08-1.48 1.39-7.04 1.78.87 1.28-.46 1.24-7.57-1.89-2.95-6.9 4.43-6.4z" fill="#1b1b1b"/><path d="m112.164 215.463-4.43 6.4-4.43-2.46-.54-.03 5.46-7.35z" fill="#1b1b1b"/><path d="m108.494 207.143 1.21 2.42-1.48 2.46-5.46 7.35-4.85-.28-.15-.07 2.06-4.52 6.59-5.26.66-1.72.17.07z" fill="#1b1b1b"/><path d="m109.524 235.583-.53-3.77.71-.1.98-2.95 7.57 1.89-3.47 9.32-2.66-3.97-3.47.5-.55.09-2.1.32z" fill="#1b1b1b"/><path d="m105.764 293.243 1.37 7.28-6.39 3.73-.12-.07-.3-.16-4.1499-2.27 8.0399-6.9.91-1.91z" fill="#1b1b1b"/><path d="m103.804 240.843-1.33 2.66-.45-.92.45-2.61z" fill="#1b1b1b"/><path d="m98.9541 250.493v-4.39l1.7899-1.74-.9199 2.61 1.3299.92v-2.2l3.98-4.39-1.79-1.78 2.2-2.2 3.11-.82 3.06 7 1.28-1.79 2.2 2.2-.87-2.2 1.78-2.19 3.07 6.17 7.91.87 3.93 4.39-.46 8.32 3.52 7.05 3.98 3.93.42.46 5.25.86 2.19-1.43.46.71 2.96 5.9-4.43 11.82-5.91 14.77-.66 1.32-.45-.22-2.58-4.3-4.1-2.28-.33-.19-4.93-3.93-5.9-1.48-7.87-9.26.41-.45-.91-.14-2.15-.32-.46-3.47-3.52 1.28-3.52-2.61-.42-9.24-.86-1.73-3.1099 3.06-1.2801-1.74.4101-7.91-2.61-1.78 3.06.45-2.19-2.65 1.74-.41.87-3.98z" fill="#1b1b1b"/><path d="m101.154 286.943-3.9399-.87.42-5.26 2.33 1.15 4.7099 2.33-3.07.46z" fill="#1b1b1b"/><path d="m99.3641 309.983v-2.19h.04l3.0399-2.61-1.7-.93 6.39-3.73-1.37-7.28-.64-.3 2.2-4.67 4.85-5.27 7.87 9.26 5.9 1.48 4.93 3.93.33.19-6.24 1.78-6.4 9.85-10.83.98z" fill="#1b1b1b"/><path d="m99.364 307.793v2.19l8.37.49-.74 5.9-8.61-.48v8.86l-12.31.49-.93-3.69 4.37-6.65 2.96-2.46 5.33-4.56 1.56-1.34z" fill="#1b1b1b"/><path d="m96.5341 305.183 1.27 2.7-5.33 4.56-.37-3.57z" fill="#1b1b1b"/><path d="m94.564 261.473-2.19 1.33.45-1.33z" fill="#1b1b1b"/><path d="m96.354 232.063-.83 7.09 1.24-6.22 1.32.46-.87 4.39-2.19 3.93.32-1.64-2.1 2.51.91-3.47-1.33-.92v-.41l1.33-.46-1.78-6.99 1.78-3.53h1.28l-.87-.86 2.65-5.72.55-1.2.15.07 4.85.28.54.03 4.43 2.46 2.95 6.9-.98 2.95-.71.1-.39-2.81-2.6-2.65-1.79 4.84v-3.06l-1.74 2.61 1.74-6.13-.87-.46-4.8 8.78.41-2.19-1.32 1.78z" fill="#1b1b1b"/><path d="m92.3741 227.673-1.33 2.66v-1.79z" fill="#1b1b1b"/><path d="m85.0941 321.363 4.42-13.84-.03-.03 6.69-5.74 4.1499 2.27.3.16.12.07 1.7.93-3.0399 2.61h-.04v-1.25l-1.56 1.34-1.2701-2.7-4.43 3.69.3701 3.57-2.96 2.46-4.37 6.65z" fill="#1b1b1b"/><path d="m91.0441 239.113-3.93 6.99.87-3.52-1.74 1.33 1.74-3.94-1.33-.45 3.98-7 1.74-.91.45 6.17v.41l-1.32 3.98z" fill="#1b1b1b"/><path d="m87.1141 261.473-1.33 1.33-2.19-4.4-.87-4.84 1.74-2.2 1.32 9.7z" fill="#1b1b1b"/><path d="m85.0941 321.363.05.19-.21.32z" fill="#1b1b1b"/><path d="m80.0341 327.943-1.18.34-.17-.58 6.4-6.4.01.06-.16.51.21-.32.93 3.69 12.31-.49v-8.86l8.6099.48-.25 1.98 6.9 22.15-3.45 4.92 9.6 11.08 5.31 7.96-1.13 8.09 2.65 9.65-2.2 3.52.46 10.11 3.48-7.46 2.19 2.2-4.39 9.19.83 1.52.18 8.39 11.82 8.86 1.47 8.859-5.9 10.34-14.77-4.43-16.25-2.959-8.4899 4.799-3.32-4.799-7.01-7.75-7.12.34.73-2.09-1.33-24.14-1.33-6.59-.86-6.58 2.65-8.33 1.33-10.1-1.79-7.05 1.79-5.26 2.19-23.27z" fill="#1b1b1b"/><path d="m70.0041 451.574 2.61 1.328.81 2.4-2.72.821-1.86.56v-3.939l.98-5.911 1.59-.23 1.86-.26.56-.14.39 1.58.18.73-.46 3.061z" fill="#1b1b1b"/><path d="m70.004 369.903-.2 1.68-.47-.06-7.38-9.36 6.73-1.42z" fill="#1b1b1b"/><path d="m67.354 417.324.87 3.058-1.33-1.73.46-1.738z" fill="#1b1b1b"/><path d="m58.524 357.113 3.43 5.05-3.0799-.12z" fill="#1b1b1b"/><path d="m71.3041 445.853-4.43-13.289-5.41-7.881-4.93.99v-5.91l-2.74-1.18-.7-.3.2-.52 6.2-16.21 6.89-.5-1.22 19.79 1.32-1.74v1.279l.41 3.112 2.66 5.259 4.28 17.45-.56.14-1.86.26z" fill="#1b1b1b"/><path d="m495.972 592.058-4.067-1.549 5.59-2.506 2.74-.982-1.356 2.131-1.745-.194-.774 2.907z" fill="#1b1b1b"/><path d="m19.1341 280.798c18.185-61.822 63.009-116.975 117.6569-151.023 76.862-49.651 169.217-65.669 259.899-56.634" opacity=".3" stroke="#565555" stroke-linejoin="round" stroke-width=".15"/><path d="m63.0371 608.306c-36.263-56.305-45.571-128.535-31.17-194.924 17.417-86.28 70.4169-165.55 135.2179-223.022 63.974-57.46 145.584-100.074 229.607-117.219" opacity=".3" stroke="#565555" stroke-linejoin="round" stroke-width=".15"/><path d="m225.473 752.744c-91.109-52.389-89.745-172.324-75.511-263.412 16.424-98.287 58.065-194.837 114.585-279.216 37.457-52.833 79.155-100.679 132.145-136.974" opacity=".3" stroke="#565555" stroke-linejoin="round" stroke-width=".15"/><path d="m356.742 789.621c-13.926-4.658-15.342-24.104-19.756-38.193-14.588-92.301-8.503-189.711-3.072-283.168 8.708-112.732 22.674-225.119 46.536-333.655 5.026-20.732 9.736-40.692 16.243-61.463" opacity=".3" stroke="#565555" stroke-linejoin="round" stroke-width=".15"/><path d="m477.471 783.474c27.741-7.615 38.338-42.049 44.341-68.047 17.271-80.596 9.515-167.18-.438-248.484-17.042-115.385-45.418-230.183-93.512-336.289-9.555-19.771-19.476-39.541-31.171-57.513" opacity=".3" stroke="#565555" stroke-linejoin="round" stroke-width=".15"/><path d="m619.715 722.89c50.455-35.096 73.202-92.547 78.146-150.582 8.202-101.172-25.575-197.224-76.318-284.346-55.177-89.862-129.514-168.068-224.851-214.821" opacity=".3" stroke="#565555" stroke-linejoin="round" stroke-width=".15"/><path d="m774.249 512.601c19.475-60.771 13.365-131.058-11.854-189.218-41.424-98.097-124.25-169.958-221.564-212.855-46.348-19.7-94.393-32.589-144.139-37.386" opacity=".3" stroke="#565555" stroke-linejoin="round" stroke-width=".15"/><path d="m730.346 185.091c-43.681-69.96-123.537-110.272-203.706-118.536-43.163-5.404-88.176-2.419-129.948 6.585" opacity=".3" stroke="#565555" stroke-linejoin="round" stroke-width=".15"/><path d="m567.912 40.653c-45.573-21.952-99.21-8.464-140.049 13.61-10.915 5.351-20.888 12.075-31.171 18.877" opacity=".3" stroke="#565555" stroke-linejoin="round" stroke-width=".15"/><path d="m436.642 3.776c-15.149 1.142-22.086 23.164-28.535 36.877-4.494 10.566-8.115 21.538-11.415 32.487" opacity=".3" stroke="#565555" stroke-linejoin="round" stroke-width=".15"/><path d="m315.913 9.92298c30.017-3.766 51.809 23.64202 68.926 45.65702 4.024 5.768 8.243 11.433 11.854 17.561" opacity=".3" stroke="#565555" stroke-linejoin="round" stroke-width=".15"/><path d="m173.669 70.5069c54.564-37.647 126.5-34.192 186.145-12.732 12.564 4.25 24.746 9.404 36.878 15.365" opacity=".3" stroke="#565555" stroke-linejoin="round" stroke-width=".15"/><path d="m19.1341 280.798c18.185-61.822 63.009-116.975 117.6569-151.023 76.862-49.651 169.217-65.669 259.899-56.634" opacity=".3" stroke="#565555" stroke-linejoin="round" stroke-width=".15"/><path d="m83.6711 637.72c39.9039 50.074 96.6039 76.486 154.0959 94.828 106.395 30.959 229.145 30.053 333.655-5.268 51.604-18.111 102.428-44.113 138.291-89.561" opacity=".3" stroke="#565555" stroke-linejoin="round" stroke-width=".15"/><path d="m1.5741 396.698c.115 59.192 40.257 109.016 86.046 140.926 65.4939 47.051 144.0299 69.326 222.1459 80.34 102.201 12.217 207.945 3.898 302.924-31.607 65.327-24.5 131.184-64.07 164.193-127.756 9.346-19.492 15.052-40.198 14.928-61.902" opacity=".3" stroke="#565555" stroke-linejoin="round" stroke-width=".15"/><path d="m59.5241 200.896c-16.595 51.182 9.217 106.146 48.9489 139.825 53.743 46.543 119.736 69.204 188.123 81.88 85.941 14.67 178.67 10.645 260.778-14.486 57.228-17.829 114.079-45.273 153.654-95.707 15.664-20.599 26.423-45.675 27.659-71.56" opacity=".3" stroke="#565555" stroke-linejoin="round" stroke-width=".15"/><path d="m738.688 240.847c1.817-31.11-10.072-61.083-28.976-85.17" opacity=".3" stroke="#565555" stroke-linejoin="round" stroke-width=".15"/><path d="m83.6711 155.677c-10.626 13.326-18.819 29.012-24.147 45.219" opacity=".3" stroke="#565555" stroke-linejoin="round" stroke-width=".15"/><path d="m202.206 96.848c-12.042 36.577 12.771 73.055 42.584 91.755 55.209 37.16 124.92 45.246 190.974 39.074 52.496-7.008 108.676-24.003 143.561-67.61 20.438-25.865 19.323-66.312-3.073-90.876-33.939-40.261-87.639-56.689-137.853-63.65803-69.376-7.297-142.496 1.78-200.193 43.02403-15.812 12.585-30.237 28.453-36 48.291z" opacity=".3" stroke="#565555" stroke-linejoin="round" stroke-width=".15"/><path d="m792.348 396.38c1.083-135.817-73.788-268.725-190.5-337.984-117.694-72.705-273.78-75.973-394.479-8.403-120.2849 64.637-201.7559 196.042-204.6729 332.778-6.978 144.078 73.936 287.896 200.1569 357.297 119.783 69.547 276.489 68.158 395.045-3.514 119.11-68.539 195.455-202.689 194.45-340.174z" stroke="#111" stroke-linejoin="round"/></svg>